<?xml version="1.0" encoding="utf-8"?>
<!-- Generator: Adobe Illustrator 17.1.0, SVG Export Plug-In . SVG Version: 6.00 Build 0)  -->
<!DOCTYPE svg PUBLIC "-//W3C//DTD SVG 1.1//EN" "http://www.w3.org/Graphics/SVG/1.1/DTD/svg11.dtd">
<svg version="1.1" xmlns="http://www.w3.org/2000/svg" xmlns:xlink="http://www.w3.org/1999/xlink" x="0px" y="0px" xmlns:a="http://ns.adobe.com/AdobeSVGViewerExtensions/3.0/"
	 viewBox="-13 -287 1104 1062" enable-background="new -13 -287 1104 1062" xml:space="preserve">
<g *ngIf="weed>=1" id="weed1">
	<g id="weed1_1_">
		<g id="g58">
			<g id="g60">
				<g id="g66">
					
						<linearGradient id="path76_1_" gradientUnits="userSpaceOnUse" x1="-53.7298" y1="979.3685" x2="-40.8015" y2="979.3685" gradientTransform="matrix(3.802521e-004 -12.9762 -12.9762 1.297623e-002 13287.8633 -12.7783)">
						<stop  offset="0" style="stop-color:#242224"/>
						<stop  offset="0.5412" style="stop-color:#31324A"/>
						<stop  offset="1" style="stop-color:#3B3D66"/>
					</linearGradient>
					<path id="path76" connector-curvature="0" fill="url(#path76_1_)" d="M580.6,583.5c6.1-21.1,12-37.9,17.7-50.1
						c-11.3,27.5-18.3,65.8-20.9,114.8c-1.3,24.6-1.6,46.4-0.7,65.4c-4.4,2.3-8.4,3.2-12,2.7l-4.2-1.7
						C561.7,669.6,568.4,625.9,580.6,583.5L580.6,583.5z"/>
				</g>
			</g>
		</g>
		<g id="g78">
			<g id="g80">
				<g id="g86">
					
						<linearGradient id="path96_4_" gradientUnits="userSpaceOnUse" x1="17.1822" y1="963.2155" x2="17.1822" y2="945.741" gradientTransform="matrix(12.9762 0 0 -12.9762 311.6371 12976.4092)">
						<stop  offset="0" style="stop-color:#368760"/>
						<stop  offset="0.3176" style="stop-color:#316D6B"/>
						<stop  offset="1" style="stop-color:#242224"/>
					</linearGradient>
					<path id="path96" connector-curvature="0" fill="url(#path96_4_)" d="M533.4,554.3c14.3,51.3,22.1,104.4,23.6,159.3
						c-1,1-2.5,1.8-4.7,2.4c-4.4,1.1-9.7,0.7-16-1.5c1.2-23.4,1-50.2-0.5-80.4c-2.8-60.3-10.6-107.2-23.6-140.6
						C519.1,508.3,526.2,528.5,533.4,554.3L533.4,554.3z"/>
				</g>
			</g>
		</g>
		<g id="g98">
			<g id="g100">
				<g id="g106">
					
						<linearGradient id="path122_2_" gradientUnits="userSpaceOnUse" x1="-51.0056" y1="979.8796" x2="-29.1516" y2="979.8796" gradientTransform="matrix(0.7033 -12.9568 -12.9568 -0.7033 13268.3965 703.4932)">
						<stop  offset="0" style="stop-color:#242224"/>
						<stop  offset="0.1333" style="stop-color:#222C26"/>
						<stop  offset="0.3608" style="stop-color:#1E472A"/>
						<stop  offset="0.651" style="stop-color:#187231"/>
						<stop  offset="0.7569" style="stop-color:#158434"/>
						<stop  offset="1" style="stop-color:#70A834"/>
					</linearGradient>
					<path id="path122" connector-curvature="0" fill="url(#path122_2_)" d="M602.2,422.5c1,22.1-2.6,43.1-10.8,62.9
						c-13,35.4-21.3,73.2-25.1,113.3c-3.1,32.9-3.2,69.7-0.2,110.4l-1.2,2.7c-1.8,1.8-4.8,3-9.1,3.7c-3.9,0.7-7.7,0.7-11.3,0
						l-4.2-1.2c-1.3-16.5-1.1-39.2,0.7-68.1c3.4-58.7,15.2-115.1,35.4-169.4c17.5-46.5,14.1-80.1-10.3-100.8
						c-6.7-6.2-14.5-9.7-23.4-10.6c-9.7-0.7,14.8,17.7,20.2,23.6c5.2,5.9,8.9,11.8,11.1,17.7c2.6,6.7,3.6,14.2,2.9,22.4
						c-1,9.3-4.4,16.9-10.3,22.9c-6.7,6.2-14.9,8.7-24.6,7.4c-10.3-1.8-18.7-5.8-25.1-12.1c-5.6-5.4-10.2-13.2-13.8-23.4
						c-3.3-9.6-4.8-18.1-4.4-25.3c0.2-9,3-18.8,8.6-29.5c3.4-5.6,8.6-10,15.5-13.3c7.5-3.6,15-4.9,22.4-3.9
						c11.4,1,22.2,5.5,32.2,13.5C592.8,378.3,601,397.3,602.2,422.5L602.2,422.5z"/>
				</g>
			</g>
		</g>
		<path id="path124" connector-curvature="0" fill="#158434" d="M576.1,488.6c3.3-3.9,5-3.1,5.2,2.4
			c0,5.6-1.5,10.1-4.4,13.5c-2.9,3.1-4.5,2.1-4.7-3C572,496.6,573.4,492.2,576.1,488.6L576.1,488.6z"/>
		<path id="path126" connector-curvature="0" fill="#158434" d="M589.2,472.2c3-2.3,4-0.5,3.2,5.4c-1,6-2.5,9.2-4.4,9.3
			c-1.9,0.3-2.9-1.6-2.7-5.7C585.4,477.2,586.7,474.1,589.2,472.2z"/>
		<path id="path128" connector-curvature="0" fill="#158434" d="M587.9,459.9c2-2.5,3.5-2.4,4.4,0.2c1,2.8,0.5,4.9-1.5,6.4
			c-1.8,1.3-3,0.8-3.7-1.5C586.5,462.9,586.8,461.2,587.9,459.9L587.9,459.9z"/>
		<path id="path130" connector-curvature="0" fill="#158434" d="M577.9,476.8c1.2-1.3,1.7-1,1.7,1c0,1.8-0.7,3.4-2.2,4.9
			c-1.3,1.3-1.8,0.9-1.5-1.2C576.2,479.5,576.9,478,577.9,476.8L577.9,476.8z"/>
		<path id="path132" connector-curvature="0" fill="#158434" d="M578.1,507.3c2.3-1.6,3.4-0.7,3.4,2.7
			c0.2,3.5-0.7,5.5-2.7,6.1c-1.6,0.7-2.5-0.4-2.7-3.2C576,510.2,576.6,508.3,578.1,507.3z"/>
		<path id="path134" connector-curvature="0" fill="#158434" d="M585.2,495c0.8-1.2,1.1-0.8,1,1c-0.3,1.6-1,3.4-2,5.2
			c-1,2.1-1.3,2-1-0.5C583.4,498.2,584.1,496.3,585.2,495z"/>
		<path id="path136" connector-curvature="0" fill="#158434" d="M567.3,507.8c1.5-1.5,1.3,1-0.5,7.4
			c-1.8,6.2-3.2,9.5-4.2,9.8c-1.1,0.3-1-2.1,0.5-7.4C564.6,512.4,566,509.1,567.3,507.8L567.3,507.8z"/>
		<path id="path138" connector-curvature="0" fill="#158434" d="M571.2,512.5c2.5-1.8,3.4-0.7,2.7,3.2
			c-0.5,3.9-1.7,5.7-3.5,5.2c-1.5-0.3-2-1.6-1.7-3.9C569.3,514.8,570.1,513.3,571.2,512.5z"/>
		<path id="path140" connector-curvature="0" fill="#158434" d="M574.9,526.7c1.1-1.1,1.9-1.3,2.4-0.5
			c0.3,0.8,0.2,2.2-0.5,4.2c-0.6,2.1-1.4,5.1-2.2,8.9c-0.7,2.3-1.4,2.7-2.2,1.2c-1.1-1.6-1.4-4-0.7-7.1
			C572.2,530.3,573.3,528,574.9,526.7z"/>
		<path id="path142" connector-curvature="0" fill="#158434" d="M565.6,536.6c1-1,1.9-1,2.7,0c1,1.1,1.4,2.9,1.2,5.4
			c-0.1,2.6-0.8,4.8-1.9,6.6c-1.3,1.8-2.5,2.3-3.7,1.5c-1.5-1-2-3.1-1.7-6.4C562.6,540.6,563.8,538.2,565.6,536.6z"/>
		<path id="path144" connector-curvature="0" fill="#158434" d="M565.3,524.5c0.8-1.3,1.6-1.6,2.2-0.7
			c0.8,1,0.7,2.2-0.2,3.7c-0.8,1.6-1.6,1.8-2.2,0.5C564.4,526.8,564.5,525.7,565.3,524.5L565.3,524.5z"/>
		<path id="path146" connector-curvature="0" fill="#158434" d="M559.2,540.5c2.1-1.8,2.5,0.1,1.2,5.7
			c-1.3,5.9-2.6,8.8-3.9,8.6c-1-0.2-1.1-2.3-0.3-6.4C557,544.3,558,541.6,559.2,540.5L559.2,540.5z"/>
		<path id="path148" connector-curvature="0" fill="#158434" d="M560.4,530.4c0.8-1.8,1.4-2.2,1.7-1.2
			c0.3,1.1,0.1,2.7-0.7,4.7c-1,2.1-1.6,2.5-1.7,1C559.3,533.5,559.6,532.1,560.4,530.4z"/>
		<path id="path150" connector-curvature="0" fill="#158434" d="M567.3,553.8c2.1-1.5,2.9,0,2.2,4.4
			c-0.7,4.3-1.7,6.1-3.2,5.6c-1.3-0.5-1.8-2-1.5-4.7C565.2,556.4,566,554.6,567.3,553.8L567.3,553.8z"/>
		<g id="g152">
			<g id="g154">
				<g id="g160">
					
						<linearGradient id="path172_1_" gradientUnits="userSpaceOnUse" x1="-54.4065" y1="979.8315" x2="-46.9431" y2="979.8315" gradientTransform="matrix(6.586895e-004 -12.9762 -12.9762 1.297623e-002 13287.8652 -12.7783)">
						<stop  offset="0" style="stop-color:#242224"/>
						<stop  offset="4.310000e-002" style="stop-color:#242629"/>
						<stop  offset="0.698" style="stop-color:#225F70"/>
						<stop  offset="1" style="stop-color:#21758C"/>
					</linearGradient>
					<path id="path172" connector-curvature="0" fill="url(#path172_1_)" d="M548.4,715.7c1-24.1,9.6-48.7,25.8-74
						l24.1-30.5c-17.9,23.6-28,47.9-30.5,72.8c-1.2,12.5-0.5,22.5,2,30.2C563.2,717.6,556.1,718.1,548.4,715.7L548.4,715.7z"/>
				</g>
			</g>
		</g>
	</g>
</g>
<g *ngIf="weed>=2" id="weed2">
	<g id="weed2_1_">
		<g id="g84">
			<g id="g86_1_">
				<g id="g92">
					
						<linearGradient id="path108_1_" gradientUnits="userSpaceOnUse" x1="-27.7559" y1="987.1462" x2="-10.5743" y2="987.1462" gradientTransform="matrix(1.2742 -23.2588 -23.2588 -1.2742 23524.0859 1273.7014)">
						<stop  offset="0" style="stop-color:#242224"/>
						<stop  offset="0.1333" style="stop-color:#222C26"/>
						<stop  offset="0.3608" style="stop-color:#1E472A"/>
						<stop  offset="0.651" style="stop-color:#187231"/>
						<stop  offset="0.7569" style="stop-color:#158434"/>
						<stop  offset="1" style="stop-color:#70A834"/>
					</linearGradient>
					<path id="path108" connector-curvature="0" fill="url(#path108_1_)" d="M629.9,304.2c2.1,31.3-3.4,60.9-16.5,88.8
						c-20.8,50.4-34.1,103.9-40,160.6c-4.7,46.5-4.7,98.6,0,156.2c-0.9,4.7-6.8,7.9-17.8,9.6c-10.2,1.2-18.2-1.5-24.1-8.3
						c-1.7-22.4-1.3-53.6,1.3-93.4c5.9-81.2,24.7-160.2,56.5-236.8c27.9-65.6,22.6-113-15.9-142.2c-10.6-8.9-22.9-13.8-36.8-14.6
						c-15.3-0.9-27.1,3.6-35.6,13.3c-7.2,7.6-11.4,16.2-12.6,26c-1.3,8.1-0.4,19.5,2.5,34.3c6,14.4,14.6,25.8,26,34.3
						c11.9,8.5,23.1,10.4,33.7,5.8c10.6-4.3,18.2-12.1,22.9-23.5c4.2-11,4-20.9-0.7-29.9c-6.8-14.8-18.4-22.8-34.9-24.1
						c-16.5-2.1-25.4,4-26.7,18.4c0,13.6,6.6,24.4,19.7,32.4c7.2,4.7,14.4,4.5,21.6-0.6c6.3-4.7,10.2-10.7,11.7-18.1
						c0,1.7,0.1,4.3,0.3,7.9c-0.8,8-5.9,14.4-15.2,19.1c-5.5,2.1-12.3,1.9-20.3-0.7c-8-2.9-14.2-7.2-18.4-12.6
						c-6.3-7.6-9.9-15.9-10.8-24.8c-1.3-10.5,1.7-19.9,8.9-27.9c8.1-6.8,17.8-10,29.2-9.6c11.9,0.4,22,4.8,30.5,13.3
						c16.5,16.9,23.9,35.8,22.2,56.5c-1.3,13.6-6.7,24.4-16.5,32.4c-10.2,8.9-23.1,12.5-38.7,10.8c-29.6-5.1-49.9-21.8-60.9-50.2
						c-5.1-13.6-7.4-25.4-6.9-35.6c0.4-12.6,4.8-26.7,13.3-41.9c5.1-8.1,13.3-14.4,24.7-19.1c11.4-5.1,23.1-7,34.9-5.7
						c18.7,1.7,35.6,8.2,50.8,19.7C615.3,242,628.2,268.7,629.9,304.2L629.9,304.2z"/>
				</g>
			</g>
		</g>
		<path id="path110" connector-curvature="0" fill="#158434" d="M589.3,398.2c5.1-5.5,7.6-4.2,7.6,3.8
			c0.4,7.6-1.7,13.8-6.4,18.4s-7.2,3.3-7.6-3.8C582.5,409.4,584.6,403.2,589.3,398.2L589.3,398.2z"/>
		<path id="path112" connector-curvature="0" fill="#158434" d="M609.6,374.7c4.7-3.3,6.4-0.8,5.1,7.6
			c-1.7,8.9-4,13.3-7,13.3c-2.9,0.4-4.2-2.3-3.8-8.3C603.9,381.9,605.8,377.7,609.6,374.7L609.6,374.7z"/>
		<path id="path114" connector-curvature="0" fill="#158434" d="M607.7,357.6c3.3-3.8,5.7-3.8,7,0c1.7,4.2,0.9,7.4-2.5,9.6
			c-2.6,1.7-4.3,1-5.1-1.9C606.2,361.8,606.4,359.2,607.7,357.6L607.7,357.6z"/>
		<path id="path116" connector-curvature="0" fill="#158434" d="M591.8,381.7c2.1-2.1,2.9-1.7,2.6,1.3
			c0,2.5-1.1,4.7-3.2,6.3C588.2,392.3,588.4,389.7,591.8,381.7L591.8,381.7z"/>
		<path id="path118" connector-curvature="0" fill="#158434" d="M592.5,424.2c3.4-2.1,5.3-0.9,5.7,3.9c0,5.1-1.5,8-4.5,8.9
			c-2.6,0.9-4-0.6-4.5-4.5C589.3,428.7,590.4,425.9,592.5,424.2z"/>
		<path id="path120" connector-curvature="0" fill="#158434" d="M603.2,407.1c1.7-1.7,2.4-1.3,1.9,1.2
			c-0.4,2.1-1.4,4.7-3.2,7.6c-1.2,3-1.9,2.5-1.9-1.2C600.5,411.3,601.6,408.8,603.2,407.1z"/>
		<path id="path122_1_" connector-curvature="0" fill="#158434" d="M575.3,424.8c2.6-1.7,2.4,1.9-0.6,10.8
			c-3,8.9-5.3,13.5-6.9,14c-1.7,0.4-1.3-3.2,1.2-10.8C571.1,431.2,573.2,426.6,575.3,424.8z"/>
		<path id="path124_1_" connector-curvature="0" fill="#158434" d="M581.7,431.8c3.8-2.5,5.3-1,4.4,4.5
			c-1.2,5.9-3.2,8.4-5.6,7.6c-2.6-0.4-3.4-2.4-2.6-5.8C578.3,434.8,579.6,432.7,581.7,431.8L581.7,431.8z"/>
		<path id="path126_1_" connector-curvature="0" fill="#158434" d="M587.4,451.5c4.2-3,5.3-1,3.2,5.7
			c-0.4,1.3-1.7,5.3-3.8,12c-0.9,3.4-1.9,4.2-3.2,2.5c-1.7-2.5-2.2-5.9-1.3-10.2C583.2,457,584.8,453.7,587.4,451.5z"/>
		<path id="path128_1_" connector-curvature="0" fill="#158434" d="M572.1,465.5c4.7-3,7-0.3,7,8.3c-0.4,3.8-1.7,7-3.9,9.5
			c-2.1,2.5-4,3.2-5.7,1.9c-2.1-1.7-2.9-4.7-2.5-8.9C567.9,471.6,569.6,468,572.1,465.5z"/>
		<path id="path130_1_" connector-curvature="0" fill="#158434" d="M572.1,449c1.3-2.2,2.5-2.5,3.8-1.3
			c1.3,1.3,1.1,3-0.7,5.1c-1.7,2.5-2.9,3-3.8,1.2C570.6,452.4,570.9,450.7,572.1,449L572.1,449z"/>
		<path id="path132_1_" connector-curvature="0" fill="#158434" d="M562.6,471.8c3.3-3,4-0.4,1.9,7.6
			c-2.1,8.4-4.2,12.5-6.3,12.1c-1.7,0-1.9-3-0.6-8.9C558.8,476.7,560.5,473.1,562.6,471.8z"/>
		<path id="path134_1_" connector-curvature="0" fill="#158434" d="M564.5,457.2c1.3-3,2.2-3.6,2.5-1.9
			c0.4,1.7,0,3.8-1.2,6.3c-1.3,3-2.1,3.7-2.5,1.9C562.8,461.5,563.3,459.4,564.5,457.2z"/>
		<path id="path136_1_" connector-curvature="0" fill="#158434" d="M575.3,490.2c3.4-2.1,4.5,0,3.2,6.4
			c-0.9,5.9-2.6,8.4-5.1,7.6c-1.7-0.4-2.3-2.5-1.9-6.4C571.9,494.1,573.2,491.5,575.3,490.2L575.3,490.2z"/>
		<g id="g138">
			<g id="g140">
				<g id="g146">
					
						<linearGradient id="path156_1_" gradientUnits="userSpaceOnUse" x1="9.9752" y1="985.3859" x2="9.9752" y2="969.9605" gradientTransform="matrix(23.2937 0 0 -23.2937 265.304 23293.2676)">
						<stop  offset="0" style="stop-color:#158466"/>
						<stop  offset="0.3216" style="stop-color:#196853"/>
						<stop  offset="1" style="stop-color:#242224"/>
					</linearGradient>
					<path id="path156" connector-curvature="0" fill="url(#path156_1_)" d="M544.9,715.1c-4.2,2.1-9.1,3.4-14.6,3.8
						c-11.4,1.2-21.1-1.3-29.2-7.6c4.2-37.2,5.3-79.5,3.2-127c-4.7-94.8-22.6-167.8-53.9-219c16.5,18.2,32.8,46.4,48.9,84.4
						C531.3,526,546.6,614.4,544.9,715.1L544.9,715.1z"/>
				</g>
			</g>
		</g>
		<g id="g58_1_">
			<g id="g60_1_">
				<g id="g66_1_">
					
						<linearGradient id="path82_1_" gradientUnits="userSpaceOnUse" x1="-30.1969" y1="984.6735" x2="-13.0406" y2="984.6735" gradientTransform="matrix(7.400711e-004 -23.2937 -23.2937 2.329373e-002 23559.043 -23.7596)">
						<stop  offset="0" style="stop-color:#242224"/>
						<stop  offset="6.670000e-002" style="stop-color:#262A2F"/>
						<stop  offset="0.3569" style="stop-color:#2F4758"/>
						<stop  offset="0.6157" style="stop-color:#365C76"/>
						<stop  offset="0.8392" style="stop-color:#3A6988"/>
						<stop  offset="1" style="stop-color:#3B6E8F"/>
					</linearGradient>
					<path id="path82" connector-curvature="0" fill="url(#path82_1_)" d="M556.9,712.9c3.8-116.4,26.9-222.6,69.2-318.7
						c20.8-47.9,41.3-84.2,61.6-109.2c-45.8,70.2-71.3,162.1-76.8,275.5c-3,57.2-1.3,107.1,5.1,149.8c-15.7,9.3-30.3,12.5-43.8,9.6
						L556.9,712.9L556.9,712.9z"/>
				</g>
			</g>
		</g>
	</g>
</g>
<g *ngIf="weed>=4" id="weed3">
	<g id="weed3_1_">
		
			<linearGradient id="path30_3_" gradientUnits="userSpaceOnUse" x1="-299.8315" y1="187.0373" x2="-269.2794" y2="187.0373" gradientTransform="matrix(-17.2547 4.5877 -4.5877 -17.2547 -3755.8301 4914.8877)">
			<stop  offset="0" style="stop-color:#255529"/>
			<stop  offset="1" style="stop-color:#2F5953"/>
		</linearGradient>
		<path id="path30" fill="url(#path30_3_)" d="M533.9,371.4c-1.2,1-2.2,8.6-3,22.8c-0.9,12.9-8.6,22.8-23.5,29.5
			c-13,6-26.5,6.7-40.6,2c-15.5-4.9-28.2-15.3-37.6-31.2c-13.7-22.8-28.6-39.5-45.2-50c-16.6-10.5-30.4-12.5-41.5-5.8
			c-10.7,6.5-18.7,5.9-24-1.8c-5.2-7.7-5.2-17.8-0.1-30.2c5.9-13.9,20.3-26.4,43.3-37.7c26.6-12.8,55.7-18.1,87.2-15.9
			c33.8,2.4,63.9,13.1,90,32c25.6,18.8,36.4,37.1,32.2,54.9c-2.4,10.7-8.1,18.1-16.8,22.5C544.3,365.8,537.5,368.8,533.9,371.4
			L533.9,371.4z"/>
		<path id="path32" fill="#2F6B54" d="M564.3,317.3c-7.3-14.6-21.7-27.8-43.2-39.8c-22.9-12.5-47.1-19.7-72.4-21.6
			c-30.8-2.2-59.6,3-86.2,15.7c-10.5,5.1-19.7,11.1-27.6,18.1c-6.9,6.2-11.7,12.1-14.1,18c-4.2,10.1-4.5,18.5-1,25.6
			c3.7,6.7,9.8,8.2,18.4,4.4l3-1.4c0.1,0,1-0.4,2.3-1.3c12.4-5.9,26.8-3.2,43.5,7.9c16.1,10.8,31.1,27.5,44.6,50.2
			c9.2,15,21,25,35.8,29.9c13.4,4.2,26.3,3.5,38.9-2l1.4-0.8c7.5-3.7,13-8,16.3-12.9c2.4-3.7,3.7-8.3,3.9-13.8
			c-0.1-6-0.1-10.4-0.3-13.2c0.3-4.9,1.9-8.6,4.6-11.1l4.6-3c3.3-1.5,8.5-3.7,15.4-6.2c8.3-4.1,13.5-11,15.5-20.7
			C569.8,332.7,568.6,325.3,564.3,317.3L564.3,317.3z M536,373.7c-1.6,0.8-2.3,3.4-2.3,7.3c0,2.2-0.1,6.7-0.1,13.2
			c-0.3,13.6-7.9,23.9-22.6,30.9l-0.3,0.4l-1.9,0.6c-13.8,6.3-28.1,7.2-42.8,2.4c-16.3-5.2-29.4-15.9-39.2-32.2
			c-12.8-21.5-27.1-37.5-43-48.2c-15.3-10.4-27.9-12.9-38-7.9l-1.7,1.1l-3.2,1.8c-5.3,2.8-10.7,3.5-15.7,2.1
			c-4.3-1.4-7.8-4.4-10.5-9c-4.2-8.7-3.9-19,1-30.6c2.7-6.7,7.9-13.3,15.4-20.1c7.6-6.9,17.1-13.1,28.5-18.5
			c27.2-13.5,56.9-19,89-16.4c26.8,2.1,51.7,9.4,74.8,22.2c22.5,12.4,37.7,26.6,45.9,42.4c4.6,9.4,6,18,4.3,26
			c-2.6,11.5-8.8,19.7-18.6,24.3c-7.5,2.7-12.8,4.8-15.7,6.2L536,373.7L536,373.7z"/>
		
			<linearGradient id="path94_3_" gradientUnits="userSpaceOnUse" x1="-202.3466" y1="260.5367" x2="-178.5358" y2="260.5367" gradientTransform="matrix(17.8466 -0.4838 0.4838 17.8466 3925.8662 -4602.4238)">
			<stop  offset="0" style="stop-color:#2E944A"/>
			<stop  offset="0.1189" style="stop-color:#30844E"/>
			<stop  offset="0.2538" style="stop-color:#307752"/>
			<stop  offset="0.4118" style="stop-color:#2F6E53"/>
			<stop  offset="0.6128" style="stop-color:#2F6954"/>
			<stop  offset="1" style="stop-color:#2F6854"/>
		</linearGradient>
		<path id="path94" fill="url(#path94_3_)" d="M494.2,197.8c-8.3,3.8-16.8,4.4-25.8,1.5c-9.6-3.1-17.1-9.7-22.6-19.8
			c-8.1-14.8-17.1-25.4-27.3-31.9c-10.1-6.9-18.7-8.2-25.8-3.8c-7.1,4.4-12.1,3.9-15.1-1.1c-3.2-5.1-3-11.7,0.4-19.8
			c4.2-8.9,13.7-16.9,28.5-24c17.1-8.4,35.4-11.9,55-10.7c21.3,1.5,39.9,8.4,55.8,20.5c15.5,11.9,22,23.7,19.1,35.4
			c-1.9,6.9-5.6,11.7-11.4,14.5c-6.2,2-10.5,3.9-12.8,5.6c-0.9,0.8-1.7,5.6-2.7,14.5C508.6,187.1,503.4,193.4,494.2,197.8
			L494.2,197.8z"/>
		<path id="path96_1_" fill="#2F6B54" d="M516,103.3c15.8,11,23.9,22.8,24.2,35.4l-0.9,6c-2,7.9-6.3,13.5-12.8,16.7
			c-6.8,2.2-10.9,4.1-12.5,5.3c-0.3,0-0.7,4.1-1.2,12.1c-1,10-6.9,17.3-17.6,22.1c-4.9,2.2-10.2,3.5-16,3.5
			c-16.1,0-28.4-7.9-36.6-23.6c-6-11.2-13-20.2-21-27c-7.3-6.3-14-9.6-19.9-9.6c-2.6,0-5,0.7-7.5,2.2c-3.6,2.1-6.9,3.1-9.8,3.1
			c-3.9,0-7.1-1.7-9.4-4.9c-2-2.8-3.2-6.3-3.2-10.7c0-4.6,0.9-8.7,2.7-12.5c4.5-9.4,13.5-17.6,27.3-24.7
			c15.4-8.2,32.5-12.4,51.5-12.5c3.6,0,6.3,0.1,8.2,0.4C482.3,86.3,500.4,92.5,516,103.3L516,103.3z M523.4,155.2
			c4.6-2.2,7.8-6.3,9.4-12.1l0.4-4.2c0.4-9.7-6.5-19.5-21-29.6c-15.1-10.7-32-16.4-50.7-17.6l-7.8-0.4c-17.1,0-33.3,4.1-48.4,12.2
			c-13,6.9-21,13.8-24.2,20.9c-1.6,3.8-2.3,7.2-2.3,9.8c0.3,5.6,2.2,8.6,5.8,8.7c1.6,0,3.6-0.8,6.2-2.2c2.9-2,6.3-3.1,10.5-3.1h0.4
			c8.1,0.3,16.3,3.9,24.6,11.1c8.1,7.2,15.4,16.7,22.2,28.9c7.3,13.2,17.6,19.8,30.8,19.8c5.2,0,9.6-0.8,13.2-2.7
			c5.2-2.2,8.8-4.9,10.9-8c1.3-2,2.2-4.8,2.7-8.4v-8.4c0.3-3.5,1.6-6.5,3.9-8.7C513.2,159.3,517.7,157.1,523.4,155.2L523.4,155.2z"
			/>
		<g id="g144">
			<g id="g150">
				
					<linearGradient id="path160_3_" gradientUnits="userSpaceOnUse" x1="-195.1661" y1="277.0577" x2="-177.9316" y2="281.2726" gradientTransform="matrix(17.8537 0 0 17.8537 4039.6375 -4483.5415)">
					<stop  offset="0" style="stop-color:#1C362A"/>
					<stop  offset="0.7294" style="stop-color:#2F7754"/>
					<stop  offset="1" style="stop-color:#2C8D53"/>
				</linearGradient>
				<path id="path160" fill="url(#path160_3_)" d="M804.6,439c-2.9,12.5-11.4,16.3-25.5,11.5c-14.7-5.1-29.1,2.5-43,22.8
					c-14.3,20-24.8,47.5-31.4,82.6c-4.6,24.2-14.4,42.4-29.4,54.5c-13.7,11-28.6,14.9-44.9,11.8c-18.4-3.7-30.4-13.8-36-30.5
					c-2-8.4-3.6-14.5-4.6-17.8c-1.9-5.9-4.2-9.4-7.1-10.8c-10.8-1.7-19.1-3.1-25.2-4.5c-10.7-2.7-19.4-10.5-26.1-23.6
					c-10.9-22.2-5.9-50.2,15.3-84c21.7-34.4,50.5-59.4,86.5-74.8c33.5-14.5,66.9-18.1,100.5-10.5c29.1,6.5,49.2,17.8,60.5,34.1
					C804,413.7,807.4,426.9,804.6,439L804.6,439z"/>
			</g>
		</g>
		<path id="path164" fill="none" stroke="#2F6B54" stroke-width="3.9167" d="M804.6,439c2.9-12.1-0.6-25.3-10.5-39.6
			c-11.2-16.3-31.4-27.7-60.5-34.1c-33.5-7.4-66.9-3.9-100.5,10.7c-36,15.3-64.8,40.2-86.5,74.8c-21,33.9-26.2,62-15.3,84.2
			c6.6,13.1,15.3,20.9,26.1,23.6c6,1.4,14.4,3,25.2,4.5c2.9,1.4,5.3,5.1,7.1,11c1,3.4,2.6,9.4,4.6,17.8c5.6,16.7,17.6,27,36,30.5
			c16.3,3,31.2-1,44.9-11.8c15.1-12.1,24.9-30.2,29.4-54.5c6.6-35.1,17.1-62.7,31.4-82.6c14.1-20.2,28.4-27.7,43-22.8
			C793.2,455.5,801.7,451.5,804.6,439L804.6,439z"/>
		<g id="g170">
			<g id="g176">
				
					<linearGradient id="path184_3_" gradientUnits="userSpaceOnUse" x1="-251.3553" y1="298.8254" x2="-246.6628" y2="298.8254" gradientTransform="matrix(9.9034 -14.856 14.856 9.9034 -1378.4998 -6342.543)">
					<stop  offset="0" style="stop-color:#2F6854"/>
					<stop  offset="6.250310e-002" style="stop-color:#2E6A53"/>
					<stop  offset="0.4167" style="stop-color:#2A764E"/>
					<stop  offset="0.7394" style="stop-color:#267D4B"/>
					<stop  offset="1" style="stop-color:#24804A"/>
				</linearGradient>
				<path id="path184" fill="url(#path184_3_)" d="M579.9,382c-12.2-2.8-19.7-9.4-22.6-19.8c-3-11.7-5.2-17.7-6.2-18.3
					c-7.1-1.3-12.7-2.5-16.8-3.8c-7.3-2.1-12.7-7.2-16.4-15.2c-6.2-13.9-1-30.8,15.5-50.6c16.8-20.2,38-34.4,63.5-42.2
					c23.6-7.6,46.8-8.4,69.4-2.2c19.4,5.1,32.5,12.8,39,23.2c6,9.4,7.6,17.7,4.8,24.7c-2.6,7.3-8.6,9.3-18,5.6
					c-9.6-3.5-19.9,0.6-30.8,12.2c-10.9,11.7-19.7,28-26.5,49c-4.8,14.8-12.5,25.3-23.3,31.9C601.6,382.8,591.1,384.5,579.9,382
					L579.9,382z"/>
			</g>
		</g>
		<path id="path186" fill="#2F6B54" d="M546,263.9c-14.5,13.5-23.5,26.8-26.9,40.3c-1.6,7.9-1.3,14.5,0.7,19.8
			c3.9,8.4,9.8,13.2,17.6,14.5l8.6,1.5l6.2,2c2.6,1.5,4.5,4.4,5.5,8.3c0.4,2.2,1.2,6,1.9,11.1c2.3,9.7,9.4,15.9,21,18.7h1.2
			c10.1,2,19.7,0.1,28.8-5.6c10.2-6.3,17.4-16.4,21.9-30.5c6.8-20.5,15.1-36.7,25.3-48.3c10.4-11.9,20.9-17,31.7-15.2l7.1,2.2
			c6,1,10.1-1.4,12.1-7.3c1.6-6.9-0.1-13.9-5-21.4c-3-4.8-8.3-9.4-16-13.8c-8.3-4.6-17.7-8-28.1-10.3c-20.3-3.8-40.9-2.5-62,3.8
			C578.6,239.8,561.3,249.7,546,263.9L546,263.9z M596.3,229.8c22.2-6.9,43.5-8.2,63.9-3.8c11.2,2.2,21,5.9,29.7,10.7
			c8.1,4.6,14,9.7,17.6,15.2c5.8,8.9,7.5,17.1,5.5,24.7c-0.7,3.5-2.7,6.5-5.8,8.7c-2.9,1.8-6.8,2.2-11.7,1.5l-6.6-1.8
			c-8.3-2-17.3,2.5-26.9,13.8c-10.4,11.4-18.6,26.8-24.6,46.4c-4.8,15-12.7,26-23.8,33.2c-10.4,6.6-21.3,8.7-32.7,6.5l-1.6-0.4
			c-13.5-3.1-21.6-10.3-24.2-21.6c-1-5.3-1.7-9-1.9-11.1c-0.9-3.2-1.9-5.2-3.2-5.6l-5-1.5l-8.6-1.1c-9.9-2.1-16.8-7.9-20.7-17.6
			c-2.9-6.9-3.2-14.2-0.7-22.1c3.6-14.5,13-28.7,28.1-42.6C558.4,246.5,576.3,236.1,596.3,229.8L596.3,229.8z"/>
		
			<linearGradient id="path248_3_" gradientUnits="userSpaceOnUse" x1="-309.038" y1="269.9632" x2="-271.2015" y2="269.9632" gradientTransform="matrix(-5.3704 -17.0271 17.0271 -5.3704 -5684.1909 -3347.9004)">
			<stop  offset="0" style="stop-color:#2F6854"/>
			<stop  offset="6.430382e-002" style="stop-color:#316E56"/>
			<stop  offset="0.2125" style="stop-color:#347757"/>
			<stop  offset="0.421" style="stop-color:#357C58"/>
			<stop  offset="1" style="stop-color:#367D58"/>
		</linearGradient>
		<path id="path248" fill="url(#path248_3_)" d="M572.2,84.4c3.9,1.4,9.8,6.2,14,8c4.2,4.4,6,11.5,5.5,21.6c-0.6,5.3-2.2,10-5,13.8
			c-3.2,3.8-7.3,5.6-12.5,5.3c-5.2-0.3-7.1-2.1-5.8-5.6c0.3-0.3,2-3.1,5.5-8.4c2.6-4.1,2.9-7.9,0.9-11.4c-2-3.5-5.3-5.2-9.8-4.9
			c-3.9,0-7.6,2.2-11.4,6.9c-5.5,6.9-9.9,19.3-13.2,37.2l-2.7,17.1c-2.2,12.5-3.5,25.6-3.9,38.9c-1.4,4.5-2.2,8.2-2.3,10.8
			c0,2.8,0.7,6.3,2.3,10.7c0-0.6,0.1-1,0.3-1.5l3.3,33.9c-1-3.9-1.7-7.7-2.3-11.4c2.3,27.7,8.5,55.9,18.3,84.9
			c5.8,16.4,15,41.2,27.6,73.8c10.2,31.9,16.3,67.2,18.4,105.8c0,0.3,3.6,38.8,10.9,115.6c3.2,35,2,59.9-3.5,74.6
			c-2,5.3-8.6,9.8-19.9,13.6c-13.2,3.5-22,6-26.5,7.3c-6.2-1.3-12.1-2.5-17.6-3.8c-10.7-2.2-18.4-1.4-23.3,2.7
			c2-4.8,7.1-15.7,15.1-32.7c5.8-11.9,10.2-23.5,13.7-34.7c6-22.3,10.2-49,12.8-80.4c5.2-62.1-0.7-115.4-18-159.5
			c-16.4-42.2-27.3-85.2-32.7-129c-7.1-55.1-6.6-98.9,1.2-131.7c1.7-8.6,4.8-18,8.6-28.1l8.6-24c1.9-6,5.6-9,5.9-11.2
			C534.2,84.1,572.5,83.7,572.2,84.4z"/>
		<path id="path250" fill="#2F6B54" d="M531.9,101.1l-8.6,24.5c-2.9,7.2-5.8,16.2-8.6,27.4c-4.2,18.8-6.2,38.8-6.2,60.1
			c0,18.8,1.7,42.2,5,70.4c5.8,43.1,16.7,85.9,32.8,128.3c13.2,33.7,19.9,73.6,19.9,119.9c0,28.1-2.3,56.8-7.1,86
			c-2.6,14.8-5,26.7-7.3,35.8c-1.3,4.6-4.9,13.1-10.9,25.4c-4.5,11.4-5.8,20.1-3.9,25.9l2.7,3.8c5.8,6,16,8.7,30.8,8
			c14.8-1,23.5-4.9,26.1-11.8c2-5.1,11.9-26.8,14.8-38.1c1.3,1.1,1.9,43.1-12.1,54.1c-2.3,4.9-22.5,9.7-37.9,11.8
			c-9.6,2.5-16.3,1.5-21.9,0c-12.7-3.1-13.5-1.5-12.7-3.1l-11.8-9.4c-10.2-19.7,3.2-34.6,7.3-43.8c16-16.2,29.4-33.4,34.4-66.6
			c1.7-13.2,2.7-39.2,2.7-78c0-45.1-6.5-84.3-19.4-117.2c-16.4-42.6-27.3-86-33.1-130.1c-3.5-28.1-5-51.9-5-71.1
			c0-23.6,2-44.1,6.2-61.7c2.9-11.9,5.8-21.5,8.9-28.5l8.2-24c2.2-6,15.1-20.7,28.1-20.5c7.6,0.1,17,1.1,23.5,3.8
			c7.1,2.8,10.8,7.2,11.9,8.4c2.2,2,3.6,3.8,4.3,5.3c1.6,3.1,2.3,7.2,2.3,12.2l-0.4,6.5c-0.3,5.6-2,10.5-5,14.8
			c-3.9,4.8-8.6,7.3-14.4,7.3h-1.2c-2.6,0-4.8-0.7-6.6-2c-2.2-1.3-3-3.1-2.7-5.3c0.3-2.5,1.2-5.1,2.7-7.6c0.9-1.3,1.9-3,3.5-4.9
			c0.6-0.4,1-1.8,1.6-4.2c-0.4-4.4-2.9-6.5-7.1-6.5h-0.3c-3.6,0-6.6,2-8.9,5.8c-4.9,6-9.1,17.8-12.5,35.4l-5.5,35
			c0.3-0.4-3.2,45.1-1.2,65.5c0.9,9.8,4.2,26.6,10.2,49.9c3.3,13.5,6.5,24,9.4,31.6c5.8,16.3,14.8,40.9,27.3,73.9
			c10.4,32.2,16.7,67.7,18.7,106.5l0.7,33.2c0,9.8-0.3,19.5-0.7,29.1c-3.7-26-6-46.7-7.1-61.8c-2-38.4-8.2-73.2-18.3-104.7
			c-12.5-32.5-21.6-57.1-27.2-73.9c-10.2-30.5-16.4-60.3-18.7-89.8c-1.3-16-1.9-26.1-1.6-30.5c0.3-15,1.7-30.9,4.3-47.9l3.2-17.1
			c3.6-18.3,8.2-31.2,13.7-38.8c4.2-4.8,8.8-7.6,13.7-8.4h1.2c3.9,0,7.2,1.4,9.8,4.2c2.6,2.5,3.9,5.8,3.9,9.6c0,3.1-0.9,5.9-2.7,8.4
			l-5,8l2.7,0.7h1.2c3.6,0,6.6-1.7,8.9-4.9c2-2.8,3.5-6.5,3.9-11.1l0.4-5.6c-0.3-3.8-0.7-6.6-1.6-8.4c-1-2.5-3-4.8-5.8-6.9
			c-3.2-3.1-14-9.1-22.3-8.3c-4.9,0.6-4.5-0.1-9.1,1C541.9,87.2,536.3,94.2,531.9,101.1z"/>
	</g>
</g>
<g *ngIf="weed>=4" id="weed4">
	<g id="weed4_1_">
		
			<linearGradient id="path30_4_" gradientUnits="userSpaceOnUse" x1="-37.8502" y1="-25.8298" x2="3.7595" y2="-25.8298" gradientTransform="matrix(-18.3232 1.8451 -1.8451 -18.3232 -159.8616 -133.9401)">
			<stop  offset="0" style="stop-color:#1B4721"/>
			<stop  offset="1" style="stop-color:#2D5852"/>
		</linearGradient>
		<path id="path30_1_" connector-curvature="0" fill="url(#path30_4_)" d="M532.3,347.2c-1.8,1.2-4.9,11.7-9.4,31.6
			c-4.1,18.1-17.3,30.3-39.2,36.6c-19.3,5.6-38.2,3.6-56.7-6.3c-20.6-10.4-35.6-28-45-52.7c-13.7-35.4-30.8-62.5-51.3-81.2
			c-20.6-18.8-39.4-24.6-56.2-17.5c-16.3,6.9-27.4,4.1-33-8.1c-5.4-12.2-3.1-26.5,6.6-42.8c11.4-18.5,34.3-33,68.7-43.7
			c39.9-12.2,81.4-13.2,124.6-3.1c46.5,11,85.5,32.8,117.3,65.6c31.3,32.5,42,60.8,32.1,85.2c-5.9,14.7-15.5,23.9-28.5,28.2
			C547.9,341.6,538,344.2,532.3,347.2L532.3,347.2z"/>
		<path id="path32_1_" connector-curvature="0" fill="#2E6A53" d="M586.8,277.2c-6.9-22.2-23.7-44.3-50.9-66.1
			c-28.8-22.9-60.6-38.6-95.4-46.8c-42.4-10.1-83.4-9.1-123.3,3.1c-15.8,4.8-29.8,11.4-42.4,19.6c-11,7.1-19,14.7-23.7,22.2
			c-8.1,13.3-10.4,25.4-7.1,36.3c3.6,10.4,11.7,13.8,24.6,10.2l4.4-1.3c0.3,0,1.5-0.5,3.5-1.3c18.5-5.6,37.9,1.3,58.5,20.9
			c19.9,19.1,36.8,46.1,50.4,81.2c9.2,23.6,23.6,40.4,42.8,50.4c17.6,8.9,35.8,10.9,54.4,5.8l2.3-1c11.4-3.6,19.8-8.4,25.4-14.7
			c4.1-4.8,7.1-11,8.6-18.8c1.2-8.6,2.1-14.8,2.6-18.8c1.5-6.9,4.4-11.7,8.9-14.7l7.1-3.1c5.1-1.5,12.7-3.3,22.7-5.4
			c12.5-3.8,21.3-12.5,26.4-25.9C590.9,300.1,590.9,289.4,586.8,277.2L586.8,277.2z M534.6,350.8c-2.3,1-4,4.1-4.9,9.9
			c-0.7,3.3-1.6,9.6-3.1,18.8c-3.6,19.3-16.3,32.3-38.4,38.7l-0.5,0.5l-2.6,0.5c-20.6,5.9-40.5,4-59.8-6.3
			c-21.4-11-37.1-29.2-46.8-54.6c-12.7-33.3-29-59.3-48.6-78.1c-18.8-18.1-35.8-24.7-50.9-19.6l-2.6,1.3l-4.9,1.8
			c-8.1,2.6-15.5,2.6-22.2-0.5c-5.6-3-9.9-8.1-12.5-15.2c-4-13.3-1-27.9,8.4-43.3c5.4-8.9,14-17.3,25.9-25.1
			c12.2-8.1,26.9-14.7,43.8-20.1c40.7-13.2,83.2-14.3,127.2-3.6c36.6,8.9,69.5,25.1,98.7,48.3c28.3,22.6,46.3,46.1,54.1,70.5
			c4.1,14.3,4.1,26.9,0,37.9c-6.3,15.8-16.6,25.9-31.1,30.3c-11,2.1-18.8,3.8-23.2,5.4L534.6,350.8L534.6,350.8z"/>
		
			<linearGradient id="path94_4_" gradientUnits="userSpaceOnUse" x1="30.7001" y1="11.0841" x2="57.1304" y2="11.0841" gradientTransform="matrix(18.4081 -0.4991 0.4991 18.4081 -159.7809 -133.9146)">
			<stop  offset="0" style="stop-color:#1C5F30"/>
			<stop  offset="1" style="stop-color:#2E6753"/>
		</linearGradient>
		<path id="path94_1_" connector-curvature="0" fill="url(#path94_4_)" d="M472.1,116.5c-9.6,4.4-19.3,5.1-29.5,1.8
			c-11-3.6-19.6-11.4-25.9-23.2c-9.2-17.3-19.6-29.8-31.3-37.4c-11.5-8.1-21.4-9.6-29.5-4.4c-8.1,5.1-13.8,4.6-17.3-1.3
			c-3.6-5.9-3.5-13.7,0.5-23.2c4.8-10.4,15.7-19.8,32.6-28.2c19.6-9.9,40.5-14,63-12.5c24.4,1.8,45.7,9.9,63.9,24.1
			c17.8,14,25.2,27.9,21.9,41.5c-2.1,8.1-6.4,13.7-13,17c-7.1,2.3-12,4.6-14.7,6.6c-1,1-2,6.6-3.1,17
			C488.6,104,482.7,111.4,472.1,116.5L472.1,116.5z"/>
		<path id="path96_2_" connector-curvature="0" fill="#2E6A53" d="M497,5.7c18.1,12.9,27.4,26.7,27.7,41.5l-1,7.1
			c-2.3,9.2-7.3,15.8-14.7,19.6c-7.7,2.6-12.5,4.8-14.3,6.3c-0.3,0-0.8,4.8-1.3,14.2c-1.2,11.7-7.9,20.3-20.1,25.9
			c-5.6,2.6-11.7,4.1-18.3,4.1c-18.5,0-32.5-9.2-41.9-27.7C406.2,83.5,398.3,73,389,65.1c-8.4-7.4-16-11.2-22.7-11.2
			c-3,0-5.8,0.8-8.6,2.6c-4.1,2.5-7.9,3.6-11.2,3.6c-4.4,0-8.1-2-10.7-5.8c-2.3-3.3-3.6-7.4-3.6-12.5c0-5.4,1-10.2,3.1-14.7
			c5.1-11,15.5-20.6,31.3-29c17.6-9.6,37.2-14.5,59-14.7c4.1,0,7.3,0.2,9.4,0.5C458.4-14.4,479.2-7.1,497,5.7L497,5.7z M505.6,66.4
			c5.3-2.6,8.9-7.4,10.7-14.2l0.5-4.9c0.5-11.4-7.4-22.9-24.1-34.8C475.4,0,456.1-6.8,434.7-8.1l-8.9-0.5
			c-19.6,0-38.1,4.8-55.4,14.3c-14.8,8.1-24.1,16.2-27.7,24.6c-1.8,4.4-2.6,8.4-2.6,11.5c0.3,6.6,2.5,10.1,6.6,10.2
			c1.8,0,4.1-1,7.1-2.6c3.3-2.3,7.3-3.6,12-3.6h0.5c9.2,0.3,18.6,4.6,28.2,13c9.2,8.4,17.6,19.6,25.4,33.9
			c8.4,15.5,20.1,23.2,35.3,23.2c5.9,0,11-1,15.2-3.1c5.9-2.6,10.1-5.8,12.5-9.4c1.5-2.3,2.5-5.6,3.1-9.9v-9.9
			c0.3-4.1,1.8-7.6,4.4-10.2C493.9,71.2,499,68.9,505.6,66.4L505.6,66.4z"/>
		<g id="g144_1_">
			<g id="g150_1_">
				
					<linearGradient id="path160_4_" gradientUnits="userSpaceOnUse" x1="36.3378" y1="30.0303" x2="60.3707" y2="35.9077" gradientTransform="matrix(18.4154 0 0 18.4154 -159.7751 -133.8526)">
					<stop  offset="0" style="stop-color:#1B3529"/>
					<stop  offset="0.7294" style="stop-color:#2D7653"/>
					<stop  offset="1" style="stop-color:#2C8D53"/>
				</linearGradient>
				<path id="path160_1_" connector-curvature="0" fill="url(#path160_4_)" d="M868.5,383.3c-4.1,18.5-16.3,24.1-36.6,17
					c-21.1-7.4-41.9,3.6-62,33.5c-20.6,29.5-35.6,70-45.2,121.8c-6.6,35.8-20.6,62.5-42.4,80.3c-19.6,16.2-41.2,21.9-64.8,17.5
					c-26.5-5.4-43.8-20.4-51.7-45c-3-12.5-5.3-21.3-6.8-26.4c-2.6-8.6-6.1-14-10.2-16c-15.5-2.5-27.5-4.6-36.3-6.8
					c-15.5-4-28-15.5-37.4-34.8c-15.8-32.8-8.4-74,21.9-124.1c31.3-50.9,72.7-87.7,124.6-110.3c48.3-21.4,96.4-26.7,144.7-15.7
					c41.9,9.6,71,26.4,87,50.4C867.5,346.1,872.6,365.5,868.5,383.3L868.5,383.3z"/>
			</g>
		</g>
		<path id="path164_1_" connector-curvature="0" fill="none" stroke="#2E6A53" stroke-width="0.3878" d="M868.5,383.3
			c4.1-17.8-1-37.4-15.2-58.5c-16.2-24.1-45.2-40.9-87-50.4c-48.3-11-96.4-5.8-144.7,15.7c-51.7,22.6-93.3,59.3-124.6,110.3
			c-30.3,49.9-37.7,91.3-21.9,124.1c9.6,19.3,22.1,31,37.4,34.8c8.6,2.1,20.8,4.3,36.3,6.8c4.1,2.1,7.6,7.4,10.2,16.2
			c1.5,4.9,3.8,13.8,6.8,26.4c8.1,24.7,25.2,39.7,51.7,45c23.6,4.4,45-1.3,64.8-17.3c21.8-17.8,35.8-44.7,42.4-80.4
			c9.6-51.7,24.6-92.3,45.2-121.8c20.3-29.8,40.9-40.9,62-33.5C852,407.5,864.2,401.8,868.5,383.3L868.5,383.3z"/>
		<path id="path166" connector-curvature="0" fill="#2E7F51" d="M811.3,334.2c-15.5-1.8-29.7,4-42.4,17
			c-3.3,2.1-7.4,6.6-12.5,13.3c-9.6,13.7-17.8,32.8-25.1,57.2c-5.6,19.6-12.9,49.4-21.4,89.3c-8.4,32.5-18.3,53.9-30,64.3
			c-14,12.9-26.7,18.3-38.4,16.5s-21.3-10.7-29-26.9c-5.9-12.9-9.1-24.2-9.4-34.3c-0.3-10.4,2.5-22.1,8.1-34.8
			c4-9.2,9.9-20.6,17.8-34.3c11-18.8,17.3-30,19.1-33.5l23.7-40.2c5.6-8.4,11.7-19,18.3-31.6c-12.2,2.1-25.2,12.5-38.9,31.3
			c-7.7,10.1-17.6,24.4-29.8,42.8c0.5-9.2,2.5-17.8,5.8-25.9s8.9-18.3,17-30.8c-1.8-0.3-3.8,0.3-5.8,1.8c-2.5,1.8-6.8,5.9-13,12.5
			l-13,14.7c-11.2,13.3-22.4,29.5-33.5,48.3c-6.6,10.7-14.8,8.6-25.1-6.8c-9.9-14.5-14.3-28-13.3-40.2c3-32.1,27.9-60.3,74.7-84.4
			c25.1-12.9,47.1-21.1,66.4-25.1c13.7-3,30.8-4.3,51.4-4c16.2,0,28.8,1.3,38.4,4c5.6,1.5,15,5.4,28.2,12c8.6,4.1,17.6,12,27.2,23.7
			c8.6,10.1,13.5,18,14.7,23.7c1,3-2.5,1-9.9-5.8C822.3,339.5,815.4,334.9,811.3,334.2L811.3,334.2z"/>
		<g id="g170_1_">
			<g id="g176_1_">
				
					<linearGradient id="path184_4_" gradientUnits="userSpaceOnUse" x1="2.2608" y1="45.4459" x2="7.5481" y2="45.4459" gradientTransform="matrix(10.215 -15.3234 15.3234 10.215 -159.7548 -133.8422)">
					<stop  offset="0" style="stop-color:#1C4C30"/>
					<stop  offset="1" style="stop-color:#2E6753"/>
				</linearGradient>
				<path id="path184_1_" connector-curvature="0" fill="url(#path184_4_)" d="M570.2,332.5c-14-3.3-22.6-11-25.9-23.2
					c-3.5-13.7-5.9-20.8-7.1-21.4c-8.1-1.5-14.5-3-19.3-4.4c-8.4-2.5-14.5-8.4-18.8-17.8c-7.1-16.3-1.2-36.1,17.8-59.3
					c19.3-23.7,43.5-40.4,72.7-49.4c27-8.9,53.6-9.9,79.4-2.6c22.2,5.9,37.2,15,44.7,27.2c6.9,11,8.7,20.8,5.4,29
					c-3,8.6-9.9,10.9-20.6,6.6c-11-4.1-22.7,0.7-35.3,14.3c-12.5,13.7-22.6,32.8-30.3,57.5c-5.4,17.3-14.3,29.7-26.7,37.4
					C595.1,333.4,583,335.5,570.2,332.5L570.2,332.5z"/>
			</g>
		</g>
		<path id="path186_1_" connector-curvature="0" fill="#2E6A53" d="M531.4,194.1c-16.6,15.8-26.9,31.5-30.8,47.3
			c-1.8,9.2-1.5,17,0.8,23.2c4.4,9.9,11.2,15.5,20.1,17l9.9,1.8l7.1,2.3c3,1.8,5.1,5.1,6.3,9.7c0.5,2.6,1.3,7.1,2.1,13
			c2.6,11.4,10.7,18.6,24.1,21.9h1.3c11.5,2.3,22.6,0.2,33-6.6c11.7-7.4,19.9-19.3,25.1-35.8c7.7-24.1,17.3-43,29-56.7
			c11.9-14,23.9-19.9,36.3-17.8l8.1,2.6c6.9,1.2,11.5-1.6,13.8-8.6c1.8-8.1-0.2-16.3-5.8-25.1c-3.5-5.6-9.6-11-18.3-16.2
			c-9.6-5.4-20.3-9.4-32.1-12c-23.2-4.4-46.8-3-71,4.4C568.7,165.8,548.9,177.5,531.4,194.1L531.4,194.1z M589,153.9
			c25.4-8.1,49.8-9.6,73.2-4.4c12.9,2.6,24.1,6.9,33.9,12.5c9.2,5.4,16,11.4,20.1,17.8c6.6,10.4,8.6,20.1,6.3,29
			c-0.8,4.1-3.1,7.6-6.6,10.2c-3.3,2.1-7.7,2.6-13.3,1.8l-7.6-2.1c-9.6-2.3-19.8,3-30.8,16.2c-11.9,13.3-21.3,31.5-28.2,54.4
			c-5.4,17.6-14.5,30.5-27.2,38.9c-11.9,7.7-24.4,10.2-37.4,7.6l-1.8-0.5c-15.5-3.6-24.7-12-27.7-25.4c-1.2-6.3-2-10.5-2.1-13
			c-1-3.8-2.1-6.1-3.6-6.6l-5.8-1.8l-9.9-1.3c-11.4-2.5-19.3-9.2-23.7-20.6c-3.3-8.1-3.6-16.6-0.8-25.9c4.1-17,14.8-33.6,32.1-49.9
			C545.6,173.5,566,161.3,589,153.9L589,153.9z"/>
		
			<linearGradient id="path248_4_" gradientUnits="userSpaceOnUse" x1="-39.4331" y1="28.6026" x2="7.7399" y2="28.6026" gradientTransform="matrix(-5.5393 -17.5627 17.5627 -5.5393 -159.7667 -133.8618)">
			<stop  offset="0" style="stop-color:#1C4530"/>
			<stop  offset="1" style="stop-color:#2E6753"/>
		</linearGradient>
		<path id="path248_1_" connector-curvature="0" fill="url(#path248_4_)" d="M550.6-67.4c5.6-1.5,10.9-2,15.7-1.3
			c6.9,1.2,11.2,4.4,13.3,9.9c2.1,5.6-1.2,8.4-9.9,8.1c-5.4-0.5-10.2,0.5-14.7,3.1c-1.8,0.8-3.5,2.1-4.9,4c-1.8,2.1-2.5,4-2.1,5.4
			c0.7,1.8,3.1,2.6,7.6,2.6c5.6-0.3,8.7-0.3,9.4,0c3.6,1.2,6.9,3.5,9.9,6.8c3.3,4.1,3.8,7.6,1.8,10.2c-0.3,0.3-1.3,1.2-3.1,2.6
			c-1.5,0.8-2.3,1.8-2.6,2.6c-0.3,2.1,2,4.1,6.8,6.3c4.8,5.1,6.9,13.5,6.3,25.4c-0.7,6.3-2.5,11.7-5.8,16.2
			c-3.6,4.4-8.4,6.6-14.3,6.3c-5.9-0.3-8.1-2.5-6.6-6.6c0.3-0.3,2.3-3.6,6.3-9.9c3-4.8,3.3-9.2,1-13.3s-6.1-6.1-11.2-5.8
			c-4.4,0-8.7,2.6-13,8.1c-6.3,8.1-11.4,22.6-15.2,43.7l-3.1,20.1c-2.5,14.7-4,30-4.4,45.7c-1.6,5.3-2.5,9.6-2.6,12.7
			c0,3.3,0.8,7.4,2.6,12.5c0-0.7,0.2-1.2,0.3-1.8l3.8,39.7c-1.2-4.6-2-9.1-2.6-13.3c2.6,32.5,9.7,65.6,20.9,99.5
			c6.6,19.3,17.1,48.3,31.6,86.5c11.7,37.4,18.6,78.8,21.1,124.1c0,0.3,4.1,45.5,12.5,135.6c3.6,41,2.3,70.2-4,87.5
			c-2.3,6.3-9.9,11.5-22.7,16c-15.2,4.1-25.2,7.1-30.3,8.6c-7.1-1.5-13.8-3-20.1-4.4c-12.2-2.6-21.1-1.6-26.7,3.1
			c2.3-5.6,8.1-18.5,17.3-38.4c6.6-14,11.7-27.5,15.7-40.7c6.9-26.2,11.7-57.5,14.7-94.3c5.9-72.8-0.8-135.3-20.6-187.1
			c-18.8-49.4-31.3-99.9-37.4-151.3c-8.1-64.6-7.6-116,1.3-154.4c2-10.1,5.4-21.1,9.9-33L512,1.6c2.1-7.1,3.3-12,3.6-14.7
			c0-5.3-2-9.9-6.3-13.3c-9.9-8.9-15.5-18.8-17-29.5c-1.2-10.1,0.2-17.5,4-21.9c2.6-2.5,5.8-3.5,9.4-3.1c3.3,0.3,6.3,1.6,8.9,4
			c3,2.6,4.8,6.6,5.4,11.7c0,2-0.2,6.6-0.5,13.8c-0.3,8.6,2.3,16.3,7.6,23.2c1.5-16.3,4.9-26.9,10.2-31.6
			C540.3-63.1,545-65.6,550.6-67.4L550.6-67.4z M525.5,101.3c0.8-1.8,2.5-8.9,4.4-21.4c1.8-9.6,4.6-15.8,8.6-18.8
			c6.3-4.8,10.9-3.5,13.8,3.6c2.6,6.6,2.5,12.7-0.5,18.3c-2.3,4.4-6.4,10.1-12,16.5c-6.3,7.1-10.4,12.5-12.5,16.2
			c-5.6,8.9-8.9,19-10.1,30.3l-0.2-1.8c-0.2-7.3-0.2-14.5,0-21.6C518.9,116.7,521.7,109.6,525.5,101.3L525.5,101.3z"/>
		<path id="path250_1_" connector-curvature="0" fill="#2E6A53" d="M576.6-56.4c1-0.8,0-2.3-2.6-4.4c-3-2.3-5.6-3.6-8.1-4
			l-3.6-0.5c-4.9,0-8.7,0.3-11.2,0.8c-4.1,1.2-7.9,3.6-11.2,7.6c-4.9,5.9-8.1,15.7-9.4,29l-0.8,9.9l-5.8-7.6
			c-5.6-6.9-8.6-14.8-8.6-24.1l0.5-11.5c0-5.9-1.3-10.1-4-12.5c-2-2.1-4.4-3.1-7.1-3.1c-1.8,0-3.6,0.7-5.8,2.3
			c-2,2-3.1,5.8-3.1,11.2l0.5,6.6c0.7,5.9,2.3,11,4.9,15.2c2,3.6,5.6,7.6,10.7,12c4.8,3.6,7.1,8.7,7.1,15.7c0,4.1-1.2,9.9-3.6,17
			l-9.9,28.7c-3.3,8.4-6.6,19-9.9,32.1c-4.8,22.1-7.1,45.5-7.1,70.5c0,22.1,2,49.4,5.8,82.6c6.6,50.6,19.1,100.7,37.6,150.5
			c15.2,39.6,22.7,86.4,22.7,140.6c0,33-2.6,66.6-8.1,100.9c-3,17.3-5.8,31.3-8.4,42c-1.5,5.4-5.6,15.3-12.5,29.8
			c-5.1,13.3-6.6,23.6-4.4,30.3l3.1,4.4c6.6,7.1,18.3,10.2,35.3,9.4c17-1.2,26.9-5.8,29.8-13.8c2.3-5.9,13.7-31.5,17-44.7
			c1.5,1.3,2.1,50.6-13.8,63.4c-2.6,5.8-25.7,11.4-43.3,13.8c-11,3-18.6,1.8-25.1,0c-14.5-3.6-15.5-1.8-14.5-3.6l-13.5-11
			c-11.7-23.1,3.6-40.5,8.4-51.4c18.3-19,33.6-39.2,39.4-78.1c2-15.5,3.1-46,3.1-91.5c0-52.9-7.4-98.9-22.2-137.4
			c-18.8-49.9-31.3-100.9-37.9-152.6c-4-33-5.8-60.8-5.8-83.4c0-27.7,2.3-51.7,7.1-72.3c3.3-14,6.6-25.2,10.2-33.5l9.4-28.2
			c2.5-7.1,3.6-11.9,3.6-14.3c0-3.6-1.5-6.6-4.4-9.4c-11-9.6-17.1-20.3-18.3-32.1l-0.5-8.1c0-7.7,1.8-13.5,5.3-17.5
			c3.3-2.6,7.1-4,11.2-4c4.8,0,8.7,1.6,12,4.9c4.8,4.4,7.1,10.7,7.1,18.8l-0.5,11.5c0,3.6,0.5,6.8,1.3,9.4
			c1.5-10.1,4.8-17.6,9.9-22.7C542-69.7,551.2-73,562.3-73l4.9,0.5c4.8,1,8.6,2.8,11.5,5.8c3.6,3,5.6,6.6,5.8,10.7
			c0,3.3-1.3,5.6-4,7.1c-2,1.5-5.1,2.1-9.4,2.1h-1.8c-5.1,0-9.2,1-12.5,2.6c-2.1,1.2-3.6,3.1-4.4,5.8c7.7-1,14.3,0,19.6,2.6
			c5.9,2.6,9.2,7.1,9.9,13c0.3,6.6-1.8,9.1-6.3,7.6c0.8,1.2,2.5,3.1,4.9,5.8c2.5,2.3,4.1,4.4,4.9,6.3c1.8,3.6,2.6,8.4,2.6,14.3
			l-0.5,7.6c-0.3,6.6-2.3,12.4-5.8,17.3c-4.4,5.6-9.9,8.6-16.5,8.6h-1.3c-3,0-5.4-0.8-7.6-2.3c-2.5-1.5-3.5-3.6-3.1-6.3
			c0.3-3,1.3-5.9,3.1-8.9c1-1.5,2.1-3.5,4-5.8c0.7-0.5,1.2-2.1,1.8-4.9c-0.5-5.1-3.3-7.6-8.1-7.6h-0.5c-4.1,0-7.6,2.3-10.2,6.8
			c-5.6,7.1-10.4,20.9-14.3,41.5l-6.3,41c0.3-0.5,1.6-7.3,4-20.1c1.8-9.6-7.7,73-5.4,96.9c1,11.5,4.8,31.1,11.7,58.5
			c3.8,15.8,7.4,28.2,10.7,37.1c6.6,19.1,17,48,31.3,86.7c11.9,37.7,19.1,79.4,21.4,124.9l0.8,38.9c0,11.5-0.3,22.9-0.8,34.1
			c-4.3-30.5-6.9-54.7-8.1-72.5c-2.3-45-9.4-85.9-20.9-122.8c-14.3-38.1-24.7-66.9-31.1-86.7c-11.7-35.8-18.8-70.7-21.4-105.3
			c-1.5-18.8-2.1-30.7-1.8-35.8c0.3-17.6,2-36.3,4.9-56.2l3.6-20.1c4.1-21.4,9.4-36.6,15.7-45.5c4.8-5.6,10.1-8.9,15.7-9.9h1.3
			c4.4,0,8.2,1.6,11.2,4.9c3,3,4.4,6.8,4.4,11.2c0,3.6-1,6.9-3.1,9.9l-5.8,9.4l3.1,0.8h1.3c4.1,0,7.6-2,10.2-5.8
			c2.3-3.3,4-7.6,4.4-13l0.5-6.6c-0.3-4.4-0.8-7.7-1.8-9.9c-1.2-3-3.5-5.6-6.6-8.1c-8.9-4.1-13.3-7.6-13.3-10.2c0-1.8,1.3-2.3,4-1.8
			c1.2,0.3,3,0.8,5.4,1.3c2.6,0.3,4.6-0.3,5.8-1.8c0.8-1.8,0.5-3.8-1-6.3c-1.8-3.6-5.1-5.8-10.2-6.8c-6.3-1.8-11-1.6-14.3,0.5
			c-1,0.5-2.5,2-4.4,4c-2.5,2.3-3.6,4-3.6,4.4c0.5-14.3,4.9-23.7,13-28.2c3.3-2.1,8.6-3.5,16-4l1,0.5l0.8-0.5
			c1.8,0.3,3.3,0.2,4.4-0.5L576.6-56.4L576.6-56.4z M525.2,112.4c2.3-4,6.6-9.4,12.9-16.5c5.4-6.3,9.1-11.4,11.2-15.2
			c1-1.2,1.3-3.6,1.3-7.1c0-2.6-0.7-5.4-1.8-8.4c-1.2-1.8-2.3-2.6-3.6-2.6c-1.2,0-2.5,0.7-4,1.8c-3,1.8-5.1,7.3-6.6,16.5
			c-2.1,11.9-3.8,19.3-4.9,22.2L525.2,112.4L525.2,112.4z"/>
	</g>
</g>
<g *ngIf="weed>=5" id="weed5">
	<g id="weed5_1_">
		
			<linearGradient id="path30_5_" gradientUnits="userSpaceOnUse" x1="-45.597" y1="-15.6427" x2="16.8518" y2="-15.6427" gradientTransform="matrix(-14.5388 1.464 -1.464 -14.5388 -78.275 -0.6998)">
			<stop  offset="0" style="stop-color:#1B3021"/>
			<stop  offset="1" style="stop-color:#2D5852"/>
		</linearGradient>
		<path id="path30_2_" connector-curvature="0" fill="url(#path30_5_)" d="M549.2,252.3c-2,1.4-5.8,14-11.1,37.7
			c-5,21.7-20.5,36.2-46.8,43.5c-23.1,6.8-45.6,4.3-67.4-7.3c-24.4-12.5-42.3-33.3-53.6-62.7c-16.2-42.2-36.7-74.5-61.1-96.8
			c-24.6-22.4-46.8-29.2-66.9-20.7c-19.5,8.2-32.6,5-39.3-9.6c-6.3-14.5-3.8-31.6,8-51.1c13.5-22,40.8-39.3,81.8-52.1
			c47.5-14.5,97-15.7,148.4-3.8c55.3,13.1,101.9,39.1,139.9,78.2c37.2,38.6,50,72.4,38.2,101.6c-7,17.4-18.4,28.5-34,33.5
			C567.8,245.6,555.8,248.9,549.2,252.3L549.2,252.3z"/>
		<path id="path32_2_" connector-curvature="0" fill="#2E6A53" d="M613.9,169c-8.2-26.6-28.3-52.8-60.6-78.7
			C519,62.9,481,44.3,439.6,34.4c-50.4-12.1-99.2-10.8-146.7,3.8c-18.8,5.6-35.7,13.5-50.4,23.4C229.4,70.1,220,79,214.3,88.2
			c-9.6,15.9-12.5,30.4-8.5,43c4.3,12.5,14,16.4,29.2,12.1l5.3-1.5c0.3,0,1.7-0.5,4.3-1.5c22-6.8,45.3,1.5,69.7,24.9
			c23.7,22.7,43.7,55,60.1,96.8c10.9,28,28,48,51.1,60.1c20.8,10.6,42.5,13,64.9,6.8l2.7-1c13.5-4.3,23.6-10.1,30.2-17.6
			c5-5.6,8.4-13.1,10.1-22.4c1.4-10.2,2.6-17.8,3.2-22.4c1.7-8.2,5.3-14,10.6-17.6l8.5-3.8c6-1.9,15-3.9,27.2-6.5
			c14.9-4.6,25.3-14.9,31.4-30.7C619,196.1,619,183.5,613.9,169L613.9,169z M551.7,256.6c-2.7,1-4.8,5-5.8,11.8
			c-0.7,3.8-2,11.3-3.8,22.4c-4.3,23.1-19.5,38.4-45.8,46.3l-0.5,0.5l-3.2,0.5c-24.4,7-48.2,4.6-71.2-7.3
			c-25.4-13.1-44.1-34.7-55.8-64.9c-15.2-39.6-34.5-70.7-57.9-93.1c-22.4-21.5-42.5-29.4-60.6-23.4l-3.2,1.5l-5.8,2.2
			c-9.6,3.2-18.4,3.1-26.6-0.5c-6.8-3.6-11.8-9.6-14.9-18.1c-4.6-15.9-1.2-33.1,10.1-51.6c6.3-10.6,16.7-20.5,30.9-29.7
			c14.5-9.6,31.9-17.6,52.1-23.9c48.5-15.7,99-17.1,151.5-4.3c43.5,10.6,82.8,29.7,117.5,57.4c33.6,27,55.2,55,64.4,84
			c5,17.1,5,32.1,0,45.3c-7.5,18.8-19.8,30.9-37.2,36.2c-13.1,2.6-22.4,4.6-27.7,6.3L551.7,256.6L551.7,256.6z"/>
		
			<linearGradient id="path94_5_" gradientUnits="userSpaceOnUse" x1="33.2037" y1="-5.6137" x2="72.8708" y2="-5.6137" gradientTransform="matrix(14.6061 -0.396 0.396 14.6061 -78.211 -0.6796)">
			<stop  offset="0" style="stop-color:#1C3030"/>
			<stop  offset="1" style="stop-color:#2E6753"/>
		</linearGradient>
		<path id="path94_2_" connector-curvature="0" fill="url(#path94_5_)" d="M477.5-22.4c-11.4,5.3-23.1,6-35.2,2.2
			c-13.1-4.3-23.4-13.5-30.9-27.7c-10.9-20.5-23.4-35.5-37.2-44.6c-13.8-9.6-25.4-11.4-35.2-5.3c-9.6,6-16.4,5.5-20.7-1.5
			s-4.1-16.2,0.5-27.7c5.6-12.5,18.6-23.6,38.8-33.5c23.4-11.6,48.3-16.7,75-14.9c29,2,54.5,11.6,76,28.7
			c21.2,16.7,29.9,33.1,26.1,49.3c-2.6,9.6-7.7,16.2-15.4,20.3c-8.5,2.7-14.3,5.5-17.6,8c-1,1-2.4,7.9-3.8,20.1
			C496.9-37.3,490.1-28.4,477.5-22.4L477.5-22.4z"/>
		<path id="path96_3_" connector-curvature="0" fill="#2E6A53" d="M507.2-154.3c21.5,15.2,32.6,31.8,33,49.3l-1,8.5
			c-2.7,10.9-8.7,18.8-17.4,23.4c-9.2,3.2-14.9,5.6-17.1,7.5c-0.3,0-0.9,5.6-1.5,16.9c-1.4,13.8-9.4,24.1-23.9,30.9
			c-6.7,3.2-14,4.8-21.9,4.8c-22,0-38.6-10.9-49.9-33c-8.2-15.7-17.8-28.2-28.7-37.7c-9.9-8.9-19-13.3-27.2-13.3
			c-3.6,0-6.8,1-10.1,3.2c-5,2.9-9.4,4.3-13.3,4.3c-5.3,0-9.6-2.2-12.8-6.8c-2.7-3.9-4.3-8.9-4.3-14.9c0-6.3,1.2-12.1,3.8-17.6
			c6-13.1,18.4-24.6,37.2-34.5c20.8-11.4,44.2-17.2,70.2-17.6c5,0,8.7,0.2,11.1,0.5C461.2-178.2,485.8-169.5,507.2-154.3
			L507.2-154.3z M517.3-82c6.3-3.2,10.6-8.9,12.6-16.9l0.5-5.8c0.7-13.5-8.9-27.3-28.7-41.5c-20.5-14.9-43.5-23.1-69.2-24.4
			l-10.6-0.5c-23.4,0-45.4,5.6-65.9,17.1c-17.8,9.6-28.7,19.3-33,29.2c-2,5.3-3.2,9.9-3.2,13.8c0.3,7.9,3.1,12,7.9,12.3
			c2.2,0,5-1,8.5-3.2c3.9-2.7,8.7-4.3,14.3-4.3h0.5c10.9,0.3,22,5.5,33.5,15.4c10.9,9.9,21,23.4,30.4,40.5
			c9.9,18.4,23.9,27.7,42,27.7c7.2,0,13.1-1.2,18.1-3.8c7-3.2,12.1-6.8,14.9-11.1c1.9-2.7,3.1-6.7,3.8-11.6v-11.6
			c0.3-5,2-9.1,5.3-12.3C503.4-76.2,509.4-79.1,517.3-82L517.3-82z"/>
		
			<linearGradient id="path160_5_" gradientUnits="userSpaceOnUse" x1="41.065" y1="23.188" x2="77.1342" y2="32.0091" gradientTransform="matrix(14.6119 0 0 14.6119 -78.2064 -0.6305)">
			<stop  offset="0" style="stop-color:#1B3029"/>
			<stop  offset="0.7294" style="stop-color:#2D6453"/>
			<stop  offset="1" style="stop-color:#2C7353"/>
		</linearGradient>
		<path id="path160_2_" connector-curvature="0" fill="url(#path160_5_)" d="M949.4,295.5c-5,22-19.5,28.7-43.5,20.1
			c-25.1-8.9-49.9,4.4-73.9,39.8c-24.4,35-42.3,83.5-53.8,145.1c-7.9,42.5-24.6,74.5-50.4,95.6c-23.4,19.1-49.2,26.1-77,20.8
			c-31.6-6.3-52.1-24.2-61.6-53.6c-3.6-14.9-6.1-25.4-8-31.4c-3.2-10.2-7.3-16.6-12.1-19.1c-18.4-2.9-32.8-5.5-43-8
			c-18.4-4.6-33.3-18.4-44.6-41.5c-18.8-38.9-10.1-88.3,26.1-147.7c37.2-60.6,86.6-104.3,148.4-131.3
			c57.4-25.6,114.7-31.8,172.3-18.6c49.9,11.4,84.5,31.4,103.7,60.1C948.2,250.9,954.4,274.2,949.4,295.5L949.4,295.5z"/>
		<path id="path164_2_" connector-curvature="0" fill="none" stroke="#2E6A53" stroke-width="0.5821" d="M949.4,295.5
			c5-21.3-1-44.6-18.1-69.7c-19.1-28.7-53.8-48.7-103.7-60.1c-57.4-13.1-114.7-6.8-172.3,18.6C593.8,211.2,544.2,255,507,315.7
			c-36.2,59.6-44.9,108.8-26.1,147.9c11.4,23.1,26.3,36.9,44.6,41.5c10.2,2.6,24.6,5.1,43,8c5,2.6,9.1,8.9,12.1,19.1
			c1.7,6,4.4,16.4,8,31.4c9.6,29.4,30.1,47.3,61.6,53.6c28,5.3,53.6-1.5,77-20.7c25.8-21.3,42.7-53.1,50.4-95.8
			c11.4-61.6,29.2-110,53.8-145.1c24.1-35.5,48.7-48.7,73.9-39.8C929.8,324.2,944.5,317.4,949.4,295.5L949.4,295.5z"/>
		<path id="path166_1_" connector-curvature="0" fill="#2E6A53" d="M881.3,236.9c-18.4-2-35.2,4.6-50.5,20.1
			c-3.9,2.6-8.9,7.9-14.9,15.9c-11.3,16.4-21.2,38.9-29.7,68.1c-6.8,23.4-15.2,58.7-25.4,106.4c-9.9,38.6-21.9,64.2-35.7,76.5
			c-16.6,15.2-31.9,21.9-45.6,19.6c-13.8-2-25.3-12.8-34.5-31.9c-7-15.2-10.8-28.9-11.1-41c-0.3-12.5,2.9-26.1,9.6-41.5
			c4.6-10.9,11.8-24.6,21.3-41c13.1-22.4,20.7-35.7,22.9-39.8l28.2-47.8c6.7-9.9,14-22.5,21.9-37.7c-14.5,2.6-29.9,14.9-46.3,37.2
			c-9.2,12.1-21,29-35.7,51.1c0.7-10.9,3.1-21.3,6.8-30.9c3.9-9.6,10.6-21.9,20.1-36.7c-2-0.3-4.4,0.3-6.8,2.2
			c-2.9,2-8,7.2-15.4,14.9l-15.4,17.6c-13.5,15.9-26.8,35.2-39.8,57.4c-7.9,12.8-17.8,10.1-29.7-8c-11.8-17.4-17.1-33.3-16.1-47.8
			c3.6-38.2,33.1-71.7,88.8-100.4c29.7-15.2,56.2-25.1,79.2-29.7c16.2-3.6,36.7-5.1,61.1-4.8c19.1,0,34.3,1.5,45.8,4.8
			c6.7,1.7,17.9,6.5,33.5,14.3c10.2,5,21,14.3,32.4,28.2c10.2,12.1,16.1,21.5,17.6,28.2c1,3.6-2.9,1.2-11.6-6.8
			C894.5,243.3,886.3,237.6,881.3,236.9L881.3,236.9z"/>
		
			<linearGradient id="path184_5_" gradientUnits="userSpaceOnUse" x1="14.1356" y1="44.8405" x2="22.071" y2="44.8405" gradientTransform="matrix(8.1052 -12.1585 12.1585 8.1052 -78.1903 -0.6222)">
			<stop  offset="0" style="stop-color:#1C3030"/>
			<stop  offset="1" style="stop-color:#2E6753"/>
		</linearGradient>
		<path id="path184_2_" connector-curvature="0" fill="url(#path184_5_)" d="M594.3,234.9c-16.7-3.9-27-13.1-30.9-27.7
			c-4.3-16.2-7-24.8-8.5-25.6c-9.6-1.7-17.2-3.6-22.9-5.3c-9.9-2.9-17.4-9.9-22.4-21.3c-8.5-19.5-1.4-43,21.3-70.7
			c23.1-28.3,51.9-48,86.6-58.9c32.3-10.6,63.9-11.6,94.6-3.2c26.6,7.2,44.4,17.9,53.1,32.4c8.2,13.1,10.4,24.6,6.3,34.5
			c-3.6,10.2-11.6,13-24.4,7.9c-13.1-5-27.2,0.7-42,17.1c-14.9,16.2-27,39.1-36.2,68.6c-6.3,20.5-17.1,35.3-31.9,44.6
			C624,235.9,609.6,238.5,594.3,234.9L594.3,234.9z"/>
		<path id="path186_2_" connector-curvature="0" fill="#2E6A53" d="M548.2,70.1c-19.8,18.8-32.1,37.6-36.7,56.4
			c-2,10.9-1.7,20.3,1,27.7c5.3,11.6,13.3,18.4,23.9,20.1l11.8,2l8.5,2.7c3.6,2,6,6,7.5,11.6c0.7,3.2,1.5,8.4,2.6,15.4
			c3.2,13.5,12.8,22.2,28.7,26.1h1.5c13.8,2.9,26.8,0.2,39.3-8c13.8-8.9,23.7-23.1,29.7-42.5c9.2-28.7,20.7-51.2,34.5-67.4
			c14.2-16.7,28.5-23.7,43-21.3l9.6,3.2c8.2,1.4,13.7-2,16.6-10.1c2-9.6-0.2-19.5-7-29.7c-4.3-6.8-11.4-13.1-21.7-19.1
			c-11.4-6.3-24.1-11.1-38.2-14.3c-27.7-5.3-55.8-3.6-84.5,5.3C592.4,36.3,569,50.3,548.2,70.1L548.2,70.1z M616.6,22.3
			c30.2-9.6,59.3-11.3,87.3-5.3c15.2,3.2,28.7,8.2,40.5,14.9c10.9,6.3,19,13.5,23.9,21.2c7.9,12.5,10.2,23.9,7.3,34.5
			c-1,5-3.8,9.1-8,12.1c-3.9,2.6-9.2,3.2-16.1,2l-9.1-2.6c-11.3-2.7-23.6,3.6-36.7,19.1c-14.2,15.9-25.3,37.6-33.5,64.9
			c-6.3,20.8-17.2,36.4-32.4,46.3c-14.2,9.2-29,12.3-44.6,9.1l-2.2-0.5c-18.4-4.3-29.4-14.3-33-30.4c-1.4-7.5-2.2-12.6-2.6-15.4
			c-1-4.6-2.6-7.3-4.3-8l-6.8-2l-11.6-1.5c-13.5-2.9-22.9-11.1-28.2-24.4c-3.9-9.6-4.3-19.8-1-30.9c5-20.1,17.8-40.1,38.2-59.6
			C565.1,45.7,589.3,31.2,616.6,22.3L616.6,22.3z"/>
		
			<linearGradient id="path248_5_" gradientUnits="userSpaceOnUse" x1="-34.1466" y1="36.2764" x2="36.6515" y2="36.2764" gradientTransform="matrix(-4.3952 -13.9354 13.9354 -4.3952 -78.1997 -0.6378)">
			<stop  offset="0" style="stop-color:#1C3030"/>
			<stop  offset="1" style="stop-color:#2E6753"/>
		</linearGradient>
		<path id="path248_2_" connector-curvature="0" fill="url(#path248_5_)" d="M565.6-241.4c6.8-1.7,13-2.2,18.6-1.5
			c8.2,1.4,13.5,5.3,15.9,11.6c2.6,6.7-1.4,9.9-11.6,9.6c-6.3-0.7-12.3,0.5-17.6,3.8c-2,1-4.1,2.6-5.8,4.8c-2,2.6-3.1,4.6-2.6,6.3
			c0.7,2.2,3.8,3.2,9.1,3.2c6.8-0.3,10.4-0.3,11.1,0c4.3,1.4,8.2,4.1,11.8,8c3.9,5,4.6,9.1,2,12.3c-0.3,0.3-1.5,1.4-3.8,3.2
			c-1.9,1-2.9,2.2-3.2,3.2c-0.3,2.6,2.4,5,8,7.5c5.6,6,8.2,16.1,7.3,30.2c-0.7,7.5-3.1,13.8-6.8,19.1c-4.3,5.3-9.9,7.9-17.1,7.5
			c-7-0.3-9.7-3.1-8-8c0.3-0.3,2.7-4.3,7.3-11.6c3.6-5.6,3.9-10.9,1-16.1c-2.9-5-7.2-7.3-13.3-6.8c-5.3,0-10.4,3.2-15.4,9.6
			c-7.5,9.6-13.5,26.8-18.1,52.1l-3.8,23.9c-2.9,17.6-4.8,35.7-5.3,54.5c-1.9,6.1-3.1,11.3-3.2,15.2c0,3.9,1,8.9,3.2,14.9
			c0-0.7,0.2-1.4,0.3-2l4.4,47.3c-1.4-5.5-2.4-10.8-3.2-15.9c3.2,38.6,11.6,78,24.9,118.5c7.9,23.1,20.5,57.4,37.7,103.1
			c13.8,44.6,22.2,93.9,25.1,147.7c0,0.3,5,54.3,14.9,161.5c4.3,48.8,2.7,83.7-4.8,104.2c-2.7,7.5-11.8,13.8-27.2,19.1
			c-18.1,5-30.1,8.4-36.2,10.1c-8.5-1.7-16.6-3.6-23.9-5.3c-14.5-3.2-25.1-2-31.9,3.8c2.7-6.8,9.7-22,20.7-45.8
			c7.9-16.7,14-32.8,18.6-48.3c8.2-31.2,14-68.6,17.6-112.2c7.2-86.7-1-161-24.4-222.7c-22.4-58.9-37.2-118.8-44.6-180.3
			C484,21.1,484.5-40.2,495.1-86c2.4-12.1,6.3-25.1,11.6-39.3l11.6-33.5c2.6-8.5,3.9-14.3,4.3-17.6c0-6.3-2.4-11.6-7.3-15.9
			c-11.6-10.6-18.4-22.4-20.1-35.2c-1.4-12,0.2-20.7,4.8-26c3.2-2.9,6.8-4.1,11.1-3.8c3.9,0.3,7.5,2,10.6,4.8
			c3.6,3.2,5.6,7.9,6.3,13.8c0,2.4-0.2,8-0.5,16.4c-0.3,10.2,2.7,19.5,9.1,27.7c1.9-19.5,5.8-32.1,12.3-37.7
			C553.5-236.2,558.9-239.3,565.6-241.4L565.6-241.4z M535.9-40.5c1-2,2.9-10.6,5.3-25.4c2-11.4,5.5-18.8,10.1-22.4
			c7.5-5.6,13-4.3,16.4,4.3c3.2,7.9,3.1,15-0.5,21.9c-2.9,5.3-7.7,12-14.3,19.6c-7.3,8.5-12.5,14.9-14.9,19.1
			c-6.7,10.6-10.6,22.5-12,36.2l-0.3-2c-0.2-8.7-0.2-17.2,0-25.8C528-22.1,531.4-30.6,535.9-40.5L535.9-40.5z"/>
		<path id="path250_2_" connector-curvature="0" fill="#2E6A53" d="M596-228.2c1-1,0-2.7-3.2-5.3c-3.6-2.9-6.7-4.4-9.6-4.8
			l-4.3-0.5c-6,0-10.4,0.3-13.3,1c-5,1.4-9.4,4.4-13.3,9.1c-6,7.2-9.7,18.6-11.1,34.5l-1,11.6l-6.8-9.1
			c-6.8-8.2-10.1-17.8-10.1-28.7l0.5-13.8c0-7.2-1.5-12.1-4.8-14.9c-2.4-2.6-5.3-3.8-8.5-3.8c-2,0-4.4,0.9-6.8,2.7
			c-2.4,2.4-3.8,6.8-3.8,13.3l0.5,8c0.7,7.2,2.7,13.1,5.8,18.1c2.4,4.3,6.7,9.1,12.6,14.3c5.6,4.3,8.5,10.4,8.5,18.6
			c0,5-1.4,11.6-4.3,20.1l-11.6,34c-3.9,9.9-7.9,22.7-11.6,38.2c-5.6,26.1-8.5,54.1-8.5,84c0,26.3,2.2,58.9,6.8,98.4
			c7.9,60.3,22.7,120,44.6,179.1c18.1,47.1,27.2,103,27.2,167.5c0,39.3-3.2,79.4-9.6,120c-3.6,20.5-6.8,37.2-10.1,50
			c-1.9,6.3-6.8,18.3-14.9,35.7c-6,15.9-7.9,28-5.3,36.2l3.8,5.3c7.9,8.5,21.9,12.1,42,11.1c20.1-1.5,32.1-7,35.7-16.6
			c2.7-7.2,5.1-14.5,7.2-22c1.7,1.7,2.9,2.7,3.4,3.4c11.3,12.1,19,19.1,22.9,21.2c15.7,9.9,26.3,18.1,31.9,24.4
			c-4.3,1.7-10.8,2.4-19.6,1.5c-3.2-0.3-10.1-1.5-20.8-3.8c-8.9-2.2-15.9-3.1-21.2-2.7c-6.8,0.7-2.2,4.6,13.3,11.6
			c14.2,6.3,16.4,9.4,6.8,9.1c-17.4,0.7-31.6,0.9-42.5,0.5c-1.9,0-11.4-1.5-29.2-4.8c-12.5-1.7-22.4-1.7-29.7,0
			c-15.9,7.5-28,11.6-36.2,12.1c-8.2,0.3-10.4-1-6.8-4.3c6.3-4.3,10.1-7.3,11.1-9.6l-1-0.5c-6-1.7-14.2-2-24.4-1
			c-13.1,1.5-21.2,2-24.4,2c-5,0-13.3-1.2-24.9-3.8c-10.6-2-19-3.1-24.9-2.6h-22.9c-9.2-1.4-6.3-3.9,8.5-7.5
			c20.1-5.3,31.4-9.4,33.5-12.3c-2.9-2.7-7-4.6-12.8-5.3c-4.6-1-10.1-0.9-16.4,0.5l-16.4,3.8c-19.8,6-34,8.4-42.5,6.8
			c-5-1-2.6-4.3,6.8-9.6c11.8-5.6,19.1-9.4,22.4-11.3l29.7-14.9c0.3,0,3.8-2.4,10.1-6.8c3.9-2.6,7.5-4.3,11.1-5.3
			c16.9-5.6,31.6-7.9,44.1-6.8c6.3,0.7,15.2,2,26.6,3.8c9.9,0.7,18.8-1.4,26.6-6.3c24.6-15.5,40.1-46.6,46.8-93.1
			c2.4-18.4,3.8-54.8,3.8-108.9c0-63-8.9-117.7-26.6-163.8c-22.4-59.6-37.4-120-45.1-181.9c-4.6-39.3-6.8-72.4-6.8-99.4
			c0-33,2.7-61.6,8.5-86.1c3.9-16.7,7.9-29.9,12.1-39.8l11.1-33.5c2.9-8.5,4.3-14.2,4.3-17.1c0-4.3-1.7-8-5.3-11.1
			c-13.1-11.3-20.3-24.1-21.9-38.2l-0.5-9.6c0-9.2,2-16.2,6.3-20.8c3.9-3.2,8.4-4.8,13.3-4.8c5.6,0,10.4,1.9,14.3,5.8
			c5.6,5.3,8.5,12.6,8.5,22.4l-0.5,13.8c0,4.3,0.5,8,1.5,11.1c1.7-12.1,5.6-21,11.8-27.2c8.9-8.2,19.8-12.3,33-12.3l5.8,0.5
			c5.6,1,10.2,3.4,13.8,7c4.3,3.6,6.7,7.9,6.8,12.6c0,3.9-1.5,6.8-4.8,8.5c-2.4,1.7-6.1,2.6-11.1,2.6h-2c-6,0-10.9,1-14.9,3.2
			c-2.6,1.4-4.3,3.8-5.3,6.8c9.2-1,17.1,0,23.4,3.2c7,3.2,10.9,8.4,11.6,15.4c0.3,7.9-2,10.9-7.5,9.1c1,1.4,3.1,3.8,5.8,7
			c2.9,2.7,4.8,5.3,5.8,7.5c2.2,4.3,3.2,9.9,3.2,17.1l-0.5,9.1c-0.3,7.9-2.7,14.7-6.8,20.7c-5.3,6.8-11.8,10.1-19.6,10.1h-1.5
			c-3.6,0-6.5-0.9-9.1-2.7c-2.9-1.7-4.1-4.3-3.8-7.5c0.3-3.6,1.5-7.2,3.8-10.6c1-1.7,2.6-4.1,4.8-6.8c0.7-0.7,1.5-2.6,2-5.8
			c-0.7-6-3.9-9.1-9.6-9.1h-1c-5,0-9.1,2.7-12.3,8c-6.7,8.5-12.5,24.9-17.1,49.3L532.1-45c0.3-0.7,2-8.7,4.8-23.9
			c2-11.4,5.8-19.5,11.1-24.4c3.6-2.6,7.2-3.8,10.6-3.8c5.3,0.3,9.4,3.1,12.3,7.9c2,4.3,3.2,9.2,3.2,14.9c0,5.6-0.9,10.2-2.6,13.8
			c-2.9,5.3-7.9,12.1-14.9,20.3c-7,8.5-11.8,14.7-14.3,18.6C531.8-4.5,527.8,18,530.6,46.5c1,13.8,5.6,37.1,13.8,69.7
			c4.6,18.8,8.9,33.5,12.6,44.1c7.9,22.7,20.1,57,37.2,103.1c14.2,45.1,22.7,94.6,25.4,148.9l1,46.3c0,13.8-0.3,27.3-1,40.6
			c-5.1-36.4-8.4-65.2-9.6-86.4c-2.7-53.4-11.1-102.3-24.9-146.2c-16.9-45.4-29.4-79.7-37.2-103.1c-13.8-42.5-22.4-84.4-25.6-125.3
			c-1.7-22.4-2.6-36.5-2-42.5c0.3-21,2.2-43.2,5.8-66.9l4.3-23.9c5-25.6,11.1-43.5,18.6-54.3c5.6-6.8,12-10.6,18.6-11.6h1.5
			c5.3,0,9.7,2,13.3,5.8c3.6,3.6,5.3,8,5.3,13.3c0,4.3-1.2,8.2-3.8,11.8l-6.8,11.1l3.8,1h1.5c5,0,9.1-2.2,12.3-6.8
			c2.7-3.9,4.6-9.1,5.3-15.4l0.5-8c-0.3-5.3-1-9.2-2-11.8c-1.4-3.6-4.1-6.7-8-9.6c-10.6-5-15.9-9.1-15.9-12.3c0-2,1.5-2.7,4.8-2
			c1.4,0.3,3.6,0.9,6.3,1.5c3.2,0.3,5.5-0.3,6.8-2c1-2,0.7-4.6-1-7.3c-2-4.3-6.1-6.8-12.1-8c-7.5-2-13.1-1.9-17.1,0.5
			c-1,0.7-2.9,2.2-5.3,4.8c-2.9,2.7-4.3,4.6-4.3,5.3c0.7-17.1,5.8-28.2,15.4-33.5c3.9-2.6,10.2-4.1,19.1-4.8l1,0.5l1-0.5
			c2,0.3,3.9,0.2,5.3-0.5L596-228.2L596-228.2z M534.8-27.2c2.7-4.6,8-11.1,15.4-19.6c6.3-7.5,10.9-13.5,13.3-18.1
			c1-1.4,1.5-4.3,1.5-8.5c0-3.2-0.7-6.5-2-10.1c-1.4-2-2.7-3.2-4.3-3.2c-1.4,0-3.1,0.7-4.8,2c-3.6,2-6.1,8.7-7.9,19.6
			c-2.6,14.2-4.4,23.1-5.8,26.6L534.8-27.2L534.8-27.2z M613.9,562.2c2.9-20.1,4.8-41,5.8-62.5c2,14.2,4.3,29.5,6.8,45.9
			c4.4,43.4,1.5,82.6-8.2,117.7c-1.9-1.7-4.6-4.1-8.2-7.2c-5.3-4.6-8.7-8.5-10.1-11.8c-2.7-8.5-1.7-22,3.2-40.5
			C610.5,577.1,613.9,563.1,613.9,562.2L613.9,562.2z"/>
		
			<linearGradient id="path270_1_" gradientUnits="userSpaceOnUse" x1="49.8444" y1="28.4595" x2="79.5415" y2="52.9451" gradientTransform="matrix(14.6119 0 0 14.6119 -78.2064 -0.6305)">
			<stop  offset="0" style="stop-color:#1B302C"/>
			<stop  offset="0.6824" style="stop-color:#2D5852"/>
			<stop  offset="1" style="stop-color:#2A9852"/>
		</linearGradient>
		<path id="path270" connector-curvature="0" fill="url(#path270_1_)" d="M1004.1,417.8c42.5,31.6,66.9,63.4,73.4,95.1
			c6,28.3,2.4,50.2-11.1,65.4c-13.5,15.5-29.9,14.5-49.3-3.2c-19.8-18.1-48.3-18.3-85.5-0.5c-37.2,18.1-73.4,49.9-108.9,95.1
			C797.8,701.2,768.9,720,736,726c-30.1,5.3-57.2-0.5-81.3-17.6c-27.3-19.1-39.3-42.9-36.2-71.2c2.6-13.8,4.3-23.6,5.3-29.2
			c1.4-9.9,0.2-17.1-3.8-21.3c-16.2-10.2-28.7-18.8-37.2-25.4c-15.9-12.1-24.6-29.9-26.1-53.6c-1.7-40.1,26.5-76.3,84.5-108.9
			c59.6-33.3,123.8-47.5,193-42.5C898.2,361.1,954.9,381.6,1004.1,417.8L1004.1,417.8z"/>
		<path id="path272" connector-curvature="0" fill="#2E6A53" d="M1081.8,514.4c3.6,19.1,2.6,36.2-3.2,51.1
			c-6,14.9-15.2,23.7-27.7,26.6c-12.1,2-24.2-2.6-36.7-13.8c-11.6-11.3-28.2-15-49.3-11.1c-20.5,4.3-43,15.2-67.4,33
			c-25.1,18.8-49.2,42.9-72.2,72.4c-24.4,31.6-53.3,50.5-86.6,56.9c-31.9,6-60.6,0.2-86.1-17.6c-21.2-14.9-33.6-32.1-37.2-51.6
			c-1.7-10.2-1.2-22.9,1.5-37.7c2.9-14.5,3.9-23.4,3.2-26.6c-0.3-1.9-1.4-3.9-3.2-6.5c-13.8-9.2-24.9-16.6-33.5-22.4
			c-15.5-10.9-25.1-26-28.7-45.3l-1.5-13.8c-1.4-32.3,16.6-62.7,54.1-91.5c36.2-28.3,80.8-47.8,134-58.4c31.2-6,62.2-8,93.1-5.8
			c65.2,5.3,122.6,26.1,172.3,62.7c42.9,31.6,67.8,64,75,97.2L1081.8,514.4L1081.8,514.4L1081.8,514.4z M1073.8,513.9
			c-6-30.9-29.9-61.8-71.7-93.1c-48.8-36.2-105-56.4-168.5-60.6c-30.1-2.6-60.4-0.7-90.8,5.3c-51.7,10.2-95.3,29.2-130.8,56.9
			c-35.9,27.7-52.9,56-51.6,85l1.5,12.6c3.2,17.1,12,30.4,26.1,40.5c22.4,15.2,33.8,23.2,34.5,23.9c2.6,2.4,4.1,5.6,4.8,9.6
			c0.7,5-0.3,14.9-3.2,29.7c-2.9,14.2-3.4,25.8-1.5,34.5c3.2,17.8,14.5,33.3,34,46.8c24.6,16.7,51.2,22,80.3,16.4
			c31.6-6.3,58.9-24.4,82.3-54.1c23.7-29.7,48.3-54.3,73.9-73.4c24.8-18.4,48.2-29.9,70.2-34.5c23.4-4.6,42.2-0.3,56.4,12.8
			c10.9,9.9,21,14,30.2,12.1c9.2-2,16.2-9.4,21.3-21.9c5.3-13.5,6.3-29,3.2-46.8L1073.8,513.9L1073.8,513.9z"/>
		
			<linearGradient id="path334_1_" gradientUnits="userSpaceOnUse" x1="-39.2295" y1="-32.8277" x2="3.274195e-002" y2="-32.8277" gradientTransform="matrix(-14.5944 -0.7101 0.7101 -14.5944 -78.1764 -0.6536)">
			<stop  offset="0" style="stop-color:#1C3030"/>
			<stop  offset="1" style="stop-color:#2D5852"/>
		</linearGradient>
		<path id="path334" connector-curvature="0" fill="url(#path334_1_)" d="M288.1,325.7c70.2,2,131.8,20.8,184.9,56.4
			c52.4,35,73.9,70.7,64.4,106.9c-5.6,21.3-17.6,36.5-35.7,45.8c-9.6,5-23.6,11.4-42,19.6c-4.6,3.6-7.2,9.7-7.5,18.6
			c-0.3,5.3-0.5,14.3-0.5,27.2c-2,25.6-18.6,45.6-49.3,60.1c-27.3,12.6-55.5,15.2-84.5,7.3c-31.9-8.5-57.2-28-76-58.4
			c-27.3-44.4-57.9-76.3-91.9-96.3c-34-19.8-62.5-22.5-85.5-8c-22.7,14.2-39.3,13.7-49.9-1.5c-10.6-14.9-10.4-35,0.5-60.1
			c12.5-28.3,42.9-54.5,91.4-78.7C162.4,336.8,222.9,324,288.1,325.7z"/>
		<path id="path336" connector-curvature="0" fill="#2E6A53" d="M61.7,502.3c5-3.2,11.1-5.6,18.1-7.5
			c25.1-6,52.9,1.2,83.5,21.9c30.1,20.5,57.5,50.7,82.3,90.3c15.9,26,36.7,43.7,62.2,53.8c23.1,8.9,46.8,10.1,71.2,3.8
			c7.2-1.4,14.3-3.9,21.9-7.5c17.4-8.2,29.7-17.6,37.2-28.2c5.3-8.2,8.5-17.9,9.6-29.2c0-12.5,0.2-21.2,0.5-26.6
			c0.3-9.6,3.4-16.6,9.1-21.2c19.1-8.5,33.5-15.2,43-20.1c16.7-8.5,27.8-22.9,33.5-43c2-9.6,2-19.1-0.5-28.7
			c-7.9-31.6-35.5-60.4-83-86.6c-49.5-27.7-103.8-42.2-162.6-43.5c-34.7-1.5-70.2,2.2-106.4,11.1c-40.8,10.2-76.8,26-108.4,47.3
			c-28,19.1-46.1,37.9-54.3,56.4c-7.3,17.1-9.4,32.1-5.8,45.3c4.6,17.8,15.2,24.4,31.9,20.1C50.1,508.6,55.7,506.1,61.7,502.3
			L61.7,502.3z M66.4,508.1c-6,3.9-12.6,6.7-19.6,8.5c-11.3,2.7-20.7,1.7-28.2-3.2c-6.7-4.6-11.4-12-14.3-21.9
			c-3.6-15.5-1.2-32.1,6.8-49.3c8.9-19.8,28-39.8,57.4-59.6c31.9-22,69-38.2,111.2-48.8c34.3-8.9,70.7-12.8,108.9-11.6
			c60.6,1.7,116.1,16.6,166.5,44.6c48.8,26.8,77.7,57.2,86.6,90.8c2.7,10.6,2.7,21.2,0,31.9c-5.6,22-18.3,38.1-37.7,48.3
			c-10.2,5.3-24.1,11.6-41.5,19.1c-3.6,2-5.5,7.5-5.8,15.9c0,5-0.2,13.8-0.5,26.6c-2,27.7-19.3,48.8-51.6,63.9
			c-7.5,3.6-15.2,6.3-23.4,8.5h-0.5c-26.1,6.5-51.7,4.8-76.5-4.8c-27.3-10.2-49.2-28.9-65.9-55.8c-23.7-38.6-50.7-68.1-80.8-88.8
			c-29-19.8-54.5-26.8-76-20.7C76.4,502.8,71.4,504.9,66.4,508.1z"/>
		<path id="path338" connector-curvature="0" fill="#2E6A53" d="M259.9,354.9c37.9,1,70.9,5.5,98.9,13.3
			c33.3,9.2,45.4,20.7,36.2,34.5c-2.4,3.6-16.1,1.7-41-5.3c-25.8-8.2-40.6-12.6-44.1-13.3c-18.8-2.9-26.3,0.7-22.4,10.6
			c4.3,11.3,0.5,17.2-11.1,17.6c-38.2,1-61.3,1.9-69.2,2.6c22,9.2,47.5,25.1,76.5,47.8c10.6,8.9,23.6,19.6,38.8,32.4
			c11.6,9.9,21,18.6,28.2,26.1c9.2,9.6,15.7,20.3,19.1,32.4c3.6,12.8,3.6,25.4,0,37.7c-4.6,15.5-13.7,25.4-27.2,29.2
			c-13.1,3.9-28.9,1.5-47.3-6.8c-16.1-7.5-33.6-24.6-53.1-51.1c-21.7-32.3-38.8-56.4-51.6-72.2c-15.9-19.5-31.8-33.5-47.3-42
			l-19.1-7.5c-20.5-7.9-39.4-7.7-56.9,0.5c-5,2-12.1,8.9-21.3,20.1c-7.2,8.5-10.6,11.3-10.6,8.5c0.3-5.6,4.1-14.7,11.1-27.2
			c8.2-13.8,16.9-24.2,26.1-31.2c14.2-10.2,26.1-17.9,35.7-22.9c13.5-7.3,29.9-14,49.3-19.6C192,358.7,225.9,353.9,259.9,354.9
			L259.9,354.9z"/>
		
			<linearGradient id="path358_1_" gradientUnits="userSpaceOnUse" x1="-62.3772" y1="-14.1165" x2="-29.0655" y2="-14.1165" gradientTransform="matrix(-12.7256 -7.1802 7.5923 -12.4932 -78.1388 -0.6334)">
			<stop  offset="0" style="stop-color:#1B302C"/>
			<stop  offset="0.6824" style="stop-color:#2D5852"/>
			<stop  offset="1" style="stop-color:#2A9852"/>
		</linearGradient>
		<path id="path358" connector-curvature="0" fill="url(#path358_1_)" d="M417.4,387.4c49-0.7,95.1,11.8,138.8,37.2
			c46.8,27,81.3,63.5,103.7,110c21.5,45.8,22,80.4,1,104.2c-12.5,14.2-26.6,21.5-42.5,21.9c-16.7-1.7-28.7-2-36.2-0.5
			c-2.9,0.7-10.6,11.3-23.4,31.9c-11.8,18.8-31.1,28-58.1,27.7c-23.7-0.3-43.7-8.7-60.1-24.9c-18.4-18.1-28-42.2-28.7-72.2
			c-0.7-43.5-8.7-79.1-23.9-106.4c-15.2-27.3-33.6-39.8-55.2-37.2c-20.8,2.4-31.9-4.1-33-19.6c-1.4-15.2,6.7-30.4,24.4-45.3
			C343.8,396.9,374.8,388.1,417.4,387.4L417.4,387.4z"/>
		<path id="path360" connector-curvature="0" fill="#2E6A53" d="M302.9,474.1c-6.8-7-8.4-16.4-4.8-28.2
			c3.6-11.8,10.9-22.7,22.4-33l1.5-1c20.5-17.4,52.3-26.3,95.1-27.2c49.2-0.7,96,11.6,140.4,37.2c20.5,11.6,39.4,26.6,56.9,44.6
			c29,29.7,48.3,61.3,57.9,94.6c9.9,34,6.8,60.6-9.6,79.7l-7.5,8c-11.6,9.9-25.1,14.9-40.5,14.9c-15.5-2-26.5-2.6-32.4-1
			c-1.7,0.3-3.4,1.2-4.8,2.6c-1.7,1.7-5.3,7.9-10.6,18.1c-5.3,10.2-11.1,18.1-17.6,23.4c-12.1,10.6-28.3,15.7-48.8,15.4
			c-24.4,0-45.6-9.1-63.7-27.2c-17.8-17.8-27.2-42-28.2-72.7c-0.3-28-4.1-53.3-11.1-76c-6.8-21.7-15.7-38.1-27.2-49.3
			c-11.4-12.1-23.7-17.2-37.2-15.4C319.5,482.8,309.4,480.4,302.9,474.1L302.9,474.1z M324.8,417.3c-10.9,9.9-17.9,19.8-20.8,29.7
			c-2.7,10.2-1.5,17.9,3.8,22.9c5,5.3,13.3,7.3,24.9,5.8c15.7-1.7,29.5,3.9,42,17.1c12.1,12.5,21.7,29.7,28.7,52.1
			c7.2,22.7,10.9,48.3,11.8,77c0.3,28.7,9.2,51.9,26.6,69.7c16.2,16.6,36.2,24.9,59.4,24.9c18.1,0.3,32.8-4.1,44.1-13.3
			c5.3-5,10.6-12.5,16.1-22.4c5.3-10.2,9.4-16.9,12.1-19.6c2.9-2,5.5-3.4,8-3.8c7.5-1.4,18.6-1.2,33.5,0.5
			c13.8,0,25.8-4.4,36.2-13.3l7.3-7.5c14.9-17.1,17.6-41.8,8-74.5c-9.6-33-28.3-63.9-56.4-92.4c-15.9-16.7-34.5-31.2-55.8-43.5
			c-42.9-25.1-88.6-37.2-137.1-36.2c-41.8,0.7-72.2,9.2-91.4,25.4L324.8,417.3L324.8,417.3z"/>
	</g>
</g>
</svg>
