<?xml version="1.0" encoding="UTF-8"?>
<svg viewBox="0 0 249 393" xmlns="http://www.w3.org/2000/svg">
<defs>
<linearGradient id="imagebot_41" x2="1" y2="1">
<stop offset="0" stop-color="#ff0"/>
<stop offset=".2408" stop-color="#f00"/>
</linearGradient>
</defs>
<g transform="matrix(.86845,0,0,1.01183,17.0139,-1.50672)">
<path d="m247.856,251.275a123.876,123.876 0 1,1 -247.75153,0 123.876,123.876 0 1,1 247.75153,0z" fill="#ff7f00" stroke="#000" stroke-linecap="round" stroke-linejoin="round" stroke-width="2.20408"/>
<path d="m433.958,429.688c3.215,11.019 4.927,22.681 4.927,34.735 0,68.387-55.492,123.879-123.879,123.879-47.017,0-87.956-26.239-108.944-64.858 15.085,51.409 62.622,88.987 118.89,88.987 68.388,0 123.88-55.492 123.88-123.879 0-21.297-5.396-41.354-14.874-58.864z" fill-opacity=".3137" transform="matrix(1,0,0,1,-200.97432,-237.52782)"/>
</g>
<path d="m305.94748,383.8103c-9.44281-63.58169 54.39911-67.85974 47.21411-93.16919-7.47299-26.32397-36.51224-18.88565-51.62076-22.66278s-12.87921-17.73372-3.77713-25.18088c6.92475-5.66569 63.54782-8.72933 76.80164,32.73514 18.43661,57.67877-45.32556,52.87979-45.32556,107.01865 0,46.02402-22.03327,1.25906-23.2923,1.25906z" fill="#ff7f00" fill-rule="evenodd" stroke="#000" stroke-width="4" transform="matrix(1,0,0,1,-200.97432,-237.52782)"/>
<path d="m158.182,15.5352c3.32,4.1864 6.042,9.1378 7.906,14.9687 18.436,57.6788-45.313,52.8924-45.313,107.0311 0,18.697-3.66,22.401-8.062,20.219 6.791,9.204 15.562,16.331 15.562-12.719 0-54.1387 63.749-49.3523 45.313-107.0311-3.13-9.7928-8.664-17.091-15.406-22.4687zm-68.1567,6.4062c1.1166,3.7755 4.3934,6.9656 10.5317,8.5 10.768,2.6921 28.617-.3007 40.687,7.2813-10.616-16.8486-34.839-11.4441-48.1875-14.7813-1.1119-.278-2.103-.6184-3.0312-1z" fill="url(#imagebot_41)" fill-opacity=".31" fill-rule="evenodd"/>
<path d="m279.3125,373.875c-14.36099,5.80252-27.38155,14.22977-38.46875,24.6875 3.24205,5.51816 7.44937,10.58865 12.78125,14.40625-12.29764,16.09808-19.59375,36.19287-19.59375,58-2e-005,52.8194 42.86813,95.6875 95.6875,95.6875s95.6875-42.86816 95.6875-95.6875c0-21.60025-7.19424-41.51068-19.28125-57.53125 3.72308-2.54706 6.88806-5.69345 9.59375-9.1875-10.56549-11.33917-23.21863-20.70609-37.375-27.4375-.30414.36066-.58954.72601-.875,1.09375-2.15698,2.77875-3.55359,5.36087-4.34375,7.78125-13.03473-6.65512-27.77551-10.40625-43.40625-10.40625-15.28543,0-29.74164,3.5864-42.5625,9.96875-.81308-2.293-2.16193-4.73428-4.1875-7.34375-1.08401-1.39648-2.32309-2.74045-3.65625-4.03125z" fill-opacity=".3137" transform="matrix(1,0,0,1,-200.97432,-237.52782)"/>
<path d="m233.71875,341.73563c-2.56473.05691-4.45985.58737-5.40625,1.65625-3.4874,3.93872-.59007,39.93435 21.0625,55.4375-12.29762,16.09808-19.59375,36.19287-19.59375,58 0,52.81939 42.86813,95.68753 95.6875,95.68753s95.6875-42.86817 95.6875-95.68753c0-21.60028-7.19424-41.51068-19.28125-57.53125 22.26459-15.23175 25.27316-51.92713 21.75-55.90625-5.04742-5.70069-37.51434,3.76675-50.40625,20.375-2.15695,2.77874-3.55359,5.36087-4.34375,7.78125-13.03473-6.65512-27.77551-10.40625-43.40625-10.40625-15.2854,0-29.74164,3.58642-42.5625,9.96875-.81305-2.29303-2.16193-4.73429-4.1875-7.34375-10.47467-13.49421-33.88617-22.27787-45-22.03125z" fill="#ff7f00" stroke="#000" stroke-linecap="round" stroke-linejoin="round" stroke-width="4" transform="matrix(1,0,0,1,-200.97432,-237.52782)"/>
<path d="m413.65625,419.75c1.20285,6.04504 1.84375,12.28867 1.84375,18.6875 0,52.81937-42.8681,95.6875-95.6875,95.6875-39.61453,0-73.62367-24.09766-88.15625-58.4375 8.77148,43.79047 47.45334,76.84375 93.8125,76.84375 52.81937,0 95.6875-42.86813 95.6875-95.6875 0-13.15396-2.68381-25.68997-7.5-37.09375z" fill-opacity=".3137" transform="matrix(1,0,0,1,-200.97432,-237.52782)"/>
<path d="m403.52332,522.30505a67.98833,67.98833 0 1,1 -135.97663,0 67.98833,67.98833 0 1,1 135.97663,0z" fill="#fff" stroke="#000" stroke-linecap="round" stroke-linejoin="round" stroke-width="9.93104" transform="matrix(.40278,0,0,.40278,-43.07852,-4.60012)"/>
<path d="m403.52332,522.30505a67.98833,67.98833 0 1,1 -135.97663,0 67.98833,67.98833 0 1,1 135.97663,0z" fill="#fff" stroke="#000" stroke-linecap="round" stroke-linejoin="round" stroke-width="9.93104" transform="matrix(.40278,0,0,.40278,20.50318,-4.60012)"/>
<path d="m403.52332,522.30505a67.98833,67.98833 0 1,1 -135.97663,0 67.98833,67.98833 0 1,1 135.97663,0z" transform="matrix(.125,0,0,.125,58.30948,143.63218)"/>
<path d="m403.52332,522.30505a67.98833,67.98833 0 1,1 -135.97663,0 67.98833,67.98833 0 1,1 135.97663,0z" transform="matrix(.125,0,0,.125,104.89368,143.63218)"/>
<path d="m341.52933,498.12564c0,8.82956-9.66968,15.99558-16.06668,15.99558-6.89139,0-16.06668-7.16602-16.06668-15.99558s7.19787-11.07385 16.06668-11.07385 16.06668,2.24429 16.06668,11.07385z" transform="matrix(1,0,0,1,-200.97432,-237.52782)"/>
<path d="m392.75058,487.02237a39.03034,39.03034 0 0,1 -57.21558,43.90305" fill="none" stroke="#000" stroke-linecap="round" stroke-linejoin="round" stroke-width="4.2713" transform="matrix(.93748,0,0,.93548,-189.50292,-209.23225)"/>
<path d="m392.75058,487.02237a39.03034,39.03034 0 0,1 -57.21558,43.90305" fill="none" stroke="#000" stroke-linecap="round" stroke-linejoin="round" stroke-width="4.2713" transform="matrix(-.93748,0,0,.93548,438.47929,-209.23225)"/>
<g transform="matrix(1,0,0,1,-200.97432,-248.22882)">
<path d="m365.34735,505.66656c44.67355-16.60772 66.50446,3.89307 66.50446,3.89307" fill="none" stroke="#000" stroke-linecap="round" stroke-width="4"/>
<path d="m358.93973,516.80322c31.63345-8.95822 52.35147,13.88672 52.35147,13.88672" fill="none" stroke="#000" stroke-linecap="round" stroke-width="4"/>
<path d="m356.30923,528.71442c24.33774-2.57605 33.6569,19.12579 33.6569,19.12579" fill="none" stroke="#000" stroke-linecap="round" stroke-width="4"/>
</g>
<g transform="matrix(-1,0,0,1,450.57968,-248.22882)">
<path d="m365.34735,505.66656c44.67355-16.60772 66.50446,3.89307 66.50446,3.89307" fill="none" stroke="#000" stroke-linecap="round" stroke-width="4"/>
<path d="m358.93973,516.80322c31.63345-8.95822 52.35147,13.88672 52.35147,13.88672" fill="none" stroke="#000" stroke-linecap="round" stroke-width="4"/>
<path d="m356.30923,528.71442c24.33774-2.57605 33.6569,19.12579 33.6569,19.12579" fill="none" stroke="#000" stroke-linecap="round" stroke-width="4"/>
</g>
<path d="m381.49005,380.03317c2.5181-19.5152 31.47608-32.73514 35.25321-29.58752s-4.66938,33.40332-20.7742,40.91891c-9.44281,4.40662-14.47898-6.29522-14.47901-11.33139z" fill="#3a200f" fill-rule="evenodd" stroke="#000" stroke-linejoin="round" stroke-width="4" transform="matrix(1,0,0,1,-200.97432,-237.52782)"/>
<path d="m269.69867,380.03317c-2.5181-19.5152-31.47607-32.73514-35.2532-29.58752s4.66938,33.40332 20.7742,40.91891c9.44281,4.40662 14.479-6.29522 14.479-11.33139z" fill="#44240f" fill-rule="evenodd" stroke="#000" stroke-linejoin="round" stroke-width="4" transform="matrix(1,0,0,1,-200.97432,-237.52782)"/>
<path d="m409.50378,608.23914c0,21.54473-17.48559,20.77423-39.03033,20.77423s-39.03033.7705-39.03033-20.77423 17.48559-39.03034 39.03033-39.03034 39.03033,17.4856 39.03033,39.03034z" fill="#ff7f00" stroke="#000" stroke-linecap="round" stroke-linejoin="round" stroke-width="4" transform="matrix(1,0,0,1,-200.97432,-237.52782)"/>
<path d="m319.48221,608.23914c0,21.54473-17.4856,20.77423-39.03034,20.77423-11.97992,0-22.70477.23822-29.86625-3.25428-5.71781-2.78845-9.1641-7.95507-9.1641-17.51995 0-21.54474 17.48558-39.03034 39.03035-39.03034s39.03034,17.4856 39.03034,39.03034z" fill="#ff7f00" stroke="#000" stroke-linecap="round" stroke-linejoin="round" stroke-width="4" transform="matrix(1,0,0,1,-200.97432,-237.52782)"/>
<path d="m390.96875,575.03125c4.72284,6.47998 7.53125,14.46735 7.53125,23.09375 0,12.46637-5.83514,23.55859-14.90625,30.75 15.08124-.57257 25.90625-3.69373 25.90625-20.625 0-14.03174-7.40662-26.33966-18.53125-33.21875z" fill-opacity=".3137" transform="matrix(1,0,0,1,-200.97432,-237.52782)"/>
<path d="m300.46875,575.03125c4.72284,6.47998 7.53125,14.46735 7.53125,23.09375 0,12.46637-5.83514,23.55859-14.90625,30.75 15.08124-.57257 25.90625-3.69373 25.90625-20.625 0-14.03174-7.40662-26.33966-18.53125-33.21875z" fill-opacity=".3137" transform="matrix(1,0,0,1,-200.97432,-237.52782)"/>
<path d="m336.65625,588.75c-3.31253,5.73474-5.21875,12.40558-5.21875,19.5 0,17.50513 11.5527,20.26282 27.4375,20.6875-15.77979-6.578-23.80466-22.20758-22.21875-40.1875z" fill-opacity=".3137" transform="matrix(1,0,0,1,-200.97432,-237.52782)"/>
<g transform="matrix(-1,0,0,1,451.50068,-239.35482)">
<path d="m357.34171,628.69415c-3.5026-11.33136.50039-24.55133.50039-24.55133" fill="none" stroke="#000" stroke-linecap="round" stroke-width="4"/>
<path d="m375.36716,631.21228c4.29303-18.25616-.61331-32.73517-.61331-32.73517" fill="none" stroke="#000" stroke-linecap="round" stroke-width="4"/>
<path d="m393.62143,629.32373c8.81329-13.84949 1.25903-25.18091 1.25903-25.18091" fill="none" stroke="#000" stroke-linecap="round" stroke-width="4"/>
</g>
<g transform="matrix(1,0,0,1,-201.79732,-239.35482)">
<path d="m357.34171,628.69415c-3.5026-11.33136.50039-24.55133.50039-24.55133" fill="none" stroke="#000" stroke-linecap="round" stroke-width="4"/>
<path d="m375.36716,631.21228c4.29303-18.25616-.61331-32.73517-.61331-32.73517" fill="none" stroke="#000" stroke-linecap="round" stroke-width="4"/>
<path d="m393.62143,629.32373c8.81329-13.84949 1.25903-25.18091 1.25903-25.18091" fill="none" stroke="#000" stroke-linecap="round" stroke-width="4"/>
</g>
<title>imagebot_2</title>
</svg>
