<?xml version="1.0" encoding="UTF-8" standalone="no"?>
<svg viewBox="0 0 309.30038 433.41684" xmlns="http://www.w3.org/2000/svg" xmlns:xlink="http://www.w3.org/1999/xlink">
<defs>
<linearGradient id="linearGradient4098-6-1">
<stop offset="0" stop-color="#ffb142"/>
<stop offset="1" stop-color="#c87600"/>
</linearGradient>
<linearGradient gradientTransform="matrix(.80657,-.59114,.59114,.80657,-462.1004,226.95713)" gradientUnits="userSpaceOnUse" id="linearGradient4303-6" x1="529.11609" x2="558.95526" y1="537.73499" y2="254.73242">
<stop offset="0" stop-color="#363636"/>
<stop offset="1" stop-color="#757575" stop-opacity="0"/>
</linearGradient>
<linearGradient gradientUnits="userSpaceOnUse" id="linearGradient4323-7" x1="318.04229" x2="318.04223" xlink:href="#linearGradient4098-6-1" y1="1026.20017" y2="1040.28027"/>
<linearGradient gradientUnits="userSpaceOnUse" id="linearGradient4325-5" x1="318.04229" x2="318.04224" xlink:href="#linearGradient4098-6-1" y1="1026.20017" y2="1040.28027"/>
<linearGradient gradientUnits="userSpaceOnUse" id="linearGradient4327-9" x1="318.0423" x2="318.04225" xlink:href="#linearGradient4098-6-1" y1="1026.20017" y2="1040.28027"/>
<linearGradient gradientUnits="userSpaceOnUse" id="linearGradient4331-4" x1="318.04228" x2="318.04223" xlink:href="#linearGradient4098-6-1" y1="1026.20017" y2="1040.28027"/>
</defs>
<g transform="matrix(.81729,0,0,1,-101.16148,-616.54347)">
<path d="m308.04214,1024.6764a14.25,23.02381 0 0,1 -28.5,0 14.25,23.02381 0 1,1 28.5,0z" fill="url(#linearGradient4323-7)" stroke="#000" stroke-linecap="round" stroke-linejoin="round" stroke-width="5"/>
<path d="m273.54214,1024.6764a14.25,23.02381 0 0,1 -28.5,0 14.25,23.02381 0 1,1 28.5,0z" fill="url(#linearGradient4325-5)" stroke="#000" stroke-linecap="round" stroke-linejoin="round" stroke-width="5"/>
<path d="m290.54214,1024.6764a14.25,23.02381 0 0,1 -28.5,0 14.25,23.02381 0 1,1 28.5,0z" fill="url(#linearGradient4327-9)" stroke="#000" stroke-linecap="round" stroke-linejoin="round" stroke-width="5"/>
<path d="m385.04213,1024.6764a14.25,23.02381 0 0,1 -28.5,0 14.25,23.02381 0 1,1 28.5,0z" fill="url(#linearGradient4327-9)" stroke="#000" stroke-linecap="round" stroke-linejoin="round" stroke-width="5"/>
<path d="m350.54213,1024.6764a14.25,23.02381 0 0,1 -28.5,0 14.25,23.02381 0 1,1 28.5,0z" fill="url(#linearGradient4331-4)" stroke="#000" stroke-linecap="round" stroke-linejoin="round" stroke-width="5"/>
<path d="m367.54213,1024.6764a14.25,23.02381 0 0,1 -28.5,0 14.25,23.02381 0 1,1 28.5,0z" fill="url(#linearGradient4327-9)" stroke="#000" stroke-linecap="round" stroke-linejoin="round" stroke-width="5"/>
<path d="m259.29214,1001.6492c-5.8064,0-10.78031,5.6303-13,13.6875 18.97108,5.0743 39.81417,8.0342 61.71875,8.4375-.29837-12.2848-6.54288-22.125-14.21875-22.125-3.30091,0-6.3333,1.8275-8.75,4.875-2.4167-3.0475-5.44909-4.875-8.75-4.875-3.18578,0-6.12606,1.7048-8.5,4.5625-2.37394-2.8577-5.31422-4.5625-8.5-4.5625zm77,0c-7.65621,0-13.8907,9.7905-14.21875,22.0312 21.88058-.7043 42.61585-3.9835 61.4375-9.3437-2.3472-7.5156-7.15711-12.6875-12.71875-12.6875-3.30091,0-6.3333,1.8275-8.75,4.875-2.4167-3.0475-5.44909-4.875-8.75-4.875-3.18578,0-6.12606,1.7048-8.5,4.5625-2.37394-2.8577-5.31422-4.5625-8.5-4.5625z" fill-opacity=".3137"/>
<path d="m478.70051,848.58836a165.56416,165.56416 0 0,1 -331.12832,0 165.56416,165.56416 0 1,1 331.12832,0z" fill="#7a4e40" stroke="#000" stroke-linecap="round" stroke-width="5"/>
<path d="m394.97413,931.3704c-26.5-4.92357-2.24739,21.63115-6.31076,31.23273-16.06336-7.89842-9.94271,18.25002-17.20659,25.51392-13.76389-.7361-15.91234,13.14325-25.51392,17.20655-11.60159-6.43659-20.1563,6.3108-31.23272,6.3108s-17.63116-12.24739-31.23273-6.3108c-9.60158-4.0633-11.75003-17.44266-25.51392-17.20655-7.26389-7.2639-6.14323-34.91235-17.20661-25.51392-4.06336-9.60158 14.68925-38.1563-6.31075-31.23273 0-11.07643 22.24739-31.63114 6.31075-31.23273 4.06338-9.60157 24.44272-16.75002 17.20661-25.51391 14.52778-14.52778 34.59379-23.51735 56.74665-23.51735s42.21886,8.98957 56.74664,23.51735c-10.73611,5.26389 13.14323,15.91234 17.20659,25.51391-17.93664-.89841 6.31076,20.1563 6.31076,31.23273z" fill="#fff" stroke="#000" stroke-linecap="round" stroke-linejoin="round" stroke-width="5"/>
<path d="m459.41714,771.0242c1.98061,10.23246 3.03125,20.78543 3.03125,31.59375 0,3.72989-.13179,7.42509-.375,11.09375-3.67259-.18281-7.57831.019-11.75.625-35.21544,7.49865-20.17331,51.66406-29.34375,97.875-30.34233,34.32869-74.70943,55.96875-124.09375,55.96875-30.37329,0-58.83164-8.20726-83.3125-22.5-23.67921-55.44259 8.0762-115.66462-33.65625-126.0625-46.11047-8.32536-63.97048,34.45625-34.15625,98.5625 16.46098,35.39423 43.7229,52.77976 63.78125,59.53125 28.36337,22.8004 64.39183,36.4375 103.59375,36.4375 45.94954,0 87.55719-18.73944 117.5625-49 17.45353-8.71747 36.86154-24.59496 50.34375-51.15625 25.2124-49.6709 20.38473-87.07842-5.46875-97.4375-3.16986-16.13601-8.66598-31.44191-16.15625-45.53125z" fill-opacity=".3137" fill-rule="evenodd"/>
<path d="m179.7787,811.56919c48.11121,17.30003-14.16343,94.14271 37.81914,161.19179 9.60838,12.39326-57.86796,2.09077-81.72278-66.58505-23.1983-66.78576-1.13236-107.53908 43.90364-94.60674z" fill="#d66a17" fill-rule="evenodd" stroke="#000" stroke-width="5"/>
<path d="m446.22129,811.56919c-48.1112,17.30003 14.16343,94.14271-37.81914,161.19179-9.60838,12.39326 57.86796,2.09077 81.72278-66.58505 23.19831-66.78576 1.13236-107.53908-43.90364-94.60674z" fill="#d66a17" fill-rule="evenodd" stroke="#000" stroke-width="5"/>
<path d="m428.5461,802.52175c13.38868-4.60902 27.22104,7.58384 29.86518,14.17993-13.51228-3.45229-19.71964-4.4258-23.21838-1.38072 1.50673,3.37144 17.40823,6.74191 22.33732,28.87115-12.42877-8.61661-22.30354-18.57557-26.2724-14.48312 2.88158,5.03382 6.1995,14.49739 3.96357,23.88076-7.14149-9.42443-14.43874-19.37844-21.14152-19.64782" fill="#dfded5" fill-rule="evenodd" stroke="#000" stroke-linecap="round" stroke-linejoin="round" stroke-width="5"/>
<path d="m197.18559,802.52175c-13.38867-4.60902-27.22103,7.58384-29.86518,14.17993 13.51228-3.45229 19.71963-4.4258 23.21838-1.38072-1.50674,3.37144-17.40824,6.74191-22.33733,28.87115 12.42877-8.61661 22.30354-18.57557 26.27241-14.48312-2.88158,5.03382-6.19951,14.49739-3.96357,23.88076 7.14149-9.42443 14.43873-19.37844 21.14152-19.64782" fill="#dfded5" fill-rule="evenodd" stroke="#000" stroke-linecap="round" stroke-linejoin="round" stroke-width="5"/>
<path d="m461.97964,809.18045c-.41261-.0006-.83163.0205-1.25.0312 16.21208,13.06454 23.07333,43.29712 14.78125,85.34375-11.02308,55.89475-53.57658,80.00799-67.71875,81.28125 4.59211,6.52643 60.97088-8.12575 82.34375-69.65625 20.29853-58.43754 5.92075-96.95013-28.15625-97z" fill-opacity=".3137" fill-rule="evenodd"/>
<path d="m128.10464,841.36795c-3.45178,16.50581-1.29853,38.67265 7.78125,64.8125 23.85482,68.67582 91.32713,78.987 81.71875,66.59375-4.10892-5.29984-7.52039-10.67453-10.3125-16.0625-18.9515-4.54141-54.0478-24.37623-69.90625-70.03125-5.87955-16.92667-8.85389-32.18045-9.28125-45.3125zm71.28125,6.34375c-.88285,8.53607-1.85621,17.61189-2.28125,27.125 .99329-9.79063 2.07939-18.94113 2.28125-27.125z" fill-opacity=".3137" fill-rule="evenodd"/>
</g>
<g transform="matrix(.93584,-.35243,.35243,.93584,-52.40417,41.83379)">
<path d="m147.34375,20.90625c-1e-005-1.1e-005 12.33757,10.08062 16.15625,11.9375 2.70948,1.31754 8.04733,3.0341 11.3125,4.5-15.24942-1.69577-30.23588-.39383-44.03125,3.625-17.95367,4.85885-39.68272,4.73441-52.84375,14.4375-.8774.64688-1.74652,1.29775-2.59375,1.96875 6.25431-3.43051 18.70691.51941 25.78125-2.21875-13.62196,9.64764-24.45362,22.77626-30.71875,38.875-.48469,1.24543-.88417,2.45978-1.28125,3.65625-1.99159,3.11643-3.85277,6.3709-5.59375,9.78125-21.83814,42.77817-10.29086,75.04916 18.375,86.9375 .42528.17652.85263.33259 1.28125.5 6.56113,8.21302 15.68099,15.10564 26.71875,19.46875 6.47598,2.55988 11.09315,3.02229 15.96875,2.875 2.80504-7.59543 8.87482-4.60985 9.3125-.75 1.11089-.18837 2.25958-.37943 3.46875-.59375 6.62074,8.78772 21.75648,18.43858 33.375,23.03125 11.394,4.50394 23.13226,5.60167 33.75,3.84375 27.00333,6.51639 53.87235-10.12633 65.78125-53.09375 2.86459-10.33554 4.21967-20.56182 4.125-30.25 3.76015-18.55675-1.20864-36.78141-3.34375-47.09375 3.19494,4.22538 2.48093,2.89859 5,6.34375 1.78454,2.44032 4.50684,4.8819 5.78125,7.40625-1.05044-3.35667-2.35409-6.71444-3.90625-10.03125-4.70545-10.05512-11.56253-19.87037-19.6875-29.125-6.39001-9.24621-14.36463-17.70949-23.71875-24.96875 4.27938.40176 9.95553,3.7747 14.8125,8.0625-6.32877-10.72619-20.66916-21.66726-39.96875-23.125 .36149-2.22955-5.76202-11.29178-6.90625-13.9375-.064,1.76703.94436,10.11245-1.125,10.3125-9.59519-9.66028-40.04239-21.8654-55.28125-22.375zm-27.625,89.375c1.8311-.0146 3.70621.30983 5.53125,1.03125 7.30017,2.88568 10.99699,10.89678 8.28125,17.875s-10.82483,10.29193-18.125,7.40625-11.02824-10.86553-8.3125-17.84375c2.03681-5.23367 7.1317-8.42488 12.625-8.46875zm84.46875,32.46875c1.8311-.0146 3.70621.30983 5.53125,1.03125 7.30017,2.88568 11.02824,10.89678 8.3125,17.875s-10.85608,10.29193-18.15625,7.40625-11.02824-10.89678-8.3125-17.875c2.0368-5.23367 7.1317-8.39363 12.625-8.4375z" fill-rule="evenodd"/>
<path d="m137.88574,55.44516c-28.8581-11.4073-61.72697,8.9828-79.9675,44.7135-21.83815,42.77818-10.27752,75.04167 18.38832,86.93 .42541.17658.85235.33895 1.28107.50639 6.56016,8.2055 15.69215,15.11917 26.72225,19.47926 11.62431,4.59496 17.94638,3.45262 28.73386,1.5406 6.6208,8.78775 21.77939,18.42675 33.39791,23.01943 11.37183,4.49517 23.0672,5.59998 33.66865,3.85669 27.02164,6.55208 53.93179-10.09962 65.84877-53.09602 10.72632-38.701.35464-76.18361-28.50354-87.59095s-54.02399,4.09433-69.3867,41.10037c-.57282,1.37994-1.11738,2.72971-1.63815,4.07854l-.16546.032c-1.63883-2.17653-3.48536-4.26681-5.46659-6.25357 .0789-.21449.16796-.41753.24649-.6334 13.69709-37.66445 5.69879-66.27553-23.15938-77.68287z" fill="none" stroke="#7a4e40" stroke-linecap="round" stroke-width="5.93829"/>
<path d="m109.59375,114.71875c-18.50512,1.49408-34.43309,11.50495-40.71875,27.65625-9.43897,24.25387 6.43995,53.22506 35.4375,64.6875 11.62431,4.59496 17.93126,3.47453 28.71875,1.5625 6.62071,8.78772 21.78773,18.40733 33.40625,23 28.99756,11.46243 60.18603,1.09762 69.625-23.15625 7.23045-18.57897-.41121-39.93473-17.40625-54.0625 .45803,2.37483.30074,4.87128-.625,7.25-2.71574,6.97822-10.85608,10.29193-18.15625,7.40625s-11.02824-10.89678-8.3125-17.875c1.48097-3.80543 4.58916-6.50669 8.28125-7.71875-11.3748-4.33725-23.05027-5.33442-33.59375-3.46875-6.62116-8.79348-16.1257-16.21753-27.75-20.8125-2.08186-.82294-4.18569-1.49306-6.28125-2.09375 2.26001,3.56345 2.90756,7.99516 1.3125,12.09375-2.71575,6.97822-10.82483,10.29193-18.125,7.40625s-11.02824-10.86553-8.3125-17.84375c.59407-1.52649 1.45162-2.87968 2.5-4.03125z" fill="#bdb281" fill-rule="evenodd"/>
<path d="m146.96875,20.75c1e-005,1e-006 9.33757,3.17437 13.15625,5.03125 2.70949,1.31754 5.79733,2.75285 9.0625,4.21875-15.24942-1.69576-30.23589-.36258-44.03125,3.65625-19.15056,5.18276-36.63177,12.7953-50.1875,23.53125 6.25431-3.4305 13.45691-6.60559 20.53125-9.34375-13.62198,9.64765-24.42237,22.80751-30.6875,38.90625-19.09395,49.06279 30.58515,59.49554 86.09375,81.4375s95.93731,47.12528 115.03125-1.9375c8.85491-22.75306 7.34661-47.30382-2.34375-69.28125 4.85845,6.42543 10.21549,14.43989 13.9375,21.8125-4.23485-13.53258-12.8199-26.81759-23.625-39.125-6.39001-9.2462-14.36463-17.70949-23.71875-24.96875 4.27938.40175 9.95553,3.74345 14.8125,8.03125-9.48694-10.761-26.06906-20.0591-39.96875-23.125 .3615-2.22957-.54328-5.04179-1.6875-7.6875-.064,1.76703-2.05563,4.3312-4.125,4.53125-9.59519-9.66027-37.01115-15.1779-52.25-15.6875zm-27.25,89.53125c1.8311-.0146 3.70621.30983 5.53125,1.03125 7.30017,2.88568 10.99699,10.89678 8.28125,17.875s-10.82483,10.29193-18.125,7.40625-11.02824-10.86553-8.3125-17.84375c2.03681-5.23367 7.1317-8.42488 12.625-8.46875zm84.46875,32.46875c1.8311-.0146 3.70621.30983 5.53125,1.03125 7.30017,2.88568 11.02824,10.89678 8.3125,17.875s-10.85608,10.29193-18.15625,7.40625-11.02824-10.89678-8.3125-17.875c2.0368-5.23367 7.1317-8.39363 12.625-8.4375z" fill="#7a4e40" fill-rule="evenodd"/>
<path d="m121.34375,52.28125c-24.14127-.05177-48.61711,18.84377-63.4375,47.875-21.83814,42.77817-10.25959,75.04916 18.40625,86.9375 28.16511,11.69049 63.80894,3.61473 84.75-53.96875 13.69715-37.66442 5.70192-66.28017-23.15625-77.6875-5.4109-2.13887-10.99144-3.1443-16.5625-3.15625zm-1.625,58c1.8311-.0146 3.70621.30983 5.53125,1.03125 7.30017,2.88568 10.99699,10.89678 8.28125,17.875s-10.82483,10.29193-18.125,7.40625-11.02824-10.86553-8.3125-17.84375c2.03681-5.23367 7.1317-8.42488 12.625-8.46875z" fill="#f1efe5" fill-rule="evenodd"/>
<path d="m219.09375,91.125c-21.05533.08242-39.02918,15.87025-51.03125,44.78125-23.4872,56.57699-2.79093,86.93144 25.75,97.65625 29.0416,10.9228 59.28294-4.82201 72.125-51.15625 10.72632-38.701.35817-76.18642-28.5-87.59375-6.31271-2.49535-12.44826-3.71058-18.34375-3.6875zm-14.90625,51.625c1.8311-.0146 3.70621.30983 5.53125,1.03125 7.30017,2.88568 11.02824,10.89678 8.3125,17.875s-10.85608,10.29193-18.15625,7.40625-11.02824-10.89678-8.3125-17.875c2.0368-5.23367 7.1317-8.39363 12.625-8.4375z" fill="#f1efe5" fill-rule="evenodd"/>
<path d="m136.12918,201.45453c-10.98971-17.47881-5.08696-35.25286 2.69078-45.58316 4.29557-5.70516 28.1195,1.52009 27.21424,10.75751-1.44189,14.71219-6.24828,29.6435-29.90502,34.82565z" fill="#ffb20a" fill-rule="evenodd"/>
<path d="m138.02656,154.30991c-5.17722,4.87005-7.70169,14.25013-8.65485,22.18879s-2.45381,23.26074 3.17983,32.22083l.43935.71748 .82245-.19008c12.04546-2.63861 21.58534-14.63726 25.98992-21.00518s7.95059-16.10551 6.6792-23.43717c-1.55554-8.96991-21.86536-16.69417-28.4559-10.49467zm1.49214,3.01679c6.58452-5.04695 22.79675,1.43897 24.20647,9.56857 1.24474,7.17803-1.88897,14.38994-5.82415,20.07938-4.02011,5.81227-10.2107,10.53712-21.22032,13.13479-4.92492-8.21751-5.93017-15.92773-5.04958-23.26143 .8628-7.18634 2.46202-15.36264 7.88758-19.52131z" fill="#7a4e40" fill-rule="evenodd"/>
<path d="m123.09375,82.5c-14.47622.17206-22.51179,17.14052-27.5,31.4375-5.91189,16.94461 2.25968,26.75675 14.8125,31.71875s24.74437,3.19459 30.65625-13.75 8.34567-40.66961-9.25-47.625c-3.14387-1.24274-6.03797-1.81311-8.71875-1.78125zm-3.46875,25.75c2.10171-.0168 4.24899.35946 6.34375,1.1875 8.37903,3.31215 12.64833,12.52173 9.53125,20.53125s-12.43346,11.81214-20.8125,8.5-12.67959-12.4905-9.5625-20.5c2.33783-6.00714 8.19486-9.6684 14.5-9.71875z" fill="#f76b00" fill-rule="evenodd" stroke="#c7740d" stroke-linecap="round" stroke-width="2.96915"/>
<path d="m210.75,117.15625c-13.88283.40662-24.95123,16.16004-30.9375,30.0625-7.09491,16.47698.66601,26.16304 13.21875,31.125s25.18634,3.35198 32.28125-13.125 13.55826-38.64023-6.5625-46.59375c-2.74932-1.08678-5.42911-1.54405-8-1.46875zm-6.65625,23.8125c2.06789-.0165 4.18896.37278 6.25,1.1875 8.24418,3.25884 12.47317,12.3069 9.40625,20.1875s-12.25582,11.60259-20.5,8.34375-12.47317-12.3069-9.40625-20.1875c2.30018-5.91046 8.04634-9.4817 14.25-9.53125z" fill="#f76b00" fill-rule="evenodd" stroke="#c7740d" stroke-linecap="round" stroke-width="2.96915"/>
<path d="m117.40625,105.625c-6.92376.0553-13.30781,4.05973-15.875,10.65625-3.42292,8.79536 1.2676,18.89414 10.46875,22.53125s19.42082-.5484 22.84375-9.34375-1.2676-18.89414-10.46875-22.53125c-2.30029-.90928-4.66083-1.33093-6.96875-1.3125zm2.3125,4.65625c1.8311-.0146 3.70621.30983 5.53125,1.03125 7.30017,2.88568 10.99699,10.89678 8.28125,17.875s-10.82483,10.29193-18.125,7.40625-11.02824-10.86553-8.3125-17.84375c2.03681-5.23367 7.1317-8.42488 12.625-8.46875z" fill-rule="evenodd" stroke="#fff" stroke-linecap="round" stroke-width="1.90545"/>
<path d="m201.65625,138.9375c-6.92377.0553-13.30781,4.05972-15.875,10.65625-3.42292,8.79536 1.26761,18.89413 10.46875,22.53125s19.45208-.54839 22.875-9.34375-1.26761-18.89414-10.46875-22.53125c-2.30029-.90928-4.69208-1.33093-7-1.3125zm2.53125,3.8125c1.8311-.0146 3.70621.30983 5.53125,1.03125 7.30017,2.88568 11.02824,10.89678 8.3125,17.875s-10.85608,10.29193-18.15625,7.40625-11.02824-10.89678-8.3125-17.875c2.0368-5.23367 7.1317-8.39363 12.625-8.4375z" fill-rule="evenodd" stroke="#fff" stroke-linecap="round" stroke-width="1.90545"/>
<path d="m146.96875,20.75c-1e-005-1e-006 9.33756,3.17436 13.15625,5.03125 2.70947,1.31754 5.79733,2.7841 9.0625,4.25-15.24942-1.69577-30.23589-.39384-44.03125,3.625-17.95368,4.85885-34.43272,11.85941-47.59375,21.5625-.8774.64688-1.74651,1.29775-2.59375,1.96875 6.25431-3.43051 13.45691-6.60558 20.53125-9.34375-13.62196,9.64764-24.42236,22.77626-30.6875,38.875-.48468,1.24543-.88418,2.45979-1.28125,3.65625-1.99159,3.11644-3.88402,6.3709-5.625,9.78125-21.83814,42.77818-10.29085,75.04916 18.375,86.9375 .42529.17652.88388.3326 1.3125.5 6.56113,8.21303 15.681,15.10564 26.71875,19.46875 11.62432,4.59495 17.93126,3.44327 28.71875,1.53125 6.62073,8.78772 21.78773,18.43858 33.40625,23.03125 11.394,4.50392 23.10101,5.63291 33.71875,3.875 27.00333,6.51639 53.87235-10.12632 65.78125-53.09375 2.86458-10.33552 4.21967-20.59307 4.125-30.28125 3.76012-18.55676 1.27846-37.6567-6.4375-55.15625 4.85845,6.42542 10.18424,14.43989 13.90625,21.8125-4.23486-13.53258-12.8199-26.84883-23.625-39.15625-6.39001-9.2462-14.36462-17.67825-23.71875-24.9375 4.27938.40176 9.95553,3.74345 14.8125,8.03125-9.48693-10.76102-26.06905-20.0591-39.96875-23.125 .36148-2.22956-.54327-5.07303-1.6875-7.71875-.064,1.76703-2.05563,4.33121-4.125,4.53125-9.59519-9.66027-37.01115-15.14664-52.25-15.65625zm-27.25,89.53125c1.8311-.0146 3.70621.30983 5.53125,1.03125 7.30017,2.88568 10.99699,10.89678 8.28125,17.875s-10.82483,10.29193-18.125,7.40625-11.02824-10.86553-8.3125-17.84375c2.03681-5.23367 7.1317-8.42488 12.625-8.46875zm84.46875,32.46875c1.8311-.0146 3.70621.30983 5.53125,1.03125 7.30017,2.88568 11.02824,10.89678 8.3125,17.875s-10.85608,10.29193-18.15625,7.40625-11.02824-10.89678-8.3125-17.875c2.0368-5.23367 7.1317-8.39363 12.625-8.4375z" fill="url(#linearGradient4303-6)" fill-rule="evenodd"/>
</g>
<g transform="matrix(.57643,0,0,.57661,-220.8058,-230.47793)">
<path d="m734.5238,604.03975a16.38711,16.38711 0 1,1 -32.77421,0 16.38711,16.38711 0 1,1 32.77421,0z" stroke="#000" stroke-linecap="round" stroke-width="5"/>
<path d="m722.47157,605.30086a4.25,4.25 0 0,1 -8.5,0 4.25,4.25 0 1,1 8.5,0z" fill="#fff"/>
</g>
<g transform="matrix(.57643,0,0,.57661,-309.8058,-231.47793)">
<path d="m734.5238,604.03975a16.38711,16.38711 0 1,1 -32.77421,0 16.38711,16.38711 0 1,1 32.77421,0z" stroke="#000" stroke-linecap="round" stroke-width="5"/>
<path d="m722.47157,605.30086a4.25,4.25 0 0,1 -8.5,0 4.25,4.25 0 1,1 8.5,0z" fill="#fff"/>
</g>
</svg>
