<?xml version="1.0" encoding="UTF-8" standalone="no"?>
<svg viewBox="0 0 363.22729 252.70267" xmlns="http://www.w3.org/2000/svg" xmlns:xlink="http://www.w3.org/1999/xlink">
<defs>
<filter height="1.2262" id="filter3299" width="1.02685" x="-.01342" y="-.1131">
<feGaussianBlur stdDeviation="1.97377"/>
</filter>
<linearGradient id="linearGradient2996">
<stop offset="0" stop-color="#6788d5"/>
<stop offset="1" stop-color="#6788d5" stop-opacity="0"/>
</linearGradient>
<radialGradient cx="334.6929" cy="391.12094" gradientTransform="matrix(-2.170414e-6,1,-3.54843,-7.701555e-6,1722.558,56.43101)" gradientUnits="userSpaceOnUse" id="radialGradient2994" r="3.20261" xlink:href="#linearGradient2996"/>
<radialGradient cx="309.45901" cy="391.25256" gradientTransform="matrix(-1.70968,-3.31813e-5,2.413649e-5,-1.24365,838.5271,877.8428)" gradientUnits="userSpaceOnUse" id="radialGradient3002" r="3.20261" xlink:href="#linearGradient2996"/>
</defs>
<path d="m346.95456,198.54243c-.92592.02262-2.29743.15901-3.976.38061-1.47218.16444-2.84697.37763-4.27502.63793-6.26507,1.0026-14.65691,2.59047-22.32295,4.08489-11.46468,2.23494-21.94434,3.13399-42.33276,6.09517-14.29521,1.87822-28.19844,3.86069-27.5446,4.35829l-3.74852.64329c-1.94351.33553-3.48765.67889-4.69721,1.02926-.88853-2.07614-2.50154-4.53295-5.25442-5.67703-.91573-.38058-1.84641-.7116-2.76241-1.00782 2.11137.67457 3.92894,1.56871 5.09329,2.72326 .49507.4909 1.43972,2.40396 2.27234,4.15994-2.61819.85309-3.25154,1.7317-2.49004,2.57316-3.38938.09252-4.92281.14248-7.28091.64329-7.70155-.83887-47.63405-2.7814-181.93706,10.30871 140.6185-13.3668 177.20612-10.75367 180.40258-9.96563l.02633.00537-1.44883.38596c-.4134.08276-.78275.18372-1.04759.28949l-.28779.07505c-1.89818.53725-2.74649,1.71462-2.5716,3.00202-.45522.25933-.62502.54391-.54979.83628l-43.53335,5.36074-15.242,8.931-14.19931,1.64039 15.50968-1.19545 12.37127-6.7599-4.77156,3.8651-6.19441,4.05273 4.00879-.4503c0,0-.71424-1.84907 5.86807-4.4119 5.62286-2.18927 6.234-4.98013 6.234-4.98013l41.17627-5.00694c.11325.05547.25143.11145.37868.16618 .12888.35012-1.65924,1.36902-1.82641,1.91915-.09635.31712 5.7353,1.30554 6.07952,2.16038 .07128.17702 1.95017-.84933 2.11417-1.00782 1.16433.16323 2.27872.34111 2.93607.54679 .08085.07517.21039.14109.40671.20371 .5307.47811-2.98742.72648-1.25229.85236 .53987.03917 1.91293-.47753 2.56029-.84699 .47397-.27051.69087-.28873.21492-.36989 .22747-.16286.44862-.34612.65394-.54144 4.51304-.17693 7.71901-.5824 10.31063-1.18473 .952.18731 1.85049.47727.89496.96494-1.50707.76915-4.72012.6591-6.35554,1.09895s-2.93044.73785-.04214.38598c2.34675-.28591 5.28921-.60184 6.89495-1.2437-.47973.52943-1.23931,1.12917-2.49289,1.82802-5.95763,3.32124-15.70951,6.70661-19.87191,8.86667s-2.56352,1.34396 1.79662-.01609 5.27058-3.04008 15.72509-6.29351c4.68258-1.45721 9.96223-2.55547 14.57466-3.51129l11.23262,9.2741 4.10526.19298-.41369.55216c0,0 8.36954,1.20468 9.10296.80947 .57066-.30749-5.73875-1.03462-5.73874-1.03463l.16752-.18226 4.10527.19298-3.88356-.43421 5.12567-5.64487c0,0 2.8396-1.95857 7.34639-2.85728 3.84885-.7675 1.47452-1.17074-.37082-1.39915l.07236-.01072c.62281-.08327-3.81809-.82634-8.84452-1.73689 11.15452,1.55413 21.51014,2.55159 32.05734,3.55418 .32477.03087.9111.03602 1.60582.02145 .03284.0231.07877.04757.18605.06968 2.51772.51911-1.53171,9.08111-1.53171,9.08111l6.45674.4235-4.08843-.95958c0,0 3.69863-8.46126 2.72655-8.85059-.01472-.0059-.03052-.01068-.04775-.01608 .35758-.06328.44888-.13093.05728-.19835-10.88782-1.87445-21.53632-3.24264-33.02471-4.50838 .77444-.01597 1.55546-.04505 2.38716-.08042 25.08385-1.0667 48.94879-3.83829 48.94879-3.83829l20.07095-.85237c0,0-7.2525,15.05152-9.38919,18.34448-.69915,1.07748 4.6034,1.25818 4.20008-.18226-1.57246-5.61575 10.45508-18.48385 10.45508-18.48385s.55914-1.92539-4.418-1.28122c-11.5837,1.49922-20.78146,2.13357-51.72715,2.13357-11.99686,0-13.68414,1.17404-26.64069,1.74225 14.92425-.99357 18.18251-3.07362 19.80296-4.74427 .69477-.06247 1.06738-.12711 1.05759-.19835-.12348-.89808 6.82355-4.02579 19.19893-7.89638 11.91517-3.40816 24.84512-6.61419 32.18693-10.76973 1.10887-.62763.72845-.87196-.73186-.83628zm-116.91389,10.54459c-5.85107-1.8921-11.65451-2.14578-17.09722-1.73688-5.62047.42226-5.98153,2.26705-5.54382,2.46058s-1.86747-2.28725 8.37848-2.55171c3.57864-.09238 9.61756.34397 14.26256,1.82801zm33.82083,14.45793c.21137.07994.48158.17857.8807.30021l-.76349-.05361c-.08437-.06918-.13598-.13692-.13029-.19835 .0016-.01712.01198-.03139.01308-.04825zm-11.38958.38597c-.06698.12495-.11793.24557-.08497.36454-.3689.03869-.7406.08187-1.08732.12866l.10687-.04825c.37482-.15097.74687-.29752 1.06542-.44495zm-31.98972.58969c.02434.02533.05972.04969.08732.07505l-7.05682.84163 6.9695-.91668zm1.9369,1.25977c.73843.59118 1.71635,1.12863 2.94759,1.55462-.93975.04262-1.8626.15075-1.5756.35381 .30081.21282 2.39759.43517 4.35126.70762-3.8372,1.09784-8.04528-1.43441-5.78899-2.57852l.06574-.03753zm24.045.60577c-.09668.22517-.19396.47644-.30973.74514-.20784-.16659-.43731-.3271-.39737-.51999 .24694-.0727.46898-.14837.7071-.22515zm17.30299.79875c8.4438,1.52322 15.69341,2.29446 15.85427,2.27295l1.07084-.14474c-.14321.14851-.20525.25732-.20525.25732l-4.70217,2.021-4.96616,6.59372-2.7514-.30556-5.03073-3.70964-4.66708-5.70383c2.10549-.44714 3.95799-.86325 5.39768-1.28122zm-37.65307.39134c1.49027.42452 3.28801.69609 5.39933.7237-.12062.08571-.20164.16304-.27437.2305-1.73976-.19855-4.01434-.31447-5.23453-.56287-.71276-.14511-.36868-.28088.10957-.39133zm-181.16751,1.98883c-11.96973,1.13966-24.684,2.39257-38.1987,3.77397-2.11706.21639-1.19597.22771.20744.08041 13.43575-1.41019 26.07757-2.69129 37.99126-3.85438z" fill-opacity=".99177" fill-rule="evenodd" filter="url(#filter3299)" opacity=".55495" stroke="#000c00" stroke-width=".07995" transform="matrix(1.00003,0,0,.7482,-5.5641078e-3,60.51738)"/>
<g transform="translate(-101.13604,-264.90524)">
<path d="m345.36924,439.75467 21.14194,57.82943 11.81461,3.10911-10.6464-6.24947-8.4167-21.62583-12.64981-42.39057-1.24364,9.32733z" fill="#009b00" fill-opacity=".99177" fill-rule="evenodd" stroke="#000c00" stroke-width=".193"/>
<path d="m337.66589,416.93039c-5.28549,6.37367.55239,13.49695-2.24581,32.15161-2.90413,19.36092-9.56279,39.09476-11.73917,51.68665s-1.31908,7.85279 1.79003-.07544 2.48729-17.72193 9.94915-36.68749 19.58739-27.82652 19.8983-39.17477-12.36701-14.27423-17.6525-7.90056z" fill="#007000" fill-opacity=".98765" fill-rule="evenodd" stroke="#000c00" stroke-width=".293"/>
<path d="m364.64572,419.23455c14.61281,8.23914 27.98196,16.82913 42.28388,29.22562 1.76205,1.52729-3.58269,3.19683-4.97457,2.48729-16.69225-8.50928-32.95657-16.94464-53.47668-35.44384-8.74545-7.88416 1.55456-4.50821 16.16737,3.73093z" fill="#006900" fill-opacity=".99177" fill-rule="evenodd" stroke="#000c00" stroke-width=".293"/>
<path d="m321.11818,359.53966c-19.12029,22.87898 16.01168,53.44417 32.33474,50.36756 29.692-5.5964 21.75918-31.33187 23.74579-40.76827 7.74015-36.76569 29.17753-61.1131 34.70547-99.14164 2.12736-14.6349-14.07061,6.46825-27.36017,24.87287-13.31609,18.44137-27.04925,21.14194-63.42583,64.66948z" fill="#006d00" fill-opacity=".98354" fill-rule="evenodd" stroke="#000c00" stroke-width=".393"/>
<path d="m326.71458,356.43055c8.55005-1.24365 18.17648,10.25722 19.8983,3.1091 7.63237-31.68567 27.54673-50.82158 23.00741-47.25846-14.45736,11.34824-55.90923,46.04078-42.90571,44.14936z" fill="#005700" fill-opacity=".98354" fill-rule="evenodd"/>
<path d="m351.58746,339.01953c-6.37368,15.23463-7.92824,33.11202 16.16736,6.84004 9.19038-10.02048 23.15496-20.41634 32.10124-39.71795 9.05209-19.5299 15.6379-43.77897 8.20062-39.64212-8.90209,4.95162-9.74067,19.69122-44.73079,51.76643-15.90658,14.58145-8.97785,14.15515-11.73843,20.7536z" fill="#124400" fill-opacity=".98354" fill-rule="evenodd"/>
<path d="m349.13903,369.72192c-4.23488-12.44798 12.55963-18.26349 20.35781-27.25257 15.77883-18.18848 35.21013-43.38922 28.6497-29.48911-14.69206,31.12929-21.65713,59.13282-20.44257,65.83589 .45024,2.48484-13.05825,3.26456-26.11651,11.81461-6.62269,4.33629 2.6816-5.82964-2.44843-20.90882z" fill="#005300" fill-opacity=".98354" fill-rule="evenodd"/>
<path d="m310.08024,411.92753-41.44763,33.55932-7.03543,52.0782-12.68898,9.56082 14.3996-6.97583 8.06464-51.68987 39.7966-34.82202-1.0888-1.71062z" fill="#005900" fill-opacity=".98765" fill-rule="evenodd" stroke="#000c00" stroke-width=".193"/>
<path d="m309.92539,415.50362-39.6989,31.053-1.96316,36.72558-2.48729,23.62923 3.59515-2.62308c0,0-2.39807-10.80741 1.82736-25.74723 3.60954-12.76217 1.63198-29.03024 1.63198-29.03024l40.32071-32.16084-3.22585-1.84642z" fill="#007f00" fill-opacity=".99588" fill-rule="evenodd" stroke="#000c00" stroke-width=".193"/>
<path d="m359.67114,408.04176c14.14644-3.10911 14.20801-10.57098 26.73834-10.57098 30.93563,0 39.5433-3.69681 49.74575-12.43643 4.38367-3.75513 5.59639,7.46186 5.59639,7.46186s-.19148,74.99964 6.5402,107.73617c1.72668,8.39694-3.76183,7.36369-4.05291,1.08265-.88958-19.19608-7.46186-106.95335-7.46186-106.95335l-19.27648,4.97457c0,0-21.2974,16.16737-45.393,22.38558-14.35039,3.70333-22.38558-11.81461-22.38558-11.81461s.49039.21339 9.94915-1.86546z" fill="#006800" fill-rule="evenodd" stroke="#000c00" stroke-width=".193"/>
<path d="m350.34381,411.15087c1.13973,8.04024 27.96006,28.13964 26.73834,29.22562l-5.5964,4.97458c-.19559.17385-15.38276-8.50148-29.84745-25.4947-7.65018-8.98748 4.90579-35.51074 8.70551-8.7055z" fill="#006500" fill-opacity=".98765" fill-rule="evenodd" stroke="#000c00" stroke-width=".193"/>
<path d="m375.9362,439.71658c1.82801,1.15001 6.51362,3.4873 2.73983,8.86034-3.6796,5.23896-4.70299,16.67244-4.70299,16.67244l.07118,35.36032c0,0 6.9609,4.23395 6.67296,6.02642-.37007,2.30384-9.85325-4.69925-9.85325-4.69925l-1.24364-44.14935 2.85657-11.79557c0,0-.67896-8.87877 3.45934-6.27535z" fill="#006900" fill-opacity=".98765" fill-rule="evenodd" stroke="#000c00" stroke-width=".193"/>
<path d="m403.84521,451.48575c2.99386,3.02611 6.81532,52.93839 6.81532,52.93839l6.84004,2.48729-4.97457-5.5964c0,0-4.07512-49.34168-5.40461-51.61121-1.02193-1.7445-4.73965.3027-3.27618,1.78193z" fill="#080" fill-opacity=".99588" fill-rule="evenodd" stroke="#000c00" stroke-width=".193"/>
<path d="m316.94007,432.96927c.61537.41025-2.15381,1.94868-.41025,3.69224s4.87594,2.33157 6.87941,4.03961c1.61481,1.37669 1.38073.74888 1.07304,2.90269s-1.22301,5.18327-1.79871,4.95494c-2.04031-.80922 2.21769-2.4847.06388-5.86926s-7.85862-5.61772-8.67912-7.66897 2.25638-2.4615 2.87175-2.05125z" fill="#00a700" fill-opacity=".98765" fill-rule="evenodd" stroke="#000c00" stroke-width=".193"/>
<path d="m319.25272,381.30342c-7.15095,1.3991-7.68801-.02168-12.43644,10.57097-4.04184,9.01641 5.32602,48.76544 16.78919,46.63664 11.99467-2.2275 13.05826-13.83554 16.78919-31.09109 2.5987-12.01899.31092-15.23465-4.97457-21.76377-5.91421-7.30578-9.01642-5.75185-16.16737-4.35275z" fill="#005300" fill-rule="evenodd" stroke="#000c00" stroke-width=".293"/>
<path d="m322.24674,380.90551c-7.44456,3.14606-5.11382,15.5096-13.10228,23.86789-7.70261,8.05921 6.01513,30.24061 17.49923,27.70333 12.00211-2.65173 15.88325-31.57169 12.29201-31.39235-17.25281.86158-15.28694-20.77135-16.68896-20.17887z" fill="#417b2a" fill-opacity=".99588" fill-rule="evenodd" stroke="#5a5350" stroke-width=".193"/>
<path d="m332.75152,429.16205c-3.10776.84473 3.86504,1.56632 2.7446,7.84682-.7999,4.48372-4.10249,3.84222-5.33324,6.40628s-2.24864,4.3231.31542,2.27185 5.96822-4.39411 6.15374-10.17933c.14102-4.39733-3.20378-5.56576-.76422-11.53646 .50537-1.23685-1.14183,4.65416-3.1163,5.19084z" fill="#00a100" fill-opacity=".99177" fill-rule="evenodd" stroke="#000c00" stroke-width=".193"/>
<path d="m333.46228,388.01019c-1.53844,1.23075-2.33126,6.07144-.05611,6.53819 2.10159.43115 3.76901-1.57843 3.97736-3.52389 .24052-2.24586-2.38282-4.24505-3.92125-3.0143z" fill="url(#radialGradient2994)" fill-rule="evenodd" stroke="#000c00" stroke-width=".393"/>
<path d="m308.40785,389.03898c-1.53844,1.23075-2.51069,5.17429-.23554,5.64104 2.10159.43115 3.76901-1.57843 3.97736-3.52389 .24052-2.24586-2.20339-3.3479-3.74182-2.11715z" fill="url(#radialGradient3002)" fill-rule="evenodd" stroke="#000c00" stroke-width=".493"/>
<path d="m321.45281,385.38034c.10256,1.33331-8.74689-37.24083-10.62798-42.93147-7.11925-21.53711-18.46804-27.30935-23.54818-26.52615-9.99963,1.54164-5.41291,16.02264-6.02828,14.89445s-1.94868-11.89723 3.282-14.35873c5.8582-2.7568 13.03879-.39025 22.38514,15.99972 7.0768,12.41005 14.43474,51.58887 14.5373,52.92218z" fill="#8f6500" fill-opacity=".9465" fill-rule="evenodd" stroke="#000" stroke-width=".193"/>
<path d="m311.86062,386.88898c.01681-1.43423-40.28697-32.94452-209.28562,81.53286-1.26761.85866-2.19893.80293-.28138-.45852 156.68572-103.07494 202.32307-85.50643 206.58231-80.51439 .78126.91568 2.98289-.40646 2.98469-.55995z" fill="#8f6500" fill-rule="evenodd" stroke="#000" stroke-width=".0993"/>
<path d="m337.47026,417.16718c-1.51523,1.26269-9.70106,5.13742-11.9739,8.67295s-2.52537,7.07107-3.03045,11.61676 0,5.17703 1.01015,6.56599 1.13642-6.69226 1.01015-10.6066 .25254-4.41942 1.51523-6.06092 9.72271-6.31345 11.61675-9.09137 1.3673-2.3595-.14793-1.09681z" fill="#009a00" fill-rule="evenodd" stroke="#000c00" stroke-width=".093"/>
<path d="m310.90693,424.10926c-1.207,6.68417 5.37283,21.50292 8.18984,14.99553 .27166-.62754-.8867,7.13484-1.15024,5.97215-1.12953-4.98324-7.86583-10.7458-8.06089-12.59441-.33835-3.2069.49911-9.12182.04858-11.16282s1.53613-.33057.97271,2.78955z" fill="#009600" fill-rule="evenodd" stroke="#000c00" stroke-width=".193"/>
</g>
</svg>
