<?xml version="1.0" encoding="UTF-8" standalone="no"?>
<svg width="640" xmlns="http://www.w3.org/2000/svg" height="480">
 <path id="path15" fill="#7f7f7f" d="m394.07 72.544c-6.2153-3.3027 0.38113-13.8-1.6002-25.484-16.028-22.412-19.628-26.299-11.29-28.941 7.7122-1.1989 13.963 3.746 26.209 29.296 8.8302 25.021-7.9722 24.255-13.319 25.128z"/>
 <path id="path11" fill="#fcf5fd" d="m378.24 161.11c49.521-36.225 138.9-0.49374 197.41 14.342 32.163 17.364 20.724-27.434 24.539-4.382 3.347 17.023 6.2019 18.468-62.703 10.291-7.0211 15.496-121.91-35.566-195.19 31.817-63.57 38.898 14.271-41.478 35.942-52.068z"/>
 <path id="path33" fill="#5c729b" d="m388.14 71.832c9.3133-3.8518 11.674-11.449 11.49-22.185-0.73993-14.516-24.667-22.074-20.032-30.071 27.362-7.143 58.586 35.704 52.507 50.2 7.6372 0.29692 17.513-2.7689 28.411-0.47473 71.415 0 116.9 47.134 129.94 77.536 3.1853 5.9523 10.783 11.595 11.459 43.047 6.3843 5.9999 17.234 18.416 19.743 29.871 7.8505 10.323-27.699 13.364-40.202-3.939-16.641-11.115-52.259-22.085-69.7-23.114-14.237-2.8229-13.474 2.3561-25.711-0.46674-11.473 6.3507-22.944 12.702-34.417 19.052-4.5895 2.1164-9.1773 4.2343-13.767 6.3508-10.707 0.70493-21.416 1.4114-32.123 2.1163 9.1772-4.9393 18.356-9.8786 27.534-14.818h4.5895c3.4417-4.2344 11.42-21.246 14.861-25.481-30.691 0.88278-54.394 8.6275-74.452 15.482-15.822 5.5124-51.211 19.883-65.74 33.432-84.755 80.375-129.74 68.198-130.06 73.2-0.13251 8.7275-47.397 60.629-54.721 55.261-7.3239-5.3696 6.3448-32.403 4.7134-46.745-0.95335-8.6117-12.59-6.065-8.7471-15.053 2.1769-4.8678-10.86-12.967-18.391-15.715-11.16-3.6755-15.846-5.3791 0.88797-7.9829 17.203-2.2799 57.628 16.766 71.84 3.8247 102.05-94.14 38.587-129.98 210.09-203.33z"/>
 <path id="path12" fill="#cdcbd4" d="m403.13 155.96c85.036-10.885 99.568 6.2301 118.6 13.344 21.323 2.0306 40.576 18.341 75.401 13.87 5.4688-9.7198 5.5325 0.28897 2.4143 3.2882-4.6256 2.3006-12.755 3.6009-59.882-3.5977-32.409 3.9025 7.2586 12.459 18.99 15.936 15.973 5.4013 25.291 25.355 43.038 26.87 15.42 0.33655 27.575-7.4114 18.387 1.5131-15.023 13.926-46.859-16.48-54.14-18.228-5.6323-1.2654-13.385-0.43503-23.679-3.069-18.69-3.3961-33.658-8.002-56.22-12.589-9.9431-0.53027-44.575-5.0854-63.752-2.0973-19.771 1.9242-48.261 9.3848-72.594 20.349-69.166 32.297 13.808-51.354 53.432-55.59z"/>
 <path id="path8" fill="#5c749c" d="m509.61 199.29c8.0312 1.4115 22.35 4.617 30.382 6.0285 9.5128 1.1908 17.424-1.0622-3.2059 7.3701-45.936 14.421-47.538 1.1987-27.176-13.398z"/>
 <path id="path9" fill="#7f7f7f" d="m518.9 172.26c8.8073-4.3439 19.568 8.2226 41.99 11.322 5.536 0.63986 33.008 5.7602 37.633 1.6417 1.5883-1.3988 5.3966-8.4306 3.7755 3.2325-1.1547 2.68-8.6025 7.8734-53.403 0.71924-5.2193-0.97961-18.564-2.3069-29.454-9.2531-4.1197-2.5688-2.7654-0.8605-0.54205-7.6622z"/>
 <path id="path6" fill="#d6d6d6" d="m531.03 172.98c-3.214-2.9207-7.1242-3.1921-11.07-2.4492-5.4163 0.33386-4.5253 8.9048-1.0544 11.241 4.2205 2.4926 5.8679 4.1721 10.745 3.1603 6.483-1.2297 5.4506-7.614 1.3798-11.952z"/>
 <path id="path7" fill="#5c739c" d="m478.88 181.52c-12.237-0.48584-16.207 3.2246-25.002 7.1049-23.183 0.74939-25.954 21.739-35.943 23.061-6.6924 1.9401-32.553 13.759 20.793 7.0112 20.363-8.6434 61.329-25.225 40.153-37.177z"/>
 <ellipse id="ellipse13" rx="5.75" ry="4" transform="matrix(1.0658 0 0 1.3565 -15.798 -55.214)" cy="172.33" cx="510.08"/>
 <ellipse id="ellipse14" rx="4.75" ry="4" transform="matrix(.33423 0 0 .36865 285.42 172.53)" cy="23.866" cx="727.83"/>
 <ellipse id="ellipse16" rx="5.75" ry="4" transform="matrix(.76146 0 0 .41902 157.85 158.76)" cy="-75.069" cx="537.45"/>
</svg>
