<?xml version="1.0" encoding="utf-8"?>
<!-- Generator: Adobe Illustrator 17.1.0, SVG Export Plug-In . SVG Version: 6.00 Build 0)  -->
<!DOCTYPE svg PUBLIC "-//W3C//DTD SVG 1.1//EN" "http://www.w3.org/Graphics/SVG/1.1/DTD/svg11.dtd" [
	<!ENTITY ns_flows "http://ns.adobe.com/Flows/1.0/">
	<!ENTITY ns_extend "http://ns.adobe.com/Extensibility/1.0/">
	<!ENTITY ns_ai "http://ns.adobe.com/AdobeIllustrator/10.0/">
	<!ENTITY ns_graphs "http://ns.adobe.com/Graphs/1.0/">
]>
<svg version="1.1" id="Layer_1" xmlns:x="&ns_extend;" xmlns:i="&ns_ai;" xmlns:graph="&ns_graphs;"
	 xmlns="http://www.w3.org/2000/svg" xmlns:xlink="http://www.w3.org/1999/xlink" xmlns:a="http://ns.adobe.com/AdobeSVGViewerExtensions/3.0/"
	 x="0px" y="0px" viewBox="0 0 379.5 402" enable-background="new 0 0 379.5 402" xml:space="preserve">
<rect x="144.6" y="26.2" fill="#615F71" width="12" height="11.5"/>
<polygon fill="#F0877F" points="122.5,178.8 202.8,149.4 181.6,130.9 115.7,171.4 "/>
<path fill="#1E1C1E" d="M258.3,388.8c-22.6,2.6-36.9-7.8-44.5-28.5c-1.4-7.2-2.9-14.4-4.3-21.6c-0.6-3.3-3-4.1-5.8-5.3
	c-19.4-7.8-37.2-19-58-24.7c-0.7,2-1.8,5.3-3.2,8.5c-5.6,13.2-19.2,19.5-32.2,14.8c-4-1.4-9.7-3.8-13.6-5.5
	c-0.4-1.1-5.3-6.6-5.7-7.7c0.4-0.5,3-2.7,7.5,3.4c5.2,1.1,9.3,5.8,15.1,5c3.4,1.5,6.3,1,9.9-0.4c14.4-5.7,15.8-17.8,16-30.7
	c-0.1-9.3-2.4-18-6.6-26.3c-6.5-12.8-20.2-18.6-32.2-13.8c-11.9,5.6-16.7,16-15,32c0.8,11.3,6,22.7,11.3,33c0.7,1.3,0.3,3.4,1,4.7
	c-7.9-3.7-9.9-13.6-13.1-20.3c-3.6-9.3-4.9-17-5.1-25.6c0-16.8,24.6-35.5,12.2-43.2c-2.8-1.7-8.9-12.5-16.5-27.2
	c-3.9-7.6,12.1-15.2,19.1-23.5c2.3-2.8,4.4-4.4,3.4-7.7c-2.7-9.5-24.3-25.6-31.1-32.8C47.7,124.6,23.9,100.6,21.8,98
	c-7.8-9.5-8.1-29.5,4.4-47.2c9.7-13.7,28.9-25.8,47.5-31.9c17.8-5.9,42.6-8.6,61.3-5.2c21.3,4,33.1,20.6,34.5,23.3
	c3.4,10.1,9.2,14.5,12.6,24.7c-0.5,1.6,13.8,42,13.3,43.5c-14.2-34-9.9-3.3-13.8-13.8c-4.3-12.9-24.2-51.8-43.4-55.3
	c-34.7-6.4-64.9,4.3-91.6,26.4c-4.1,3.4-7.1,7.9-8.5,13.2c-2.2,7.9,0.6,15,5.5,20.6c4.3,4.9,62.9,61.5,68.9,67.7
	c8.5,9,64.5-43.8,72.6-34.5c1.4,1.6-1-1.3,12.7,9.4c3.8,2.9,5.5,3.1,3.2-5.5c1.3-0.6,0.9-0.4,2.2-0.9c3.4,6,6.8,11.9,10.2,17.9
	c1.7-0.8,1-0.5,2.7-1.3c-5.2-12.4-10.5-24.7-15.7-37.1c0.6-1,1.2-1.9,1.8-2.9c8.2,16.3,16.7,32.4,24.6,48.8
	c2.8,10.7,9.9,15.9,19.9,21.7c8.8,7,17,15.4,28,19.4c10.5,3.8,17.7,11.4,22.6,21.2c4.6,9.3,10.9,17,18,24.5c5.5,5.7,10,6.7,17.2,4.3
	c19.8-6.5,40.8,6.4,44.8,26.8c2.2,11.6,2.1,23.1-1.1,34.6c-10,11-20.7,20.5-37.2,18.6c-2.4-0.3-4.2,0.8-5.7,2.2
	c-10.4,10.4-23.5,14-37.6,14.7c-5.1,0.3-8.6,1.6-9.7,7.4C283.2,369.9,274.5,382.4,258.3,388.8z M132,247.9c-0.4-0.2-0.8-0.5-1.2-0.7
	c0.3,0.3,0.7,0.6,1,1c0.8,0.6,1.5,1.3,2.3,1.9c15.3,15.9,17.6,38.1,26.6,57.3c0.1-15.3-1.7-29.9-3.5-44.6c-0.3-2.8-1.9-4.4-4.4-5.4
	c-6.2-2.5-12.3-5.1-18.4-7.7C133.6,249.1,132.8,248.5,132,247.9z M280,210.1c-0.8-2-1.8-3.8-4.2-4.2c-0.2,0-0.7,0.5-0.7,0.7
	c0.2,2.5,2.1,3.4,3.9,4.6c2.4,4.9,6.7,7.6,13.4,11.7C289.3,215,285.7,211.5,280,210.1z M332,309.2c-3.3,0.8-6,2.5-7.9,5.3
	c-9.7,5.2-19.7,9.9-30.4,12.6c-3.4,1.3-9.9-2.1-9.5,4.6c0.4,6.6,6.1,6.5,11.2,5.2c1.3-0.3,2.4-1.2,3.6-1.9
	c10-1.3,19.2-4.4,26.2-12.1C329.1,319.2,333.3,315.5,332,309.2c0.3-0.1,0.6-0.2,0.8-0.4c0.1-0.1,0.1-0.4,0.1-0.6
	C332.5,308.5,332.3,308.8,332,309.2z M344.5,271.3c-0.3-0.1-0.7-0.2-1-0.4C343.8,271,344.2,271.2,344.5,271.3
	c0.3,11,9.4,18.8,10.5,29.5C355.9,289.3,355,278.6,344.5,271.3z M218.8,348.7c0.1,13.7,3.9,25.4,17.1,32.1
	c16.8,4.1,26.7-1,29.6-15.7c0.9-4.4,0.6-9.1,0.8-13.6c-0.3-3.2-0.2-6.5-1.1-9.5c-5.9-19.3-10.7-29.6-24.6-28.2
	c-1.8-1.7-3.7-1.3-5.8-0.6C221,318,216.5,328.1,218.8,348.7z M353.8,255.1c-7.7-5.6-14.6-3.2-23.5,2.3c6.5,1.5,10.7,2.5,15,3.5
	c3.2,3.9,6.4,7.7,9.6,11.6c7.6,13.3,6.7,27.5,4,42.3c6.5-1.4,8.7-5.9,10.8-10.3c4.4-9.4,0.2-18.7-0.6-28
	C367,267.2,363.1,259.2,353.8,255.1z M277.9,343.8c-1.6-6.5-2.6-13.1-4.8-19.4c-4.5-12.8-16.6-20.4-28.4-18.5
	c1.8,4.5,6.8,4.4,10.1,6.7c13.5,9.5,14.7,24,16.6,38.3c0,5.6-0.1,11.1-0.1,16.7C279.1,360.8,279.6,352.6,277.9,343.8z M170.1,277.1
	c-1.5-2.7-3.1-5.2-7.4-5.7c3.1,8,1.5,17.1,9,22.9c4,2.9,8.1,5.6,12,8.6c7.5,6,15.9,10.2,25,13.2c5.9,2,7-2.1,9.4-5.7
	c2.6-3.9,0.9-5.6-2.3-7.4C200.6,294.5,185.3,285.8,170.1,277.1z M143.9,30.4c3.7,2.5,7.6,4.4,12.3,4.5c0.4-4-1.5-6-3.8-7.7
	c-2.4-1.9-3.7-6.6-8.2-3.3c-10.6-9.2-23.5-5-34.9-4.2C82,21.6,56.6,30.5,34.9,48.1c-10.4,7.3-13.4,15.2-9.8,24.9
	c0.8,2,1.6,4.3,3.8,4.6c2.9,0.4,2.9-2.6,3.5-4.4c4.5-13.7,15.1-21.8,26.9-28.4C85.7,30.3,114.2,26.3,143.9,30.4z M322.1,303.3
	c11-4.4,14.7-12.9,9.5-24.3c-3.6-7.9-8.6-15.1-14-24.3c-15.7,35.2-47.5,35-78.8,38c1.9,1.9,2.6,3.2,3.3,3.2
	c15.8-0.3,26.4,8.3,35,20.3c1.8,2.5,4,3.9,7.1,3.6c12.8-1.1,24.8-4.1,34.2-13.7C319.7,305.2,320.9,304.3,322.1,303.3z M182.5,316.3
	c8.5,4.8,15.7,8.1,23.4,10.3c1.7,0.5,3.8,1.1,4.6-0.9c1.1-3-1.4-3.2-3.4-3.8C199.6,319.7,192.7,315.6,182.5,316.3z M126.3,214.2
	c1.2,10.9,8.8,14.1,16.5,19.7C141.8,222.4,135.2,218.1,126.3,214.2z M349.1,317.4c2.5-3.1,5.2-4.9,3.7-8.5c-0.3-0.6-2-1.2-2.5-0.9
	C347.1,309.8,346.9,312.6,349.1,317.4z M177.1,310c-0.7-0.4-1.6-0.9-2.4-1.4c-0.4,0.8-0.8,1.5-1.1,2.3c0.9,0.4,1.7,0.8,2.6,1.2
	C176.4,311.6,176.6,311,177.1,310z M219,290.9c3.9-2.1,7.1,3.1,11.9,1.6c-4.6-4.9-10.8-7.2-12.4-13.6c0-0.8,0-1.6,0-2.4
	c4.6,3.2,7.9,8.6,14.3,9c9.4,1.3,19,1.4,28.2-0.6c17.8-4,50.4-29.7,47-32.6c-4.6-11.8-15.4-18.5-23.2-27.6c-1.2-1.4-3.4-3.7-5-2.6
	c-0.6,0.4-0.4,3.9-0.3,4.6c0.3,9.1-1.1,13-4.5,18.8c-18.5,20.6-45.8,19.6-69.4,6c0.5-1.2,0.3-0.9,0.8-2.1c2.7,0.6,4.4,0.7,8,1.9
	c4.7,1.9,7.7,3.1,14.8,3.6c4.6,0.1,9.1,0.2,13.7,0.4c10.5-0.9,19.4-5.2,26.9-12.5c3.2-2.9,4.4-5.7,5.8-10.8c0-6.5-0.9-12.8-3.7-22
	c-2,5.6-3,8.7-4.1,11.6c-2,2.6-3.8,5-5.8,7.6c-6.8,4.7-13.9,8.5-22,10.1c-3.7,0-7.3,0-11,0c-4.9-0.9-9.8-1.9-14.8-2.8
	c-3.9-1.4-8.1-2.3-11.7-4.4c-3.2-1.9-9.3-0.5-8.9-7c2.7,0.6,5.4,1.1,8.1,2c14.9,4.9,30,7.1,45.5,3c17.5-4.6,21.8-15.4,11.8-30
	c-6.6-9.6-14.2-18.3-24.1-24.7c-5.5-4-10.6-10.5-18.1-7.6c-8.6,3.4-16.6,8.5-24.8,12.9c-9.5,3.8-19,7.6-28.5,11.4
	c-9.1,0.8-8.8,4.2-3,9.8c2.1,2.1,5.5,3.4,5.7,7.1c-5.1,3.6-6.6-4.7-11.8-3.3c2.2,3.1,8.4,9.6,10.4,12.4c-4.3,2-10.4-5.5-13.4-6.8
	c-0.9-1.1-1.9-2.4-2.7-3.5c-2.4-15-2.4-15.1,11.8-20.2c13.6-4.9,26.7-10.8,39.6-17.4c2-1,7.9-2.4,1.1-5.7c-23.9-20-28-28.2-8.4-16.2
	c5.2,6.6,11.7,11.3,18.6,15.3c1.2-1.6,0.8-1.1,2-2.7c-4.8-4.4-9.6-8.8-14.4-13.2c-21.8-21.1,9.9,11-11.4-10.6
	c-6.2-6.3-39.4,16.2-46.5,20.3c-14.3,8.3-8.9,7.2-25.2,13.9c-3.5,3.2-12.9-13.7,0,0c2.6,4.4,6.7,7.4,10.2,11.1
	c2.7,3.6,5.2,6.9,7.9,10.5c3.7,5.7,9.4,9.1,10.6,15.9c1.8,1.8,3.8,2.9,6.5,2.7c1.4,6.5,9.3,7.5,11.4,13.4c1.8,1.4,3.6,2.8,5.4,4.2
	c-0.4,2.9-0.5,3.6-0.9,6.5c-1.2,0.5-2.5,1-3.7,1.5c0,1.1,0,2.1,0,3.2c-1.9-0.9-3.6-2.4-5.9-1.6c-2.7-1.4-1.5-8-7-5.6
	c-4.5,2,3,6.3,0.2,7.7c-0.9,0.5-1.3,0.8-2.2,1.3c-0.7-0.2-1.5-0.2-2.2-0.1c-1.5-0.3-3.7-1.4-4.7-1.5c-9.5-5.3-18-11.6-22.5-22.5
	c-5.2,5.9-2.8,10,0.7,13.8c4.5,5,9.9,8.8,16.3,11c8.5,4.4,17,8.5,26.6,10l0,0c0.3,4.4,3,7.4,5.6,10.7c10.7,13.4,25.5,19.7,41.3,24.3
	c6.3,4.9,10.3,13,20.3,14.8C227.9,296.2,221.1,295.7,219,290.9z"/>
<path fill="#F0877F" d="M163.5,192.1c9.5-3.8,19-7.6,28.5-11.4c13.9,1.9,27.3-1.5,40.8-4.1c0.5,1.2,0.9,2.6,1.7,3.7
	c2.4,3.7,8.5,6,6.8,10.9c-2.2,6-8.2,0.8-12.3,2.1c-1.8,0.6-4.3-0.6-5.7,2.5c6.1,7.2,17.2,5,23.5,12.3c-13.9-1.4-27.8-2.8-41.7-4.2
	c11,7.6,23.8,8.8,35.6,13.2c2.1,0.8,5.4,1.1,4.7,4.5c-0.5,2.5-3.3,2.2-5.3,2.4C209.9,226.7,183.9,221.6,163.5,192.1z"/>
<path fill="#757888" d="M318.4,306.1c-9.4,9.6-21.4,12.5-34.2,13.7c-3.2,0.3-5.4-1.1-7.1-3.6c-8.6-12.1-19.2-20.6-35-20.3
	c-0.7,0-1.4-1.3-3.3-3.2c31.3-3,63.1-2.8,78.8-38c5.4,9.2,10.4,16.4,14,24.3c5.2,11.4,1.5,19.9-9.4,24.3c-0.7-2.8,1.6-4.4,2.6-6.6
	c1.2-2.8,3.9-6.4,0.9-8.6c-3.7-2.7-5.3,1.9-7,4.2c-3.5,4.7-8.4,7.3-13.5,9.8c-7.5,3.6-16,3.2-24.4,6c7.4,4.5,14.3,5.3,21.8,3.2
	C307.9,309.8,312.5,305.7,318.4,306.1z"/>
<path fill="#615F71" d="M186,70.4c0.2,1.3,0.3,2.6,0.5,3.9c-1.9,3.9,0,6.4,3,8.6l0-0.2c-0.2,2.4,1.1,5.2-1.6,7
	C176,61.2,171.8,36.4,186,70.4z"/>
<path fill="#DC242F" d="M275,245.5c3.4-5.8,4.2-10.7,4.5-18.8c0-0.7-0.6-5.5,0-5.9c1.6-1.1,4.1,2.5,5.3,3.9
	c7.8,9.1,18.6,15.8,23.2,27.6c-1.6,2-3.7,6.4-4.2,6.9c-19.5,21.1-44.7,24.6-71.5,23.9c-7.3-6.4-14.5-12.7-21.8-19.1
	c11.7,2,22.6,7.4,34.7,8.1C263.7,273.3,276,262.7,275,245.5z"/>
<path fill="#EFBEB0" d="M163.5,192.1c20.5,29.5,46.5,34.6,76.4,31.9c2-0.2,4.8,0.1,5.3-2.4c0.7-3.4-2.6-3.7-4.7-4.5
	c-11.8-4.4-24.5-5.6-35.6-13.2c13.9,1.4,27.8,2.8,41.7,4.2c-6.3-7.3-17.3-5.1-23.5-12.3c1.4-3.2,3.9-2,5.7-2.5
	c4.1-1.3,10.1,3.9,12.3-2.1c1.8-4.9-4.4-7.3-6.8-10.9c-0.7-1.1-1.1-2.5-1.7-3.7c0.7-0.4,1.4-0.8,2.1-1.2
	c9.9,6.4,17.5,15.1,24.1,24.7c10,14.5,5.6,25.3-11.8,30c-15.5,4.1-30.6,1.9-45.5-3c-2.6-0.9-5.4-1.3-8.1-2l-0.1,0.3
	c-2.1-3.4-5.8-4-9.1-5.2c-1.2-1.3-2.4-2.6-4.4-1.6l-0.1,0c-3.9-4.1-7.8-8.2-13.8-9.1l0.2-0.3c-0.2-3.7-3.6-5.1-5.7-7.1
	C154.7,196.4,154.3,192.9,163.5,192.1z"/>
<path fill="#B42A34" d="M115.7,171.4c21.1-1.3,52.7-40.6,64.3-23c2.7,4.1,17.7,7.6,23.8,15.4c6.7,3.3-1.9,5.5-3.9,6.5
	c-12.9,6.5-26,12.5-39.6,17.4c-14.2,5.1-14.2,5.2-11.8,20.2c-1.4,0.4-2.9,0.7-4.3,1.1c-1.2-7-9-9.8-10.7-16.5
	c8.8-2.4,17.3-5.3,27.6-11.1c-10.4-0.4-17.7-0.5-25.1-0.9c-3.7-0.2-7.6-2.5-10.5,1.8C121.5,179.4,118.3,175.7,115.7,171.4z"/>
<path fill="#B42A34" d="M275,245.5c1,17.2-11.4,29.1-29.8,27.9c-12.1-0.8-23.7-5.7-34.6-9.4c-5.7-2.7-9.4-7.9-15.2-10.6
	c-6.2-6.2-19.7-12.4-23.2-21.3c-3,0.3,5,2,5.2,1.7c9.8,3,17.1,14,27.9,17.5C229.8,264.5,255.1,265.1,275,245.5z"/>
<path fill="#615F71" d="M144.3,23.9c4.5-3.2,5.8,1.4,8.2,3.3c-2.8,1.1-5.7,2.1-8.5,3.2c-29.7-4.1-58.1-0.1-84.5,14.5
	c-11.8,6.5-22.4,14.6-26.9,28.4c-0.6,1.8-0.6,4.8-3.5,4.4c-2.2-0.3-3-2.6-3.8-4.6c-3.6-9.8-0.6-17.6,9.8-24.9c0.5,8.1,4,6.9,8.4,2.7
	C60.6,34,82.6,28.6,105.4,24.5C118.4,22.1,131.3,25,144.3,23.9z"/>
<path fill="#A3A8B4" d="M97.4,202.4c2.8,1.7,1.6,1.1,5.8,2c0.8,0.6,1.5,1.1,2.3,1.7c0.5,4.7,3.1,6.2,7.5,5c0,0,0.3,0.3,0.3,0.3
	c-0.1,1.6-0.2,3.2-0.2,4.8c-2,3.9-4.4,3.6-7.7,1.2c-32.7-24.2,0.9-2.1-14.1-10.5C88.3,205.1,78.8,190.9,97.4,202.4z"/>
<path fill="#51495D" d="M170.1,277.1c15.2,8.7,30.5,17.4,45.8,26c3.1,1.8,4.9,3.5,2.3,7.4c-2.4,3.5-3.5,7.6-9.4,5.7
	c-9.1-3-17.5-7.2-25-13.2c-3.8-3.1-8-5.8-12-8.6C171.2,288.6,170.6,282.9,170.1,277.1z"/>
<path fill="#757888" d="M97.9,221c-0.6,0.7-1.2,1.4-1.8,2.1c-3.5-0.9-7-1.7-9.8-4.2c-7.4-9.8,21.8,10.5,13.8,3.9
	C96,216.3,66.3,196.3,97.9,221z"/>
<path fill="#DC242F" d="M160.6,214.3c-2-2.8-4-5.5-6.2-8.6c5.2-1.4,6.7,6.9,11.8,3.3c0,0-0.2,0.3-0.2,0.3c4.8,6,7.2,5.7,13.8,9.1
	l0.1,0c-1.8,3,1.1,2.9,2.5,3.8c3.6,1.3,6.1,6.7,11.1,3l0.1-0.3c-0.4,6.5,5.7,5.1,8.9,7c3.5,2.1,7.7,3,11.7,4.4
	c0.1,4.9,0.2,9.9,0.3,14.8c-2.5-0.6-4.9-1.2-7.4-1.8c-14.8-9.5-28.5-20.5-42.3-31.4c-0.8-0.8-1.5-1.5-2.3-2.3
	C161.8,215.3,161.2,214.8,160.6,214.3z"/>
<path fill="#A3A8B4" d="M144.3,23.9c-12.9,1.1-25.8-1.8-38.9,0.6C82.6,28.6,60.6,34,43.3,50.8c-4.3,4.2-7.9,5.4-8.4-2.7
	C56.6,30.5,82,21.6,109.4,19.7C120.8,18.9,133.6,14.7,144.3,23.9z"/>
<path fill="#42364F" d="M131.5,247.1c6.1,2.6,15.5,6.5,21.7,9c2.5,1,5,3.9,5.3,6.7c1.7,14.6,2.4,31,2.3,46.3
	c-8.9-19.2-11.4-43.1-26.7-59L131.5,247.1z"/>
<path fill="#2F292C" d="M164.7,218.1c13.8,10.9,30.3,23.1,45.1,32.6c-0.6,0.6-1.4,1.4-2,2c-10.8-3.5-20.9-13.4-30.4-19
	c-2.2-2.4-4.2-5-8.6-5.5c2,4.1-3.6-0.5,0,0c5.7,9.3,20.4,18.8,26.6,25c0.1,1.3,3.1,7.1,3.1,8.4c-2.2,1.6-6.9-4.3-8.4-5.6
	c-7.8-6.7-15.6-13.5-23.4-20.3c-0.3-2.6-0.5-5.3-0.8-7.9c0.6-1.8,0.2-3.4-1.6-4.2c-0.4-0.2-1.4,0.9-2.1,1.4
	c-4.4-5-10.7-6.6-12.1-13.2c0,0,1-1.3,1-1.3C154.1,212.4,161,220.3,164.7,218.1z"/>
<path fill="#757888" d="M147.5,241.4c0.3-0.4,0.4-0.4,0.7-0.8c3.4,0.9,6.6,1.1,8.9-1.7c2.3-0.8,4,0.7,5.9,1.6
	c0.5,1.1,1.1,1.8,2.4,1.3l-0.1-0.1c0.2,1.4,0.8,2.3,2.4,1.9l-0.1,0c0,1.6,0.8,2.3,2.4,1.9l-0.1-0.1c-0.4,2.3,0.7,3.5,2.8,3.9
	l-0.1-0.1c0.3,1.3,1,2.1,2.4,2l-0.1-0.1c0.1,2,1.3,3.1,3.3,3.4c3.3,2.8,7.5,4.6,9.1,9.1c0.5,2.6,1.9,3.6,4.5,2.7l0,0
	c0,1.6,0.7,2.4,2.4,1.9l0,0c-0.1,1.7,0.6,2.6,2.4,1.9l0,0c-0.5,3.9,2.1,5,5.1,5.8l-0.1-0.1c0.2,1.4,0.9,2.2,2.4,1.9l0,0
	c0.3,1.3,0.5,2.6,0.8,3.9c-15.3-3.9-26.6-13.5-36.4-25.2c-1.5-1.8-1.9-6-6-3.4l0,0C160.8,244.7,150.7,247.6,147.5,241.4z"/>
<path fill="#51495D" d="M100.8,256.1c12-4.8,25.8,1,32.2,13.8c4.2,8.3,7.1,17,7.2,26.3c-2.8,0.8-6.1,0.3-8.6-1.2
	c-0.3-2.8-0.7-5.5-1-8.3c0.2-0.3,0.6-0.6,0.5-0.7c-0.2-0.5-0.6-1-0.9-1.4c-4.3-16.9-10.6-21.8-26.2-20.8
	C103,261.2,101.9,258.7,100.8,256.1z"/>
<path fill="#DC242F" d="M240.3,239.2c7.9-1.7,14.9-5.4,21.5-9.9c3.7,3.8,2.6,10.5,7.9,13.5c-7.5,7.3-16.4,11.6-26.9,12.5
	C242,250,241.1,244.6,240.3,239.2z"/>
<path fill="#B42A34" d="M178.3,254.6c-2.2-1.2-14.5-13.9-15.4-17.3c1.2-0.5,2.5-1,3.7-1.5c7.8,6.8,16.5,13.3,23.4,20.3
	c0.7,0.8,9.7,7.3,13.9,11.2c0.9,1.1,8,5,8,5c2.5,1.9,6.5,5.9,6.5,6.7c-1.4,4.1-5,5.4-7.6,4.4l0.2,0.1c-4.9-1.4-16.8-15.3-19.2-17.1
	l0,0C186.5,264.8,181.6,257.4,178.3,254.6z"/>
<path fill="#CAE4F5" d="M318.4,306.1c-5.9-0.4-10.5,3.6-15.9,5.1c-7.5,2.1-14.4,1.4-21.8-3.2c8.4-2.8,16.9-2.4,24.4-6
	c5.1-2.5,9.9-5.1,13.5-9.8c1.7-2.2,3.2-6.9,7-4.2c3,2.2,0.4,5.8-0.9,8.6c-1,2.2-3.3,3.8-2.6,6.6
	C320.9,304.3,319.7,305.2,318.4,306.1z"/>
<path fill="#A3A8B4" d="M369.1,276.5c0.8,9.3,5,18.6,0.6,28c-2.1,4.4-4.3,8.9-10.8,10.3c2.6-14.8,3.5-29-4-42.3
	c0.2-0.3,0.3-0.7,0.6-0.9c0.2-0.2,0.8-0.5,0.9-0.4C359.9,274.6,362,281.7,369.1,276.5z"/>
<path fill="#757888" d="M182.6,85.8c2.7-1.9,1.4-4.6,1.6-7c7.8,9.9,9.1,22.9,16.4,33c5.2,12.4,10.5,24.7,15.7,37.1
	c-0.9,0.5-1.8,1-2.7,1.4c-3.4-6-6.9-12-10.3-18c-3.9-8.8-7.8-17.5-11.7-26.3c-0.5-0.8-1-1.5-1.5-2.3c-0.4-1.4-3.1-5.7-3.5-7.1
	c-0.3-2.3-3.5-8.6-4.2-9.3C182.2,86.9,182.3,86.3,182.6,85.8z"/>
<path fill="#A3A8B4" d="M271.4,350.9c-1.9-14.3-3.1-28.7-16.6-38.3c-3.3-2.3-8.3-2.2-10.1-6.7c11.9-1.9,23.9,5.6,28.4,18.5
	c2.2,6.3,3.2,12.9,4.8,19.4C272.6,343.3,273.1,348.2,271.4,350.9z"/>
<path fill="#42364F" d="M131.7,295c2.5,1.4,5.8,2,8.6,1.2c-0.2,12.9-2.3,25-16.7,30.7c-3.5,1.4-6.5,1.9-9.9,0.4
	c-0.3-2-0.5-4.1-0.8-6.1C126.5,318.4,130.1,313.5,131.7,295z"/>
<path fill="#51495D" d="M271.6,355.5c-0.2,4.6,0,9.2-0.8,13.6c-2.8,14.7-12.7,19.8-29.6,15.7c-0.3-2.2-0.5-4.3-0.8-6.5
	c17.7,3,25.1-4.1,25.1-24.2C267.6,354.6,269.6,355,271.6,355.5z"/>
<path fill="#42364F" d="M266.3,351.5c-2-0.4-4-0.9-6.1-1.3c-1.1-8.4-1.6-17.1-8-23.6c-2.8-2.8-4.4-2.8-10.3-2.4
	c-2.7,1.2-5.9-1.3-8.5,1c-3.1-7.3,8.3-5.3,7.2-11.3c14-1.4,18.8,8.8,24.6,28.2C266.2,345,266,348.3,266.3,351.5z"/>
<path fill="#51495D" d="M113,321.1c0.3,2,0.5,4.1,0.8,6.1c-5.9,0.8-9.9-3.9-15.1-5c-0.7-0.7-1.4-1.3-2.1-2
	c-5.4-10.1-9.9-20.5-10.7-32.1c4.7,0.3,6.3,4.3,8.7,7.3C95.6,307.7,102.2,315.9,113,321.1z"/>
<path fill="#B42A34" d="M234.9,175.4c-0.7,0.4-1.4,0.8-2.1,1.2c-13.5,2.7-26.9,6.1-40.8,4.2c8.2-4.4,16.2-9.6,24.8-12.9
	C224.3,164.9,229.4,171.4,234.9,175.4z"/>
<path fill="#615F71" d="M95.5,160.5c16.8,11.2,27.6,27.7,39.3,44.1c-7.8-0.1-34.9-31.2-39.2-44.2L95.5,160.5z"/>
<path fill="#42364F" d="M94.6,295.5c-2.4-3.1-4-7-8.7-7.3c-1.7-16,3.1-26.4,15-32c1.1,2.5,2.1,5.1,3.2,7.6
	C90.6,271.3,93.8,283.7,94.6,295.5z"/>
<path fill="#51495D" d="M293.7,327c10.7-2.7,20.7-7.4,30.4-12.6c0.4,2.8,0.8,5.7,1.1,8.5c-7.1,7.7-16.2,10.7-26.2,12
	C296.1,333.2,294.4,330.4,293.7,327z"/>
<path fill="#F0877F" d="M232.3,283.1c26.5,0.6,56.2-4,72.8-27.7c3.5-5,3.2-2.4,4-1c0,0,0,0,0,0c-9.8,18.2-31,26.6-48.7,30.5
	c-9.2,2.1-18.8,1.9-28.3,0.6C232.3,284,232.2,284.6,232.3,283.1z"/>
<path fill="#757888" d="M369.1,276.5c-7.1,5.2-9.2-1.9-12.8-5.3c-0.1-0.1-0.6,0.2-0.9,0.4c-0.2,0.2-0.4,0.6-0.6,0.9
	c-3.2-3.9-6.4-7.7-9.6-11.6c1.2-4.3,4.8-5.1,8.5-5.8C363.1,259.2,367,267.2,369.1,276.5z"/>
<path fill="#CAE4F5" d="M162.3,253c4.1-2.6,4.5,1.6,6,3.4c9.8,11.8,21.1,21.4,36.4,25.2c2.1,0.6,4.2,1.3,6.3,1.9l-0.2-0.1
	c0.4,1.3,0.8,2.6,1.2,3.8c-0.9,0.3-1.9,0.5-2.8,0.8c-15.8-4.7-30.6-11-41.3-24.3C165.3,260.5,162.6,257.4,162.3,253z"/>
<path fill="#E96A5B" d="M125.6,182.3c2.9-4.3,6.8-2,10.5-1.8c7.3,0.5,14.7,0.6,25.1,0.9c-10.3,5.8-18.8,8.7-27.6,11.1
	C130.9,189.1,128.3,185.7,125.6,182.3z"/>
<path fill="#51495D" d="M243.8,313.8c1.1,6-13.5,4.1-10.4,11.4c-1.9,1-3.8,2.1-5.6,3.1c-5.7,6.7-7.2,12.5-6.7,20.1
	c-0.8,0.1-1.5,0.2-2.3,0.3c-2.3-20.6,2.2-30.7,16-35.4C236.9,312.6,242,312.1,243.8,313.8z"/>
<path fill="#EFBEB0" d="M214.4,251.3c-0.1-4.9-0.2-9.9-0.3-14.8c4.3,0.8,8.6,1.6,12.9,2.4c0.7,5.3,1.4,10.7,2.1,16
	C223.9,255,219.1,253.2,214.4,251.3z"/>
<path fill="#F0877F" d="M229.1,255c-0.7-5.3-1.4-10.7-2.1-16c4.4,0.1,8.8,0.2,13.2,0.3c0.8,5.4,1.7,10.7,2.5,16.1
	C238.2,255.2,233.7,255.1,229.1,255z"/>
<path fill="#A3A8B4" d="M135.7,243.1c-6.4-2.2-11.8-6-16.3-11c-3.4-3.8-5.9-8-0.7-13.8c4.5,10.9,13.1,17.2,22.5,22.5
	C139.4,241.6,136.7,240.2,135.7,243.1z"/>
<path fill="#2F292C" d="M200.5,111.8c-7.2-10.1-8.6-23.2-16.4-33c0,0,0,0.2,0,0.2c-0.1-3.2-0.4-6.3-3-8.6c-0.2-1.3-0.3-2.6-0.5-3.9
	c0.5-1.6,0.9-3.2,1.4-4.7c6.7,15.8,13.5,31.5,20.2,47.3C201.7,109.9,201.1,110.9,200.5,111.8z"/>
<path fill="#EFBEB0" d="M232.3,283.1c0.2,0.8,0.3,1.7,0.5,2.5c-6.4-0.4-9.7-5.8-14.3-9c0,0-0.2-0.4-0.2-0.4s-0.5,0-0.5,0
	c-1.1-0.7-2.3-1.3-3.4-2l0.1,0.1c-0.2-1.4-1.1-2-2.5-1.9l0.1,0.1c-0.3-1.3-0.9-2.2-2.4-1.9l0.1,0.1c-0.1-1.5-0.8-2.4-2.5-1.9
	l0.1,0.1c0-0.3,0.2-0.6,0.1-0.8c-0.2-0.4-0.6-0.8-0.8-1.2c-3.2-3-5.5-4.3-9-7.6l0,0c-1.2-0.9-2.1-1.9-2.1-1.9
	c-0.1-1.3-0.1-2.6-0.2-3.9c6.1,3.4,9.9,6.7,15.2,10.6C217.8,270.4,225.1,276.7,232.3,283.1z"/>
<path fill="#42364F" d="M224.1,352.7c0.8-0.1,1.5-0.2,2.3-0.3c3,9.3,5.6,19.4,14,26c0.3,2.2,0.5,4.3,0.8,6.5
	C228.1,378.1,224.3,366.4,224.1,352.7z"/>
<path fill="#2F292C" d="M182.3,87.5c0.6,0.7,1.3,1.4,1.9,2.1c1.2,3.2,3.9,9.2,5.8,14.3c0.5,0.8,1,1.5,1.5,2.3
	c3.9,8.8,7.8,17.5,11.7,26.3c-0.5,1.5-1,2.9-1.5,4.4c-7.5-16.2-13.8-32.5-21.3-48.7C181.5,87.9,181.2,87.7,182.3,87.5z"/>
<path fill="#757888" d="M182.5,316.3c10.2-0.7,17.1,3.3,24.6,5.6c2,0.6,4.6,0.9,3.4,3.8c-0.8,2.1-2.9,1.4-4.6,0.9
	C198.2,324.4,191,321.2,182.5,316.3z"/>
<path fill="#F0877F" d="M269.7,242.8c-5.3-3-4.2-9.6-7.9-13.5c2-2.5,3.9-4.9,5.9-7.4c2.6,3.4,5.2,6.7,7.9,10.1
	C273.8,237.8,272.9,239.9,269.7,242.8z"/>
<path fill="#CAE4F5" d="M276.7,354.9c1.8-2.7,1.3-7.6,6.5-7.1c1.7,8.8,1.2,17-6.6,23.9C276.6,366.1,276.7,360.5,276.7,354.9z"/>
<path fill="#51495D" d="M126.3,214.2c9,3.9,15.5,8.1,16.5,19.7C135.1,228.4,127.4,225.1,126.3,214.2z"/>
<path fill="#2F292C" d="M344.5,271.3c10.5,7.3,11.4,18.1,10.5,29.5C353.9,290.1,344.8,282.2,344.5,271.3L344.5,271.3z"/>
<path fill="#CAE4F5" d="M135.7,243.1c1-2.9,3.7-1.5,5.5-2.4c0.9,0.3,1.7,0.5,2.6,0.8c0.7,0.2,1.4,0.4,2.1,0.7c0.7-0.1,1.4-0.1,2.1,0
	c3.7,5.1,12.8,2.9,14.3,10.8C152.8,251.6,144.2,247.5,135.7,243.1z"/>
<path fill="#42364F" d="M293.7,327c0.7,3.4,2.4,6.1,5.3,8c-1.2,0.6-2.3,1.6-3.6,1.9c-5.1,1.3-10.8,1.4-11.2-5.2
	C283.7,325,290.3,328.3,293.7,327z"/>
<path fill="#2F292C" d="M212.1,287.3c-0.4-1.3-0.8-2.6-1.2-3.8c3.3-0.1,5.1-2.9,7.6-4.4c3.6,5.8,7.8,8.6,12.4,13.6
	c-4.8,1.5-6.1,0.2-10.1-0.8C217.5,292.1,214.2,288.8,212.1,287.3z"/>
<path fill="#51495D" d="M192.8,148.4c2.1-0.2,4.1-0.4,6.2-0.6c4.8,4.4,9.6,8.8,14.4,13.2c-0.7,0.9-1.3,1.8-2,2.7
	C204.4,159.7,198,155,192.8,148.4z"/>
<path fill="#615F71" d="M170.1,277.1c0.5,5.7,2.2,12.8,2.7,18.5c-7.5-5.8-8.5-15.3-10.1-24.2C167,272,168.6,274.4,170.1,277.1z"/>
<path fill="#A3A8B4" d="M353.8,255.1c-3.7,0.7-7.2,1.6-8.5,5.8c-4.3-1-8.6-2-15-3.5C339.2,251.9,346.1,249.5,353.8,255.1z"/>
<path fill="#A3A8B4" d="M212.1,287.3c2.1,1.5,3.1,2.2,6.9,3.7c3.1,4.2,8.8,5.3,10.5,12c-9.9-1.8-14-9.9-20.3-14.8
	C210.2,287.8,211.1,287.5,212.1,287.3z"/>
<path fill="#757888" d="M66.6,129.2c5.4,5.2,10.9,10.5,16.3,15.7c-0.7,0.9-1.4,1.8-2.1,2.6c-5.3-5.5-10.5-11-15.8-16.5
	C65.5,130.4,66.1,129.8,66.6,129.2z"/>
<path fill="#DC242F" d="M275.5,232c-2.6-3.4-5.2-6.7-7.9-10.1c1.1-3,2.1-6.1,4.2-11.9C274.6,219.2,275.5,225.5,275.5,232z"/>
<path fill="#615F71" d="M80.8,147.6c0.7-0.9,1.4-1.8,2.1-2.6c4.8,4.7,11.5,7.9,12.6,15.6l0.1-0.2C88,159.2,85.2,152.4,80.8,147.6z"
	/>
<path fill="#42364F" d="M325.2,323c-0.4-2.8-0.8-5.7-1.1-8.5c1.9-2.9,4.6-4.5,7.9-5.3l0,0C333.3,315.5,329.1,319.2,325.2,323z"/>
<path fill="#51495D" d="M280,210.1c5.7,1.4,9.3,4.9,12.4,12.7c-6.7-4.1-11-6.7-13.4-11.7C279.3,210.8,279.6,210.4,280,210.1z"/>
<path fill="#2F292C" d="M157.1,238.9c-1.8,2.2-3.4,3-6.8,2.1c0.5-2.6-5-5.3-0.2-7.7C156.1,230.2,154.3,237.5,157.1,238.9z"/>
<path fill="#2F292C" d="M349.1,317.4c-2.2-4.7-2-7.6,1.2-9.5c0.5-0.3,2.2,0.4,2.5,0.9C354.3,312.5,351.6,314.3,349.1,317.4z"/>
<path fill="#757888" d="M113,211c-4.4,1.2-7-0.3-7.5-5C109.3,205.7,111.7,207.7,113,211z"/>
<path fill="#757888" d="M177.1,310c-0.5,1.1-0.7,1.6-1,2.1c-0.9-0.4-1.7-0.8-2.6-1.2c0.4-0.8,0.8-1.5,1.1-2.3
	C175.5,309.1,176.4,309.6,177.1,310z"/>
<path fill="#F0877F" d="M306.7,258.9"/>
<path fill="#757888" d="M102.5,227.1c-2.6-0.7-16.2-6.2-17.7-8.6c0.6-0.7-1.4-8.8-0.8-9.5c2,1.4,17.9,15,19.9,16.4
	C103.5,225.9,103,226.5,102.5,227.1z"/>
<path fill="#51495D" d="M279,211.1c-1.8-1.1-3.7-2.1-3.9-4.6c0-0.2,0.5-0.8,0.7-0.7c2.4,0.4,3.3,2.3,4.2,4.2
	C279.6,210.4,279.3,210.8,279,211.1z"/>
<path fill="#2F292C" d="M144.3,209c1.4-0.4,2.9-1.5,4.3-1.9c0.8,1,2.1,2.8,3,3.9c-0.1,0.3-0.2,0.4-0.3,0.7
	C149.5,214.2,146.3,211.1,144.3,209z"/>
<path fill="#757888" d="M103.9,225.4c1.1,1.1,2.2,2.1,3.4,3.2c-2.3,1.8-3.4-0.2-4.8-1.5C103,226.5,103.5,225.9,103.9,225.4z"/>
<path fill="#757888" d="M113.1,216.1c0.1-1.6,0.2-3.2,0.2-4.8C116.1,213,114.4,214.5,113.1,216.1z"/>
<path fill="#2F292C" d="M163,237.3c1.8,1,3.1,2.3,2.5,4.6c-1.3,0.4-2-0.3-2.4-1.3C163,239.4,163,238.4,163,237.3z"/>
<path fill="#B42A34" d="M162.2,225.1c0.7-0.5,1.7-1.6,2.1-1.4c1.7,0.8,2.2,2.4,1.6,4.2C164.7,227,163.4,226,162.2,225.1z"/>
<path fill="#2F292C" d="M344.5,271.3c-0.3-0.1-0.6-0.3-1-0.4C343.8,271,344.2,271.1,344.5,271.3L344.5,271.3z"/>
<path fill="#42364F" d="M332,309.2c0.3-0.3,0.6-0.7,0.8-1c0,0.2,0,0.5-0.1,0.6C332.6,309,332.3,309.1,332,309.2L332,309.2z"/>
<path fill="#42364F" d="M134.1,250.1c-0.8-0.6-1.5-1.3-2.3-1.9l0.2-0.3c0.8,0.6,1.6,1.2,2.4,1.8
	C134.4,249.7,134.1,250.1,134.1,250.1z"/>
<path fill="#42364F" d="M131.8,248.2c-0.3-0.3-0.7-0.6-1-1c0.4,0.2,0.8,0.5,1.2,0.7C132,247.9,131.8,248.2,131.8,248.2z"/>
<path fill="#757888" d="M186.6,74.3c2.5,2.3,2.8,5.5,3,8.6C186.6,80.8,184.7,78.2,186.6,74.3z"/>
<path fill="#2F292C" d="M185.5,221.1c-1.7,0,3,6-5.3,0.7c-3.7-2.4-17.3-10.3-19.3-14.7c-1,1,0.3-3,2.7-1.3
	C166.9,208.2,182.5,218,185.5,221.1z"/>
<path fill="#1E1C1E" d="M199.5,227.8c-5,3.7-14.1-3.3-17.7-4.7c0.6-0.7,1.9-2.2,2.5-2.9C187.6,221.4,195.5,225.1,199.5,227.8z"/>
<path fill="#1E1C1E" d="M164.7,218.1c-3.7,2.2-1.5-1.5-2.3-2.3C163.2,216.6,164,217.4,164.7,218.1z"/>
<path fill="#B42A34" d="M176.8,234.8c-3.6-0.5-6.1-2.4-8-6.5c4.4,0.5,6.4,3.1,8.6,5.5C177.1,234.1,177,234.5,176.8,234.8z"/>
<path fill="#2F292C" d="M211.1,283.5c-2.1-0.6-4.2-1.3-6.3-1.9c-0.3-1.3-0.5-2.6-0.8-3.9C208.8,276.6,210.2,279.8,211.1,283.5z"/>
<path fill="#2F292C" d="M196.6,270.1c3.2,0.6,5.5,2,5.1,5.8C198.7,275.1,196.1,274,196.6,270.1z"/>
<path fill="#2F292C" d="M175.1,251.3c2.7-0.4,2.7,1.7,3.2,3.4C176.4,254.3,175.2,253.3,175.1,251.3z"/>
<path fill="#2F292C" d="M187.4,263.7c1.8,0.4,4.1,0,4.5,2.7C189.3,267.4,187.9,266.4,187.4,263.7z"/>
<path fill="#2F292C" d="M170,245.5c2.3,0.3,3.3,1.6,2.8,3.9C170.7,249,169.6,247.8,170,245.5z"/>
<path fill="#2F292C" d="M201.6,275.9c1.6-0.4,2.4,0.3,2.4,1.9C202.5,278,201.8,277.3,201.6,275.9z"/>
<path fill="#2F292C" d="M191.9,266.4c1.5-0.3,2.2,0.5,2.4,1.9C192.6,268.8,191.9,268,191.9,266.4z"/>
<path fill="#2F292C" d="M167.7,243.7c1.4-0.2,2.3,0.4,2.4,1.9C168,246.7,167.5,245.7,167.7,243.7z"/>
<path fill="#2F292C" d="M194.2,268.3c1.4-0.2,2.2,0.5,2.4,1.9C194.8,270.9,194.1,270,194.2,268.3z"/>
<path fill="#2F292C" d="M172.7,249.4c1.7-0.4,2.4,0.3,2.4,2C173.7,251.5,173,250.7,172.7,249.4z"/>
<path fill="#2F292C" d="M165.3,241.8c1.6-0.4,2.2,0.5,2.4,1.9C166.2,244.1,165.5,243.2,165.3,241.8z"/>
<path fill="#1E1C1E" d="M94.6,295.5c-0.8-11.8-4-24.2,9.5-31.7c15.7-1,21.9,3.9,26.2,20.8c0.1,0.7,0.3,1.4,0.4,2.2
	c0.3,2.8,0.7,5.5,1,8.3c-1.6,18.5-5.1,23.4-18.7,26.1C102.2,315.9,95.6,307.7,94.6,295.5z M115.7,271.3c-2.5-1.9-4.5-0.9-6.8-1.1
	c-3.4,0.6-5.7,0.5-8,5l0,0c-1.7,0.9-0.7,1.4-1.9,2.4c-1,1.9-0.4,2.9-1.1,4.7c-1,11,1,21,9.5,28.8c7.9,4.8,13.4,3.8,16.2-4.3
	c3.2-9.2,3.2-16.2-0.1-25.8c-1.2-4.4-3.3-8.2-7.9-9.8L115.7,271.3z"/>
<path fill="#42364F" d="M130.6,286.7c-0.1-0.7-0.3-1.4-0.4-2.2c0.3,0.5,0.7,0.9,0.9,1.4C131.2,286.1,130.8,286.5,130.6,286.7z"/>
<path fill="#2F292C" d="M196.5,258.4c3,2.2,21,16.4,23.3,19.7c-0.9,0.2,0.2,1.8-0.7,2c-1.5-2.4-20.8-16.2-24.3-20.7
	C194.1,258.5,196.4,259.1,196.5,258.4z"/>
<path fill="#1E1C1E" d="M212,272.3c1.4-0.1,2.2,0.5,2.5,1.9C212.6,275,211.9,274.2,212,272.3z"/>
<path fill="#1E1C1E" d="M214.3,274.2c1.1,0.7,2.3,1.3,3.4,2C215.8,276.9,214.6,276.4,214.3,274.2z"/>
<path fill="#1E1C1E" d="M204,267.3c0.9-0.2,1.8-0.4,2.6-0.6c0.3,0.4,0.6,0.7,0.8,1.2c0.1,0.2,0,0.5-0.1,0.8
	C205.8,269.3,204.9,268.4,204,267.3z"/>
<path fill="#1E1C1E" d="M209.7,270.5c1.6-0.3,2.2,0.6,2.4,1.9C210.3,273,209.6,272.2,209.7,270.5z"/>
<path fill="#1E1C1E" d="M207.3,268.6c1.7-0.4,2.3,0.4,2.5,1.9C208,271,207.3,270.3,207.3,268.6z"/>
<path fill="#615F71" d="M188.8,99.7"/>
<path fill="#615F71" d="M191.6,97.7"/>
<path fill="#615F71" d="M191.5,106.1c-0.5-0.8-1-1.5-1.5-2.3C190.5,104.6,191,105.4,191.5,106.1z"/>
<path fill="#1E1C1E" d="M235.1,374.3c-8.5-6.6-11.6-16.4-14-26c-0.5-7.6,1.2-15.7,7.7-20.9c-3.7,15.1-5.4,30.3,8.4,41.3
	c8.7,3.5,15.1,1,17.5-7.7c2.4-8.8,1.7-17.7-2.7-26c-2.7-6.7-12.5-8.8-16.4-12c4.8-4.9,14,0.7,16.8,3.5c6.5,6.5,6.9,15.2,8,23.6
	C260.2,370.3,252.8,377.4,235.1,374.3z"/>
<path fill="#DC242F" d="M237.1,368.8c-13.8-11-13.1-24.7-9.4-39.8c1.5-2.3,3.4-3.7,5.5-4.5c2.6-2.3,5.8-1.5,8.6-0.3
	c3.9,3.2,7.5,4,10,11c-0.1,4.7-0.3,8.9-0.1,13.3C252.3,361.3,249.5,365.5,237.1,368.8z"/>
<path fill="#DC242F" d="M107.4,311.2c-8.5-7.9-10.5-17.9-9.5-28.8c3.4,1.2,1.1,7.4,6,7.2c2.2-0.1,4-1.5,4.3-3.8
	c0.4-3.8,0.5-7.7-3.6-9.9c-1.2-0.6-2.7-0.6-4-0.8c4.2-6,4.9-4.3,8.3-4.8c3.3,0.5,2.6-0.5,6.8,1.1l-0.1-0.1c2.2,6.9,6.6,13,6.9,20.5
	c-2.6,5.2,1.3,13-6.5,16.2c0.9-3,1.9-6,2.5-9.1c0.4-2.3-0.9-4.1-3.1-5c-2.3-1-3.9-0.3-5.3,1.8c-3.6,5.5-1.1,10.8,6,12.3
	C114.2,311.7,110.3,310.1,107.4,311.2z"/>
<path fill="#F0877F" d="M116,307.9c7.8-3.1,3.8-11,6.5-16.2c3-3.3,0.3-7.1,1-10.6c3.6,9.6,3.9,17.3,0.1,25.8
	c-3.5,7.8-8.7,10.6-16.2,4.3C110.3,310.1,114.2,311.7,116,307.9L116,307.9z"/>
<path fill="#B42A34" d="M100.6,275.1c1.3,0.3,2.8,0.2,4,0.8c4.1,2.1,4,6.1,3.6,9.9c-0.2,2.2-2,3.7-4.3,3.8c-4.9,0.2-2.5-6-6-7.2
	c0.4-2,0.1-2.9,1.1-4.7c0.6,0.2,1.2,0.4,1.8,0.6c0-1,0.1-2,0.1-3L100.6,275.1z"/>
<path fill="#EFBEB0" d="M123.5,281.1c-0.7,3.5,2,7.3-1,10.6c-0.3-7.5-4.7-13.6-6.9-20.5C120.2,273,122.3,276.7,123.5,281.1z"/>
<path fill="#EFBEB0" d="M115.7,271.3c-2.6,1.6-4.8,0.9-6.8-1.1C111.1,270.4,113.1,269.4,115.7,271.3z"/>
<path fill="#DC242F" d="M100.9,275.2c0,1-0.1,2-0.1,3c-0.6-0.2-1.2-0.4-1.8-0.6C99.2,276.4,99.3,275.8,100.9,275.2z"/>
<path fill="#F0877F" d="M237.1,368.8c12.4-3.3,15.2-7.5,14.6-20.4c-0.2-4.4-3.1-8.9,0.1-13.3c4.5,8.3,5.2,17.1,2.7,26
	C252.2,369.8,245.8,372.2,237.1,368.8z"/>
<path fill="#B42A34" d="M116,307.9c-7-1.5-9.6-6.8-6-12.3c1.4-2.1,3-2.8,5.3-1.8c2.1,0.9,3.5,2.7,3.1,5
	C117.9,301.9,116.8,304.9,116,307.9C116,307.9,116,307.9,116,307.9z"/>
<g id="g4068_1_">
	<g id="g4016-1_1_" transform="translate(-.95303 .16759)">
		<path id="path3891-1_1_" fill="#221816" stroke="#010101" d="M169.3,88L169.3,88"/>
	</g>
</g>
<g id="g10" transform="matrix(1.25 0 0 -1.25 0 48.466)">
	<g id="g12">
		<g id="g14">
			<g id="g16">
				<g id="g22">
					
						<linearGradient id="path34_5_" gradientUnits="userSpaceOnUse" x1="-72.8319" y1="-481.7797" x2="-72.8319" y2="-479.2347" gradientTransform="matrix(-18.0575 -9.9823 9.9823 -18.0575 3590.3696 -9460.0107)">
						<stop  offset="0" style="stop-color:#3C998C"/>
						<stop  offset="0.2667" style="stop-color:#397E75"/>
						<stop  offset="0.8471" style="stop-color:#283736"/>
						<stop  offset="1" style="stop-color:#242224"/>
						<a:midPointStop  offset="0" style="stop-color:#3C998C"/>
						<a:midPointStop  offset="0.5" style="stop-color:#3C998C"/>
						<a:midPointStop  offset="0.2667" style="stop-color:#397E75"/>
						<a:midPointStop  offset="0.5" style="stop-color:#397E75"/>
						<a:midPointStop  offset="0.8471" style="stop-color:#283736"/>
						<a:midPointStop  offset="0.5" style="stop-color:#283736"/>
						<a:midPointStop  offset="1" style="stop-color:#242224"/>
					</linearGradient>
					<path id="path34" connector-curvature="0" fill="url(#path34_5_)" d="M108.3-69.8c-4.7,9.5-7.5,19.7-8.3,30.6
						c-0.4,5.5-0.3,10,0.3,13.5c-0.5-7.7,1.7-16.8,6.5-27.5c2.4-5.3,4.9-9.9,7.4-13.7c-1.2-1.2-2.5-2-4-2.6
						C109.4-69.6,108.8-69.7,108.3-69.8L108.3-69.8z"/>
				</g>
			</g>
		</g>
		<g id="g36">
			<g id="g38">
				<g id="g44">
					
						<linearGradient id="path56_5_" gradientUnits="userSpaceOnUse" x1="-114.4461" y1="-476.3493" x2="-113.1756" y2="-476.3493" gradientTransform="matrix(-9.9831 18.0571 -18.0675 -9.9643 -9644.5283 -2750.5459)">
						<stop  offset="0" style="stop-color:#242224"/>
						<stop  offset="0.1529" style="stop-color:#283736"/>
						<stop  offset="0.7333" style="stop-color:#397E75"/>
						<stop  offset="1" style="stop-color:#3C998C"/>
						<a:midPointStop  offset="0" style="stop-color:#242224"/>
						<a:midPointStop  offset="0.5" style="stop-color:#242224"/>
						<a:midPointStop  offset="0.1529" style="stop-color:#283736"/>
						<a:midPointStop  offset="0.5" style="stop-color:#283736"/>
						<a:midPointStop  offset="0.7333" style="stop-color:#397E75"/>
						<a:midPointStop  offset="0.5" style="stop-color:#397E75"/>
						<a:midPointStop  offset="1" style="stop-color:#3C998C"/>
					</linearGradient>
					<path id="path56" connector-curvature="0" fill="url(#path56_5_)" d="M109.1-69.5c-0.8-1.1-2-1.8-3.7-2.2
						c-1.3,2.9-3.1,6.1-5.3,9.5c-4.5,6.8-9,11.6-13.5,14.3c2.2-1.1,4.8-2.7,7.8-5.1C100.4-57.7,105.3-63.2,109.1-69.5L109.1-69.5z"
						/>
				</g>
			</g>
		</g>
	</g>
</g>
<g id="g10_1_" transform="matrix(1.25 0 0 -1.25 0 48.466)">
	<g id="g12_1_">
		<g id="g14_1_">
			<g id="g16_1_">
				<g id="g22_1_">
					
						<linearGradient id="path34_6_" gradientUnits="userSpaceOnUse" x1="-67.5293" y1="-481.226" x2="-67.5293" y2="-478.681" gradientTransform="matrix(-11.8475 -16.8925 16.8925 -11.8475 7338.6309 -6950.3418)">
						<stop  offset="0" style="stop-color:#3C998C"/>
						<stop  offset="0.2667" style="stop-color:#397E75"/>
						<stop  offset="0.8471" style="stop-color:#283736"/>
						<stop  offset="1" style="stop-color:#242224"/>
						<a:midPointStop  offset="0" style="stop-color:#3C998C"/>
						<a:midPointStop  offset="0.5" style="stop-color:#3C998C"/>
						<a:midPointStop  offset="0.2667" style="stop-color:#397E75"/>
						<a:midPointStop  offset="0.5" style="stop-color:#397E75"/>
						<a:midPointStop  offset="0.8471" style="stop-color:#283736"/>
						<a:midPointStop  offset="0.5" style="stop-color:#283736"/>
						<a:midPointStop  offset="1" style="stop-color:#242224"/>
					</linearGradient>
					<path id="path34_1_" connector-curvature="0" fill="url(#path34_6_)" d="M36.4-135.9C28-129.4,21-121.4,15.5-112
						c-2.7,4.7-4.6,8.8-5.7,12.3c2.9-7.1,8.9-14.4,17.9-21.9c4.5-3.7,8.8-6.7,12.7-9c-0.5-1.5-1.4-2.9-2.5-4
						C37.3-135.2,36.8-135.6,36.4-135.9L36.4-135.9z"/>
				</g>
			</g>
		</g>
		<g id="g36_1_">
			<g id="g38_1_">
				<g id="g44_1_">
					
						<linearGradient id="path56_6_" gradientUnits="userSpaceOnUse" x1="-115.0051" y1="-471.0466" x2="-113.7347" y2="-471.0466" gradientTransform="matrix(-16.893 11.8468 -11.8644 -16.8807 -7498.1396 -6727.4414)">
						<stop  offset="0" style="stop-color:#242224"/>
						<stop  offset="0.1529" style="stop-color:#283736"/>
						<stop  offset="0.7333" style="stop-color:#397E75"/>
						<stop  offset="1" style="stop-color:#3C998C"/>
						<a:midPointStop  offset="0" style="stop-color:#242224"/>
						<a:midPointStop  offset="0.5" style="stop-color:#242224"/>
						<a:midPointStop  offset="0.1529" style="stop-color:#283736"/>
						<a:midPointStop  offset="0.5" style="stop-color:#283736"/>
						<a:midPointStop  offset="0.7333" style="stop-color:#397E75"/>
						<a:midPointStop  offset="0.5" style="stop-color:#397E75"/>
						<a:midPointStop  offset="1" style="stop-color:#3C998C"/>
					</linearGradient>
					<path id="path56_1_" connector-curvature="0" fill="url(#path56_6_)" d="M37.1-135.3c-0.2-1.3-1-2.5-2.3-3.6
						c-2.5,2-5.5,4.1-9,6.2c-7,4.2-13.1,6.5-18.4,6.9c2.4,0,5.5-0.4,9.2-1.1C24-128.4,30.8-131.2,37.1-135.3L37.1-135.3z"/>
				</g>
			</g>
		</g>
	</g>
</g>
<g id="g10_2_" transform="matrix(1.25 0 0 -1.25 0 48.466)">
	<g id="g12_2_">
		<g id="g14_2_">
			<g id="g16_2_">
				<g id="g22_2_">
					
						<linearGradient id="path34_7_" gradientUnits="userSpaceOnUse" x1="-84.3189" y1="-474.5779" x2="-84.3189" y2="-472.0329" gradientTransform="matrix(-14.2986 -14.8752 14.8752 -14.2986 5893.5146 -8118.7241)">
						<stop  offset="0" style="stop-color:#3C998C"/>
						<stop  offset="0.2667" style="stop-color:#397E75"/>
						<stop  offset="0.8471" style="stop-color:#283736"/>
						<stop  offset="1" style="stop-color:#242224"/>
						<a:midPointStop  offset="0" style="stop-color:#3C998C"/>
						<a:midPointStop  offset="0.5" style="stop-color:#3C998C"/>
						<a:midPointStop  offset="0.2667" style="stop-color:#397E75"/>
						<a:midPointStop  offset="0.5" style="stop-color:#397E75"/>
						<a:midPointStop  offset="0.8471" style="stop-color:#283736"/>
						<a:midPointStop  offset="0.5" style="stop-color:#283736"/>
						<a:midPointStop  offset="1" style="stop-color:#242224"/>
					</linearGradient>
					<path id="path34_2_" connector-curvature="0" fill="url(#path34_7_)" d="M62-110c-7.3,7.7-13,16.6-17,26.8
						c-2,5.1-3.2,9.4-3.8,13c1.8-7.5,6.6-15.6,14.3-24.3c3.9-4.4,7.6-8,11.1-10.9c-0.8-1.4-1.8-2.7-3-3.6
						C63-109.5,62.5-109.9,62-110L62-110z"/>
				</g>
			</g>
		</g>
		<g id="g36_2_">
			<g id="g38_2_">
				<g id="g44_2_">
					
						<linearGradient id="path56_7_" gradientUnits="userSpaceOnUse" x1="-121.6365" y1="-487.836" x2="-120.366" y2="-487.836" gradientTransform="matrix(-14.8758 14.2979 -14.3134 -14.8609 -8733.4619 -5622.5293)">
						<stop  offset="0" style="stop-color:#242224"/>
						<stop  offset="0.1529" style="stop-color:#283736"/>
						<stop  offset="0.7333" style="stop-color:#397E75"/>
						<stop  offset="1" style="stop-color:#3C998C"/>
						<a:midPointStop  offset="0" style="stop-color:#242224"/>
						<a:midPointStop  offset="0.5" style="stop-color:#242224"/>
						<a:midPointStop  offset="0.1529" style="stop-color:#283736"/>
						<a:midPointStop  offset="0.5" style="stop-color:#283736"/>
						<a:midPointStop  offset="0.7333" style="stop-color:#397E75"/>
						<a:midPointStop  offset="0.5" style="stop-color:#397E75"/>
						<a:midPointStop  offset="1" style="stop-color:#3C998C"/>
					</linearGradient>
					<path id="path56_2_" connector-curvature="0" fill="url(#path56_7_)" d="M62.8-109.6c-0.4-1.3-1.4-2.3-2.9-3.2
						c-2.1,2.4-4.8,4.9-7.9,7.5c-6.3,5.2-12,8.4-17.1,9.7c2.4-0.4,5.4-1.2,8.9-2.5C50.9-100.8,57.2-104.6,62.8-109.6L62.8-109.6z"/>
				</g>
			</g>
		</g>
	</g>
</g>
<g id="g10_3_" transform="matrix(1.25 0 0 -1.25 0 48.466)">
	<g id="g12_3_">
		<g id="g14_3_">
			<g id="g16_3_">
				<g id="g22_3_">
					
						<linearGradient id="path34_8_" gradientUnits="userSpaceOnUse" x1="-69.524" y1="-478.7952" x2="-69.524" y2="-476.2502" gradientTransform="matrix(-17.7044 -10.5961 10.5961 -17.7044 3870.9407 -9306.8398)">
						<stop  offset="0" style="stop-color:#3C998C"/>
						<stop  offset="0.2667" style="stop-color:#397E75"/>
						<stop  offset="0.8471" style="stop-color:#283736"/>
						<stop  offset="1" style="stop-color:#242224"/>
						<a:midPointStop  offset="0" style="stop-color:#3C998C"/>
						<a:midPointStop  offset="0.5" style="stop-color:#3C998C"/>
						<a:midPointStop  offset="0.2667" style="stop-color:#397E75"/>
						<a:midPointStop  offset="0.5" style="stop-color:#397E75"/>
						<a:midPointStop  offset="0.8471" style="stop-color:#283736"/>
						<a:midPointStop  offset="0.5" style="stop-color:#283736"/>
						<a:midPointStop  offset="1" style="stop-color:#242224"/>
					</linearGradient>
					<path id="path34_3_" connector-curvature="0" fill="url(#path34_8_)" d="M41.7-129.5c-5,9.3-8.1,19.5-9.3,30.3
						c-0.6,5.4-0.6,10-0.2,13.5c-0.2-7.7,2.3-16.8,7.4-27.2c2.6-5.3,5.2-9.7,7.9-13.4c-1.1-1.2-2.4-2.1-3.9-2.7
						C42.9-129.3,42.2-129.5,41.7-129.5L41.7-129.5z"/>
				</g>
			</g>
		</g>
		<g id="g36_3_">
			<g id="g38_3_">
				<g id="g44_3_">
					
						<linearGradient id="path56_8_" gradientUnits="userSpaceOnUse" x1="-117.4339" y1="-473.0413" x2="-116.1635" y2="-473.0413" gradientTransform="matrix(-10.5968 17.7039 -17.715 -10.5784 -9586.3867 -3055.457)">
						<stop  offset="0" style="stop-color:#242224"/>
						<stop  offset="0.1529" style="stop-color:#283736"/>
						<stop  offset="0.7333" style="stop-color:#397E75"/>
						<stop  offset="1" style="stop-color:#3C998C"/>
						<a:midPointStop  offset="0" style="stop-color:#242224"/>
						<a:midPointStop  offset="0.5" style="stop-color:#242224"/>
						<a:midPointStop  offset="0.1529" style="stop-color:#283736"/>
						<a:midPointStop  offset="0.5" style="stop-color:#283736"/>
						<a:midPointStop  offset="0.7333" style="stop-color:#397E75"/>
						<a:midPointStop  offset="0.5" style="stop-color:#397E75"/>
						<a:midPointStop  offset="1" style="stop-color:#3C998C"/>
					</linearGradient>
					<path id="path56_3_" connector-curvature="0" fill="url(#path56_8_)" d="M42.6-129.2c-0.8-1.1-2-1.9-3.6-2.3
						c-1.4,2.8-3.3,5.9-5.7,9.3c-4.7,6.7-9.4,11.3-14,13.8c2.2-1,4.9-2.6,8-4.8C33.4-117.7,38.5-123,42.6-129.2L42.6-129.2z"/>
				</g>
			</g>
		</g>
	</g>
</g>
<g id="g10_8_" transform="matrix(1.25 0 0 -1.25 0 32.345)">
	<g id="g12_8_">
		<g id="g14_8_">
			<g id="g16_8_">
				<g id="g22_8_">
					
						<linearGradient id="path36_4_" gradientUnits="userSpaceOnUse" x1="-109.1461" y1="-497.3209" x2="-107.6315" y2="-497.3209" gradientTransform="matrix(-22.1878 21.53 -21.5531 -22.1655 -13043.5137 -8772.666)">
						<stop  offset="0" style="stop-color:#242224"/>
						<stop  offset="0.1529" style="stop-color:#333729"/>
						<stop  offset="0.7255" style="stop-color:#637E38"/>
						<stop  offset="0.9922" style="stop-color:#769A3E"/>
						<stop  offset="1" style="stop-color:#769A3E"/>
						<a:midPointStop  offset="0" style="stop-color:#242224"/>
						<a:midPointStop  offset="0.5" style="stop-color:#242224"/>
						<a:midPointStop  offset="0.1529" style="stop-color:#333729"/>
						<a:midPointStop  offset="0.5" style="stop-color:#333729"/>
						<a:midPointStop  offset="0.7255" style="stop-color:#637E38"/>
						<a:midPointStop  offset="0.5" style="stop-color:#637E38"/>
						<a:midPointStop  offset="0.9922" style="stop-color:#769A3E"/>
						<a:midPointStop  offset="0.5" style="stop-color:#769A3E"/>
						<a:midPointStop  offset="1" style="stop-color:#769A3E"/>
					</linearGradient>
					<path id="path36_3_" connector-curvature="0" fill="url(#path36_4_)" d="M97.5-90.1c-0.2-0.5-0.5-1.1-0.9-1.7
						c-0.9-1.2-1.9-1.9-3.1-2.1c-2.4,2.8-5.4,5.7-9.1,8.5c-7.3,5.7-14,8.5-20.3,8.4c2.3,0.7,5.3,0.7,9.2-0.1
						C81.2-78.6,89.2-82.9,97.5-90.1L97.5-90.1z"/>
				</g>
			</g>
		</g>
		<g id="g38_8_">
			<g id="g40_3_">
				<g id="g46_3_">
					
						<linearGradient id="path58_4_" gradientUnits="userSpaceOnUse" x1="-109.2104" y1="-497.3941" x2="-107.1233" y2="-497.3941" gradientTransform="matrix(-22.1876 21.5303 -21.5531 -22.1655 -13043.4912 -8772.6426)">
						<stop  offset="0" style="stop-color:#242224"/>
						<stop  offset="0.1804" style="stop-color:#38323D"/>
						<stop  offset="0.7412" style="stop-color:#726384"/>
						<stop  offset="1" style="stop-color:#8776A0"/>
						<a:midPointStop  offset="0" style="stop-color:#242224"/>
						<a:midPointStop  offset="0.5" style="stop-color:#242224"/>
						<a:midPointStop  offset="0.1804" style="stop-color:#38323D"/>
						<a:midPointStop  offset="0.5" style="stop-color:#38323D"/>
						<a:midPointStop  offset="0.7412" style="stop-color:#726384"/>
						<a:midPointStop  offset="0.5" style="stop-color:#726384"/>
						<a:midPointStop  offset="1" style="stop-color:#8776A0"/>
					</linearGradient>
					<path id="path58_3_" connector-curvature="0" fill="url(#path58_4_)" d="M99.5-87.6c0-0.4-0.1-0.8-0.3-1.3
						c-0.5-1-1.4-1.9-2.7-2.7C92-87,87-82.4,81.5-78C70.3-69.3,61.8-65.6,56-67.2c2.1,1.2,5.4,1.3,10.1,0.3
						C75.4-69,86.5-75.9,99.5-87.6L99.5-87.6z"/>
				</g>
			</g>
		</g>
	</g>
</g>
<g id="g10_4_" transform="matrix(1.25 0 0 -1.25 0 48.466)">
	<g id="g12_4_">
		<g id="g14_4_">
			<g id="g16_4_">
				<g id="g22_4_">
					
						<linearGradient id="path34_9_" gradientUnits="userSpaceOnUse" x1="-68.7919" y1="-475.7836" x2="-68.7919" y2="-473.2386" gradientTransform="matrix(-10.3493 -17.8498 17.8498 -10.3493 7807.5522 -6293.8906)">
						<stop  offset="0" style="stop-color:#3C998C"/>
						<stop  offset="0.2667" style="stop-color:#397E75"/>
						<stop  offset="0.8471" style="stop-color:#283736"/>
						<stop  offset="1" style="stop-color:#242224"/>
						<a:midPointStop  offset="0" style="stop-color:#3C998C"/>
						<a:midPointStop  offset="0.5" style="stop-color:#3C998C"/>
						<a:midPointStop  offset="0.2667" style="stop-color:#397E75"/>
						<a:midPointStop  offset="0.5" style="stop-color:#397E75"/>
						<a:midPointStop  offset="0.8471" style="stop-color:#283736"/>
						<a:midPointStop  offset="0.5" style="stop-color:#283736"/>
						<a:midPointStop  offset="1" style="stop-color:#242224"/>
					</linearGradient>
					<path id="path34_4_" connector-curvature="0" fill="url(#path34_9_)" d="M56-167.1c-8.9,5.7-16.6,13.1-22.8,22
						c-3.1,4.5-5.4,8.4-6.7,11.7c3.5-6.8,10.1-13.6,19.7-20.2c4.8-3.3,9.3-6,13.4-7.9c-0.4-1.6-1.1-3-2.1-4.2
						C56.9-166.4,56.4-166.8,56-167.1L56-167.1z"/>
				</g>
			</g>
		</g>
		<g id="g36_4_">
			<g id="g38_4_">
				<g id="g44_4_">
					
						<linearGradient id="path56_9_" gradientUnits="userSpaceOnUse" x1="-120.4463" y1="-472.3091" x2="-119.1758" y2="-472.3091" gradientTransform="matrix(-17.8502 10.3485 -10.3671 -17.8394 -6993.3262 -7349.0859)">
						<stop  offset="0" style="stop-color:#242224"/>
						<stop  offset="0.1529" style="stop-color:#283736"/>
						<stop  offset="0.7333" style="stop-color:#397E75"/>
						<stop  offset="1" style="stop-color:#3C998C"/>
						<a:midPointStop  offset="0" style="stop-color:#242224"/>
						<a:midPointStop  offset="0.5" style="stop-color:#242224"/>
						<a:midPointStop  offset="0.1529" style="stop-color:#283736"/>
						<a:midPointStop  offset="0.5" style="stop-color:#283736"/>
						<a:midPointStop  offset="0.7333" style="stop-color:#397E75"/>
						<a:midPointStop  offset="0.5" style="stop-color:#397E75"/>
						<a:midPointStop  offset="1" style="stop-color:#3C998C"/>
					</linearGradient>
					<path id="path56_4_" connector-curvature="0" fill="url(#path56_9_)" d="M56.6-166.5c-0.1-1.3-0.8-2.6-2-3.8
						c-2.6,1.8-5.8,3.6-9.4,5.4c-7.3,3.6-13.7,5.3-18.9,5.3c2.4,0.2,5.5,0.1,9.3-0.3C43-160.8,50-163,56.6-166.5L56.6-166.5z"/>
				</g>
			</g>
		</g>
	</g>
</g>
<g id="g10_5_" transform="matrix(1.25 0 0 -1.25 0 32.345)">
	<g id="g12_5_">
		<g id="g14_5_">
			<g id="g16_5_">
				<g id="g22_5_">
					
						<linearGradient id="path36_5_" gradientUnits="userSpaceOnUse" x1="-107.1113" y1="-499.6853" x2="-105.5968" y2="-499.6853" gradientTransform="matrix(5.6038 30.4046 -30.3988 5.6354 -14485.6074 5982.9189)">
						<stop  offset="0" style="stop-color:#242224"/>
						<stop  offset="0.1529" style="stop-color:#333729"/>
						<stop  offset="0.7255" style="stop-color:#637E38"/>
						<stop  offset="0.9922" style="stop-color:#769A3E"/>
						<stop  offset="1" style="stop-color:#769A3E"/>
						<a:midPointStop  offset="0" style="stop-color:#242224"/>
						<a:midPointStop  offset="0.5" style="stop-color:#242224"/>
						<a:midPointStop  offset="0.1529" style="stop-color:#333729"/>
						<a:midPointStop  offset="0.5" style="stop-color:#333729"/>
						<a:midPointStop  offset="0.7255" style="stop-color:#637E38"/>
						<a:midPointStop  offset="0.5" style="stop-color:#637E38"/>
						<a:midPointStop  offset="0.9922" style="stop-color:#769A3E"/>
						<a:midPointStop  offset="0.5" style="stop-color:#769A3E"/>
						<a:midPointStop  offset="1" style="stop-color:#769A3E"/>
					</linearGradient>
					<path id="path36" connector-curvature="0" fill="url(#path36_5_)" d="M111.9-85.1c-0.6-0.1-1.2-0.2-1.9-0.2
						c-1.4,0.1-2.6,0.5-3.5,1.4c1,3.6,1.7,7.6,2,12.2c0.7,9.2-0.7,16.4-4.3,21.6c1.8-1.5,3.5-4.1,5.1-7.7
						C112.4-65.1,113.2-74.2,111.9-85.1L111.9-85.1z"/>
				</g>
			</g>
		</g>
		<g id="g38_5_">
			<g id="g40">
				<g id="g46">
					
						<linearGradient id="path58_5_" gradientUnits="userSpaceOnUse" x1="-107.1757" y1="-499.7585" x2="-105.0886" y2="-499.7585" gradientTransform="matrix(5.6041 30.4045 -30.3988 5.6354 -14485.5762 5982.9136)">
						<stop  offset="0" style="stop-color:#242224"/>
						<stop  offset="0.1804" style="stop-color:#38323D"/>
						<stop  offset="0.7412" style="stop-color:#726384"/>
						<stop  offset="1" style="stop-color:#8776A0"/>
						<a:midPointStop  offset="0" style="stop-color:#242224"/>
						<a:midPointStop  offset="0.5" style="stop-color:#242224"/>
						<a:midPointStop  offset="0.1804" style="stop-color:#38323D"/>
						<a:midPointStop  offset="0.5" style="stop-color:#38323D"/>
						<a:midPointStop  offset="0.7412" style="stop-color:#726384"/>
						<a:midPointStop  offset="0.5" style="stop-color:#726384"/>
						<a:midPointStop  offset="1" style="stop-color:#8776A0"/>
					</linearGradient>
					<path id="path58" connector-curvature="0" fill="url(#path58_5_)" d="M115-85.3c-0.3-0.2-0.7-0.4-1.3-0.5
						c-1.1-0.2-2.4,0.1-3.8,0.8c1.5,6.3,2.5,13,3,20c1.1,14.2-0.6,23.2-5.1,27.2c2.2-1,4.1-3.8,5.8-8.2
						C117.1-55,117.6-68.1,115-85.3L115-85.3z"/>
				</g>
			</g>
		</g>
	</g>
</g>
<g id="g10_6_" transform="matrix(1.25 0 0 -1.25 0 32.345)">
	<g id="g12_6_">
		<g id="g14_6_">
			<g id="g16_6_">
				<g id="g22_6_">
					
						<linearGradient id="path36_6_" gradientUnits="userSpaceOnUse" x1="-109.362" y1="-498.0475" x2="-107.8474" y2="-498.0475" gradientTransform="matrix(5.6038 30.4046 -30.3988 5.6354 -14485.6074 5982.9189)">
						<stop  offset="0" style="stop-color:#242224"/>
						<stop  offset="0.1529" style="stop-color:#333729"/>
						<stop  offset="0.7255" style="stop-color:#637E38"/>
						<stop  offset="0.9922" style="stop-color:#769A3E"/>
						<stop  offset="1" style="stop-color:#769A3E"/>
						<a:midPointStop  offset="0" style="stop-color:#242224"/>
						<a:midPointStop  offset="0.5" style="stop-color:#242224"/>
						<a:midPointStop  offset="0.1529" style="stop-color:#333729"/>
						<a:midPointStop  offset="0.5" style="stop-color:#333729"/>
						<a:midPointStop  offset="0.7255" style="stop-color:#637E38"/>
						<a:midPointStop  offset="0.5" style="stop-color:#637E38"/>
						<a:midPointStop  offset="0.9922" style="stop-color:#769A3E"/>
						<a:midPointStop  offset="0.5" style="stop-color:#769A3E"/>
						<a:midPointStop  offset="1" style="stop-color:#769A3E"/>
					</linearGradient>
					<path id="path36_1_" connector-curvature="0" fill="url(#path36_6_)" d="M49.5-144.3c-0.6-0.1-1.2-0.2-1.9-0.2
						c-1.4,0.1-2.6,0.5-3.5,1.4c1,3.6,1.7,7.6,2,12.2c0.7,9.2-0.7,16.4-4.3,21.6c1.8-1.5,3.5-4.1,5.1-7.7
						C50-124.3,50.8-133.4,49.5-144.3L49.5-144.3z"/>
				</g>
			</g>
		</g>
		<g id="g38_6_">
			<g id="g40_1_">
				<g id="g46_1_">
					
						<linearGradient id="path58_6_" gradientUnits="userSpaceOnUse" x1="-109.4263" y1="-498.1208" x2="-107.3392" y2="-498.1208" gradientTransform="matrix(5.6041 30.4045 -30.3988 5.6354 -14485.5762 5982.9136)">
						<stop  offset="0" style="stop-color:#242224"/>
						<stop  offset="0.1804" style="stop-color:#38323D"/>
						<stop  offset="0.7412" style="stop-color:#726384"/>
						<stop  offset="1" style="stop-color:#8776A0"/>
						<a:midPointStop  offset="0" style="stop-color:#242224"/>
						<a:midPointStop  offset="0.5" style="stop-color:#242224"/>
						<a:midPointStop  offset="0.1804" style="stop-color:#38323D"/>
						<a:midPointStop  offset="0.5" style="stop-color:#38323D"/>
						<a:midPointStop  offset="0.7412" style="stop-color:#726384"/>
						<a:midPointStop  offset="0.5" style="stop-color:#726384"/>
						<a:midPointStop  offset="1" style="stop-color:#8776A0"/>
					</linearGradient>
					<path id="path58_1_" connector-curvature="0" fill="url(#path58_6_)" d="M52.6-144.5c-0.3-0.2-0.7-0.4-1.3-0.5
						c-1.1-0.2-2.4,0.1-3.8,0.8c1.5,6.3,2.5,13,3,20C51.7-110,50-101,45.5-97c2.2-1,4.1-3.8,5.8-8.2
						C54.7-114.2,55.2-127.3,52.6-144.5L52.6-144.5z"/>
				</g>
			</g>
		</g>
	</g>
</g>
<g id="g10_7_" transform="matrix(1.25 0 0 -1.25 0 32.345)">
	<g id="g12_7_">
		<g id="g14_7_">
			<g id="g16_7_">
				<g id="g22_7_">
					
						<linearGradient id="path36_7_" gradientUnits="userSpaceOnUse" x1="-111.8822" y1="-502.6976" x2="-110.3676" y2="-502.6976" gradientTransform="matrix(-12.8985 28.0975 -28.1109 -12.8693 -15481.2373 -3408.6455)">
						<stop  offset="0" style="stop-color:#242224"/>
						<stop  offset="0.1529" style="stop-color:#333729"/>
						<stop  offset="0.7255" style="stop-color:#637E38"/>
						<stop  offset="0.9922" style="stop-color:#769A3E"/>
						<stop  offset="1" style="stop-color:#769A3E"/>
						<a:midPointStop  offset="0" style="stop-color:#242224"/>
						<a:midPointStop  offset="0.5" style="stop-color:#242224"/>
						<a:midPointStop  offset="0.1529" style="stop-color:#333729"/>
						<a:midPointStop  offset="0.5" style="stop-color:#333729"/>
						<a:midPointStop  offset="0.7255" style="stop-color:#637E38"/>
						<a:midPointStop  offset="0.5" style="stop-color:#637E38"/>
						<a:midPointStop  offset="0.9922" style="stop-color:#769A3E"/>
						<a:midPointStop  offset="0.5" style="stop-color:#769A3E"/>
						<a:midPointStop  offset="1" style="stop-color:#769A3E"/>
					</linearGradient>
					<path id="path36_2_" connector-curvature="0" fill="url(#path36_7_)" d="M97-74.6c-0.4-0.4-0.9-0.9-1.5-1.3
						c-1.2-0.8-2.4-1.1-3.6-0.9c-1.2,3.5-3,7.2-5.4,11.2c-4.7,7.9-10,13-15.9,15.2c2.3-0.2,5.2-1.3,8.6-3.4
						C85.9-58,91.8-64.9,97-74.6L97-74.6z"/>
				</g>
			</g>
		</g>
		<g id="g38_7_">
			<g id="g40_2_">
				<g id="g46_2_">
					
						<linearGradient id="path58_7_" gradientUnits="userSpaceOnUse" x1="-111.9465" y1="-502.7709" x2="-109.8594" y2="-502.7709" gradientTransform="matrix(-12.8982 28.0977 -28.1109 -12.8693 -15481.208 -3408.6326)">
						<stop  offset="0" style="stop-color:#242224"/>
						<stop  offset="0.1804" style="stop-color:#38323D"/>
						<stop  offset="0.7412" style="stop-color:#726384"/>
						<stop  offset="1" style="stop-color:#8776A0"/>
						<a:midPointStop  offset="0" style="stop-color:#242224"/>
						<a:midPointStop  offset="0.5" style="stop-color:#242224"/>
						<a:midPointStop  offset="0.1804" style="stop-color:#38323D"/>
						<a:midPointStop  offset="0.5" style="stop-color:#38323D"/>
						<a:midPointStop  offset="0.7412" style="stop-color:#726384"/>
						<a:midPointStop  offset="0.5" style="stop-color:#726384"/>
						<a:midPointStop  offset="1" style="stop-color:#8776A0"/>
					</linearGradient>
					<path id="path58_2_" connector-curvature="0" fill="url(#path58_7_)" d="M99.7-72.9c-0.1-0.4-0.3-0.7-0.7-1.1
						c-0.8-0.8-2-1.3-3.5-1.6c-2.4,6-5.4,12-9,18.1c-7.2,12.2-13.9,18.7-19.8,19.3c2.4,0.4,5.6-0.7,9.5-3.4
						C84-46.9,91.9-57.4,99.7-72.9L99.7-72.9z"/>
				</g>
			</g>
		</g>
	</g>
</g>
</svg>
