<?xml version="1.0" encoding="utf-8"?>
<!-- Generator: Adobe Illustrator 17.1.0, SVG Export Plug-In . SVG Version: 6.00 Build 0)  -->
<!DOCTYPE svg PUBLIC "-//W3C//DTD SVG 1.1//EN" "http://www.w3.org/Graphics/SVG/1.1/DTD/svg11.dtd">
<svg version="1.1" id="Layer_1" xmlns="http://www.w3.org/2000/svg" xmlns:xlink="http://www.w3.org/1999/xlink" x="0px" y="0px"
	 viewBox="208.1 386.6 874.5 760.5" enable-background="new 208.1 386.6 874.5 760.5" xml:space="preserve">
<polygon fill="#CAE4F5" points="790.2,1075.5 731.2,1114.3 660.4,1109.2 628.3,1068.7 623.3,1013.1 807.1,992.9 "/>
<path fill="#CAE4F5" d="M469.9,753.2c11.5-7.3,12.6,4.5,16.8,9.6c27.4,33.1,59,59.8,101.7,70.5c5.8,1.7,11.7,3.6,17.7,5.3l-0.6-0.2
	c1.1,3.6,2.2,7.3,3.4,10.7c-2.5,0.8-5.3,1.3-7.9,2.2c-44.2-13.2-85.6-30.8-115.5-67.9C478.3,774.1,470.8,765.4,469.9,753.2z"/>
<polygon fill="#F0877F" points="358.6,545.6 583.2,463.3 523.9,411.6 339.6,525 "/>
<path fill="#1E1C1E" d="M738.4,1132.9c-63.2,7.3-103.2-21.8-124.5-79.7c-3.9-20.1-8.1-40.2-12-60.4c-1.7-9.2-8.4-11.5-16.2-14.8
	c-54.3-21.8-104-53.2-162.2-69c-1.9,5.6-5.1,14.8-9,23.7c-15.6,36.9-53.7,54.5-90.1,41.4c-11.2-3.9-27.1-10.7-38-15.4
	c-1.1-3-14.8-18.4-16-21.6c1.1-1.3,8.4-7.5,21,9.6c14.5,3,26,16.2,42.3,13.9c9.6,4.2,17.7,2.8,27.7-1.1c40.2-16,44.2-49.8,44.7-85.9
	c-0.2-26-6.7-50.4-18.4-73.5c-18.2-35.8-56.4-52.1-90.1-38.6c-33.3,15.6-46.7,44.7-41.9,89.5c2.2,31.6,16.8,63.5,31.6,92.3
	c1.9,3.6,0.8,9.6,2.8,13.2c-22.1-10.3-27.7-38-36.6-56.8c-10.1-26-13.7-47.6-14.3-71.6c0-47,68.8-99.3,34.1-120.9
	c-7.9-4.7-24.8-35-46.1-76.1c-10.9-21.2,33.8-42.5,53.4-65.8c6.4-7.9,11.5-30.2,8.8-39.6c22.8-21.4,20.2-16.9,37.1-27
	c35.4-13.5,184.5-117.1,207.2-91.1c3.9,4.5-2.8-3.6,35.5,26.3c10.7,8.1,38.9,44.5,69.3,61.4c21.9,20.2,38.8,28.7,67.6,52.5
	c24.6,19.6,47.6,43.1,78.4,54.3c29.3,10.7,49.5,31.9,63.2,59.2c12.8,26,30.5,47.6,50.4,68.5c15.4,16,28,18.8,48.1,12
	c55.4-18.2,114.1,17.9,125.2,75c6.2,32.5,5.8,64.6-3,96.8c-28,30.8-57.9,57.3-104,52.1c-6.7-0.8-11.7,2.2-16,6.2
	c-29.1,29.1-65.8,39.1-105.1,41.1c-14.3,0.8-24.1,4.5-27.1,20.7C808.1,1080,783.7,1114.9,738.4,1132.9z M385.1,738.9
	c-1.1-0.6-2.2-1.3-3.4-1.9c0.8,0.8,1.9,1.7,2.8,2.8c2.2,1.7,4.2,3.6,6.4,5.3c42.8,44.5,49.2,106.6,74.4,160.2
	c0.2-42.8-4.7-83.6-9.8-124.7c-0.8-7.9-5.3-12.3-12.3-15.1c-17.3-7-34.4-14.3-51.5-21.6C389.6,742.3,387.4,740.6,385.1,738.9z
	 M799.1,633.1c-2.2-5.6-5.1-10.7-11.7-11.7c-0.6,0-1.9,1.3-1.9,1.9c0.6,7,5.8,9.6,10.9,12.8c6.7,13.7,18.8,21.2,37.4,32.7
	C825.1,646.8,815,637,799.1,633.1z M944.6,910.3c-9.2,2.2-16.8,7-22.1,14.8c-27.1,14.5-55.1,27.7-85,35.2c-9.6,3.6-1.8-6-0.7,12.7
	c5.1,15.3,12.9,1,5.4,14.7c3.6-0.8,6.7-3.4,10.1-5.3c28-3.6,53.7-12.3,73.3-33.8C936.4,938.2,948.2,927.9,944.6,910.3
	c0.8-0.2,1.7-0.6,2.2-1.1c0.2-0.2,0.2-1.1,0.2-1.7C945.9,908.3,945.3,909.2,944.6,910.3z M979.5,804.3c-0.8-0.2-1.9-0.6-2.8-1.1
	C977.5,803.4,978.6,804,979.5,804.3c0.8,30.8,26.3,52.6,29.3,82.5C1011.3,854.7,1008.9,824.7,979.5,804.3z M628,1020.7
	c0.2,38.3,10.9,71.1,47.8,89.8c47,11.5,74.6-2.8,82.7-44c2.5-12.3,1.7-25.4,2.2-38c-0.8-9-0.6-18.2-3-26.5
	c-16.5-54-29.9-82.7-68.8-78.8c-5.1-4.7-10.3-3.6-16.2-1.7C634,934.8,621.5,963.2,628,1020.7z M1005.5,759
	c-21.6-15.6-40.8-9-65.8,6.4c18.2,4.2,29.9,7,41.9,9.8c9,10.9,17.9,21.6,26.9,32.5c21.2,37.2,18.8,76.9,11.2,118.3
	c18.2-3.9,24.3-16.5,30.2-28.8c12.3-26.3,0.6-52.3-1.7-78.4C1042.4,792.9,1031.5,770.5,1005.5,759z M793.2,1007
	c-4.5-18.2-7.3-36.6-13.4-54.3c-12.6-35.8-46.4-57-79.4-51.7c5.1,12.6,19,12.3,28.2,18.8c37.8,26.5,41.1,67.1,46.4,107.1
	c0,15.6-0.2,31-0.2,46.7C796.6,1054.6,798,1031.6,793.2,1007z M491.7,820.5c-4.2-7.5-8.7-14.5-20.7-16c8.7,22.4,4.2,47.8,25.2,64.1
	c11.2,8.1,22.6,15.6,33.6,24.1c21,16.8,44.5,28.6,69.9,36.9c16.5,5.6,19.6-5.8,26.3-16c7.3-10.9,2.5-15.6-6.4-20.7
	C577.1,869.2,534.2,844.8,491.7,820.5z M916.8,893.8c30.8-12.3,41.1-36.1,26.5-67.9c-10.1-22.1-24.1-42.3-39.1-67.9
	c-44,98.5-132.9,97.9-220.3,106.2c5.3,5.3,7.3,9,9.2,9c44.2-0.8,73.9,23.2,97.9,56.8c5.1,7,11.2,10.9,19.9,10.1
	c35.8-3,69.4-11.5,95.7-38.3C910.2,899.1,913.4,896.6,916.8,893.8z M526.5,930.1c23.7,13.4,44,22.6,65.4,28.8
	c4.7,1.3,10.7,3,12.8-2.5c3-8.4-3.9-9-9.6-10.7C574.2,939.7,554.9,928.2,526.5,930.1z M369.3,644.6c3.4,30.5,24.6,39.5,46.1,55.1
	C412.6,667.5,394.1,655.5,369.3,644.6z M992.3,933.3c7-8.7,14.5-13.7,10.3-23.7c-0.8-1.7-5.6-3.4-7-2.5
	C986.7,911.9,986.2,919.8,992.3,933.3z M511.3,912.5c-1.9-1.1-4.5-2.5-6.7-3.9c-1.1,2.2-2.2,4.2-3,6.4c2.5,1.1,4.7,2.2,7.3,3.4
	C509.4,917,509.9,915.3,511.3,912.5z M628.5,859.1c10.9-5.8,19.9,8.7,33.3,4.5c-12.8-13.7-30.2-20.1-34.6-38c0-2.2,0-4.5,0-6.7
	c12.8,9,22.1,24.1,40,25.2c26.3,3.6,53.2,3.9,78.8-1.7c49.8-11.2,141-83.1,131.4-91.2c-12.8-33.1-43.1-51.7-64.9-77.2
	c-3.4-3.9-9.6-10.3-13.9-7.3c-1.7,1.1-1.1,10.9-0.8,12.8c0.8,25.4-3,36.3-12.6,52.6c-51.7,57.6-128,54.9-194,16.8
	c1.3-3.4,0.8-2.5,2.2-5.8c7.5,1.7,12.3,1.9,22.4,5.3c13.2,5.3,21.6,8.7,41.4,10.1c12.8,0.2,25.4,0.6,38.3,1.1
	c29.3-2.5,54.3-14.5,75.2-35c9-8.1,12.3-16,16.2-30.2c0-18.2-2.5-35.8-10.3-61.5c-5.6,15.6-8.4,24.3-11.5,32.5
	c-5.6,7.3-10.7,13.9-16.2,21.2c-19,13.2-38.9,23.7-61.5,28.2c-10.3,0-20.5,0-30.8,0c-13.7-2.5-27.4-5.3-41.4-7.9
	c-10.9-3.9-22.6-6.4-32.7-12.3c-9-5.3-26-1.3-24.8-19.6c7.5,1.7,15.1,3,22.6,5.6c41.7,13.7,83.9,19.9,127.3,8.4
	c48.9-12.8,60.9-43.1,33.1-83.9c-18.4-26.9-39.7-51.2-67.5-69c-15.4-11.2-29.7-29.3-50.6-21.2c-24.1,9.6-46.4,23.7-69.4,36.1
	c-26.5,10.7-53.2,21.2-79.7,31.9c-25.4,2.2-24.6,11.7-8.4,27.4c5.8,5.8,15.4,9.6,16,19.9c-14.3,10.1-18.4-13.2-33.1-9.2
	c6.2,8.7,23.5,26.9,29.1,34.6c-12,5.6-29.1-15.4-37.4-19c-2.5-3-5.3-6.7-7.5-9.8c-6.7-41.9-6.7-42.3,33.1-56.4
	c38-13.7,74.6-30.2,110.7-48.7c5.6-2.8,22.1-6.7,3-16c-66.9-56-78.4-78.8-23.5-45.3c14.5,18.4,32.7,31.6,52.1,42.8
	c3.4-4.5,2.2-3,5.6-7.5c-13.4-12.3-26.9-24.6-40.2-36.9c-60.9-59,27.7,30.8-31.9-29.7c-17.3-17.7-110.2,45.3-130.1,56.8
	c-40,23.2-24.8,20.1-70.5,38.9c-9.8,9-22.4,5.8,0,0c7.3,12.3,18.8,20.7,28.6,31c7.5,10.1,14.5,19.3,22.1,29.3
	c10.3,16,26.3,25.4,29.7,44.5c5.1,5.1,10.7,8.1,18.2,7.5c3.9,18.2,26,21,31.9,37.4c5.1,3.9,10.1,7.9,15.1,11.7
	c-1.1,8.1-1.3,10.1-2.5,18.2c-3.4,1.3-7,2.8-10.3,4.2c0,3,0,5.8,0,9c-5.3-2.5-10.1-6.7-16.5-4.5c-7.5-3.9-4.2-22.4-19.6-15.6
	c-12.6,5.6,8.4,17.7,0.6,21.6c-2.5,1.3-3.6,2.2-6.2,3.6c-1.9-0.6-4.2-0.6-6.2-0.2c-4.2-0.8-10.3-3.9-13.2-4.2
	c-26.5-14.8-50.4-32.5-63-63c-14.5,16.5-7.9,28,1.9,38.6c12.6,13.9,27.7,24.6,45.5,30.8c23.7,12.3,47.6,23.7,74.4,28l0,0
	c0.8,12.3,8.4,20.7,15.6,29.9c29.9,37.4,71.3,55.1,115.5,67.9c17.7,13.7,28.8,36.3,56.8,41.4C653.4,873.9,634.4,872.6,628.5,859.1z"
	/>
<path fill="#F0877F" d="M473.3,582.8c26.5-10.7,53.2-21.2,79.7-31.9c38.9,5.3,76.3-4.2,114.1-11.5c1.3,3.4,2.5,7.3,4.7,10.3
	c6.7,10.3,23.7,16.8,19,30.5c-6.2,16.8-22.9,2.2-34.4,5.8c-5.1,1.7-12-1.7-16,7c17.1,20.1,48.1,13.9,65.8,34.4
	c-38.9-3.9-77.8-7.9-116.6-11.7c30.8,21.2,66.6,24.6,99.6,36.9c5.8,2.2,15.1,3,13.2,12.6c-1.3,7-9.2,6.2-14.8,6.7
	C603,679.5,530.3,665.3,473.3,582.8z"/>
<path fill="#757888" d="M906.4,901.6c-26.3,26.9-59.8,35-95.7,38.3c-9,0.8-15.1-3-19.9-10.1c-24.1-33.8-53.7-57.6-97.9-56.8
	c-1.9,0-3.9-3.6-9.2-9c87.6-8.4,176.5-7.9,220.3-106.2c15.1,25.7,29.1,45.9,39.1,67.9c14.5,31.9,4.2,55.6-26.3,67.9
	c-1.9-7.9,4.5-12.3,7.3-18.4c3.4-7.9,10.9-17.9,2.5-24.1c-10.3-7.5-14.8,5.3-19.6,11.7c-9.8,13.2-23.5,20.5-37.8,27.4
	c-21,10.1-44.7,9-68.2,16.8c20.7,12.6,40,14.8,60.9,9C877.1,911.9,889.9,900.4,906.4,901.6z"/>
<path fill="#DC242F" d="M785.1,732.1c9.6-16.2,11.7-29.9,12.6-52.6c0-1.9-1.7-15.4,0-16.5c4.5-3,11.5,7,14.8,10.9
	c21.8,25.4,52.1,44.2,64.9,77.2c-4.5,5.6-10.3,17.9-11.7,19.3c-54.5,59-125,68.8-200,66.9c-20.5-17.9-40.6-35.5-60.9-53.4
	c32.7,5.6,63.2,20.7,97,22.6C753.6,809.9,788,780.3,785.1,732.1z"/>
<path fill="#EFBEB0" d="M473.3,582.8c57.3,82.5,130.1,96.8,213.6,89.3c5.6-0.6,13.4,0.2,14.8-6.7c1.9-9.6-7.3-10.3-13.2-12.6
	c-33.1-12.3-68.5-15.6-99.6-36.9c38.9,3.9,77.8,7.9,116.6,11.7c-17.7-20.5-48.3-14.3-65.8-34.4c3.9-9,10.9-5.6,16-7
	c11.5-3.6,28.2,10.9,34.4-5.8c5.1-13.7-12.3-20.5-19-30.5c-1.9-3-3-7-4.7-10.3c1.9-1.1,3.9-2.2,5.8-3.4c27.7,17.9,48.9,42.3,67.5,69
	c28,40.6,15.6,70.7-33.1,83.9c-43.4,11.5-85.6,5.3-127.3-8.4c-7.3-2.5-15.1-3.6-22.6-5.6l-0.2,0.8c-5.8-9.6-16.2-11.2-25.4-14.5
	c-3.4-3.6-6.7-7.3-12.3-4.5h-0.3c-10.9-11.5-21.8-22.9-38.6-25.4l0.6-0.8c-0.6-10.3-10.1-14.3-16-19.9
	C448.7,594.9,447.5,585.1,473.3,582.8z"/>
<path fill="#B42A34" d="M339.6,525c59-3.6,147.4-113.5,179.9-64.3c7.5,11.5,49.5,21.2,66.6,43.1c18.8,9.2-5.3,15.4-10.9,18.2
	c-36.1,18.2-72.7,35-110.7,48.7c-39.7,14.3-39.7,14.5-33.1,56.4c-3.9,1.1-8.1,1.9-12,3c-3.4-19.6-25.2-27.4-29.9-46.1
	c24.6-6.7,48.3-14.8,77.2-31c-29.1-1.1-49.5-1.3-70.2-2.5c-10.3-0.6-21.2-7-29.3,5.1C355.8,547.3,346.9,537,339.6,525z"/>
<path fill="#B42A34" d="M785.1,732.1c2.8,48.1-31.9,81.4-83.3,78c-33.8-2.2-66.3-16-96.8-26.3c-16-7.5-26.3-22.1-42.5-29.7
	c-17.3-17.3-55.1-34.6-64.9-59.6c-8.4,0.8,13.9,5.6,14.5,4.7c27.4,8.4,47.8,39.1,78,48.9C658.7,785.3,729.5,787,785.1,732.1z"/>
<path fill="#A3A8B4" d="M288.5,611.6c7.9,4.7,4.5,3,16.2,5.6c2.2,1.7,4.2,3,6.4,4.7c1.3,13.2,8.7,17.3,21,13.9l0.8,0.8
	c-0.2,4.5-0.6,9-0.6,13.4c-5.6,10.9-12.3,10.1-21.6,3.4c-91.4-67.7,2.5-5.8-39.5-29.3C262.9,619.2,236.4,579.5,288.5,611.6z"/>
<path fill="#51495D" d="M491.7,820.5c42.5,24.3,85.3,48.7,128,72.7c8.7,5.1,13.7,9.8,6.4,20.7c-6.7,9.8-9.8,21.2-26.3,16
	c-25.4-8.4-48.9-20.1-69.9-36.9c-10.7-8.7-22.4-16.2-33.6-24.1C494.9,852.7,493.2,836.7,491.7,820.5z"/>
<path fill="#757888" d="M289.8,663.7c-1.7,1.9-3.4,3.9-5.1,5.8c-9.8-2.5-19.6-4.7-27.4-11.7c-20.7-27.4,60.9,29.3,38.6,10.9
	C284.5,650.5,201.4,594.5,289.8,663.7z"/>
<path fill="#DC242F" d="M465.2,644.9c-5.6-7.9-11.2-15.4-17.3-24.1c14.5-3.9,18.8,19.3,33.1,9.2l-0.6,0.8
	c13.4,16.8,20.1,16,38.6,25.4h0.2c-5.1,8.4,3,8.1,7,10.7c10.1,3.6,17.1,18.8,31,8.4l0.2-0.8c-1.1,18.2,16,14.3,24.8,19.6
	c9.8,5.8,21.6,8.4,32.7,12.3c0.2,13.7,0.6,27.7,0.8,41.4c-7-1.7-13.7-3.4-20.7-5.1c-41.4-26.5-79.7-57.3-118.3-87.8
	c-2.2-2.2-4.2-4.2-6.4-6.4C468.6,647.7,466.9,646.3,465.2,644.9z"/>
<path fill="#42364F" d="M383.8,736.6c17.1,7.3,43.4,18.2,60.7,25.2c7,2.8,13.9,10.9,14.8,18.8c4.7,40.8,6.7,86.7,6.4,129.5
	c-24.8-53.7-31.9-120.5-74.6-165L383.8,736.6z"/>
<path fill="#2F292C" d="M476.7,655.5c38.6,30.5,84.8,64.6,126.1,91.2c-1.7,1.7-3.9,3.9-5.6,5.6c-30.2-9.8-58.5-37.4-85-53.2
	c-6.2-6.7-11.7-13.9-24.1-15.4c5.6,11.5-10.1-1.3,0,0c16,26,57,52.6,74.4,69.9c0.2,3.6,8.7,19.9,8.7,23.5
	c-6.2,4.5-19.3-12-23.5-15.6c-21.8-18.8-43.6-37.8-65.4-56.8c-0.8-7.3-1.3-14.8-2.2-22.1c1.7-5.1,0.6-9.6-4.5-11.7
	c-1.1-0.6-3.9,2.5-5.8,3.9c-12.3-13.9-29.9-18.4-33.8-36.9l2.8-3.6C447,639.6,466.3,661.7,476.7,655.5z"/>
<path fill="#757888" d="M428.5,720.7c0.8-1.1,1.1-1.1,1.9-2.2c9.6,2.5,18.4,3,24.8-4.7c6.4-2.2,11.2,1.9,16.5,4.5
	c1.3,3,3,5.1,6.7,3.6l-0.2-0.2c0.6,3.9,2.2,6.4,6.7,5.3h-0.2c0,4.5,2.2,6.4,6.7,5.3l-0.2-0.2c-1.1,6.4,1.9,9.8,7.9,10.9l-0.2-0.2
	c0.8,3.6,2.8,5.8,6.7,5.6l-0.2-0.2c0.2,5.6,3.6,8.7,9.2,9.6c9.2,7.9,21,12.8,25.4,25.4c1.3,7.3,5.3,10.1,12.6,7.5l0,0
	c0,4.5,1.9,6.7,6.7,5.3l0,0c-0.2,4.7,1.7,7.3,6.7,5.3l0,0c-1.3,10.9,5.8,13.9,14.3,16.2l-0.2-0.2c0.6,3.9,2.5,6.2,6.7,5.3l0,0
	c0.8,3.6,1.3,7.3,2.2,10.9c-42.8-10.9-74.4-37.8-101.7-70.5c-4.2-5.1-5.3-16.8-16.8-9.6l0,0C465.8,729.9,437.5,738,428.5,720.7z"/>
<path fill="#51495D" d="M297.9,761.8c33.6-13.4,72.2,2.8,90.1,38.6c11.7,23.2,19.9,47.6,20.1,73.5c-7.9,2.2-17.1,0.8-24.1-3.4
	c-0.8-7.9-1.9-15.4-2.8-23.2c0.6-0.8,1.7-1.7,1.3-1.9c-0.6-1.3-1.7-2.8-2.5-3.9c-12-47.2-29.7-60.9-73.3-58.1
	C304.1,776.1,301.1,769,297.9,761.8z"/>
<path fill="#DC242F" d="M688,714.5c22.1-4.7,41.7-15.1,60.1-27.7c10.3,10.7,7.3,29.3,22.1,37.8c-21,20.5-45.9,32.5-75.2,35
	C692.8,744.7,690.3,729.7,688,714.5z"/>
<path fill="#B42A34" d="M514.7,757.6c-6.2-3.4-40.6-38.9-43.1-48.3c3.4-1.3,7-2.8,10.3-4.2c21.8,19,46.1,37.2,65.4,56.8
	c1.9,2.2,27.1,20.5,38.9,31.4c2.5,3,22.4,13.9,22.4,13.9c7,5.3,18.2,16.5,18.2,18.8c-3.9,11.5-13.9,15.1-21.2,12.3l0.6,0.2
	c-13.7-3.9-47-42.8-53.7-47.8l0,0C537.6,786.1,523.9,765.4,514.7,757.6z"/>
<path fill="#757888" d="M906.4,901.6c-16.5-1.1-29.3,10.1-44.5,14.3c-21,5.8-40.2,3.9-60.9-9c23.5-7.9,47.2-6.7,68.2-16.8
	c14.3-7,27.7-14.3,37.8-27.4c4.7-6.2,9-19.3,19.6-11.7c8.4,6.2,1.1,16.2-2.5,24.1c-2.8,6.2-9.2,10.7-7.3,18.4
	C913.4,896.6,910.2,899.1,906.4,901.6z"/>
<path fill="#A3A8B4" d="M1048.2,818.8c2.2,26,13.9,52.1,1.7,78.4c-5.8,12.3-12,24.8-30.2,28.8c7.3-41.4,9.8-81.1-11.2-118.3
	c0.6-0.8,0.8-1.9,1.7-2.5c0.6-0.6,2.2-1.3,2.5-1.1C1022.6,813.5,1028.4,833.3,1048.2,818.8z"/>
<path fill="#A3A8B4" d="M775,1026.9c-5.3-40-8.7-80.3-46.4-107.1c-9.2-6.4-23.2-6.2-28.2-18.8c33.3-5.3,66.9,15.6,79.4,51.7
	c6.2,17.7,9,36.1,13.4,54.3C778.4,1005.7,779.7,1019.4,775,1026.9z"/>
<path fill="#42364F" d="M384.4,870.5c7,3.9,16.2,5.6,24.1,3.4c-0.6,36.1-6.4,69.9-46.7,85.9c-9.8,3.9-18.2,5.3-27.7,1.1
	c-0.8-5.6-1.3-11.5-2.2-17.1C369.9,936,379.9,922.4,384.4,870.5z"/>
<path fill="#51495D" d="M775.6,1039.7c-0.6,12.8,0,25.7-2.2,38c-7.9,41.1-35.5,55.4-82.7,44c-0.8-6.2-1.3-12-2.2-18.2
	c49.5,8.4,70.2-11.5,70.2-67.7C764.5,1037.3,770,1038.4,775.6,1039.7z"/>
<path fill="#42364F" d="M760.7,1028.6c-5.6-1.1-11.2-2.5-17.1-3.6c-3-23.5-4.5-47.8-22.4-66c-7.9-7.9-12.3-7.9-28.8-6.7
	c-7.5,3.4-16.5-3.6-23.7,2.8c-8.7-20.5,23.2-14.8,20.1-31.6c39.1-3.9,52.6,24.6,68.8,78.8C760.5,1010.4,760,1019.6,760.7,1028.6z"/>
<path fill="#51495D" d="M332.1,943.6c0.8,5.6,1.3,11.5,2.2,17.1c-16.5,2.2-27.7-10.9-42.3-13.9c-1.9-1.9-3.9-3.6-5.8-5.6
	c-15.1-28.2-27.7-57.3-29.9-89.8c13.2,0.8,17.7,12,24.3,20.5C283.4,906.1,301.8,929,332.1,943.6z"/>
<path fill="#B42A34" d="M672.9,536.1c-1.9,1.1-3.9,2.2-5.8,3.4c-37.8,7.5-75.2,17.1-114.1,11.7c22.9-12.3,45.3-26.9,69.4-36.1
	C643.3,506.7,657.5,525,672.9,536.1z"/>
<path fill="#615F71" d="M324.8,535.9c47,31.4,35.5,36.1,68.2,82c-21.8-0.2-64.6-40.5-76.7-76.9L324.8,535.9z"/>
<path fill="#42364F" d="M280.6,872c-6.7-8.7-11.2-19.6-24.3-20.5c-4.7-44.7,8.7-73.9,41.9-89.5c3,7,5.8,14.3,9,21.2
	C269.5,804.3,278.3,838.9,280.6,872z"/>
<path fill="#51495D" d="M837.4,960c29.9-7.5,57.9-20.7,85-35.2c1.1,7.9,2.2,16,3,23.7c-19.9,21.6-45.3,29.9-73.3,33.6
	C844.2,977.5,839.3,969.6,837.4,960z"/>
<path fill="#F0877F" d="M665.6,837.3c74.1,1.7,157.2-11.2,203.6-77.5c9.8-13.9,9-6.7,11.2-2.8l0,0c-27.4,50.9-86.7,74.4-136.1,85.3
	c-25.7,5.8-52.6,5.3-79.1,1.7C665.6,839.8,665.4,841.5,665.6,837.3z"/>
<path fill="#757888" d="M1048.2,818.8c-19.9,14.5-25.7-5.3-35.8-14.8c-0.2-0.2-1.7,0.6-2.5,1.1c-0.6,0.6-1.1,1.7-1.7,2.5
	c-9-10.9-17.9-21.6-26.9-32.5c3.4-12,13.4-14.3,23.7-16.2C1031.5,770.5,1042.4,792.9,1048.2,818.8z"/>
<path fill="#E96A5B" d="M367.3,555.4c8.1-12,19-5.6,29.3-5.1c20.5,1.3,41.1,1.7,70.2,2.5c-28.8,16.2-52.6,24.3-77.2,31
	C382.1,574.4,374.8,564.9,367.3,555.4z"/>
<path fill="#51495D" d="M697.9,923.2c3,16.8-37.8,11.5-29.1,31.9c-5.3,2.8-10.7,5.8-15.6,8.7c-16,18.8-20.1,35-18.8,56.2
	c-2.2,0.2-4.2,0.6-6.4,0.8c-6.4-57.6,6.2-85.9,44.7-99C678.6,919.8,692.8,918.4,697.9,923.2z"/>
<path fill="#EFBEB0" d="M615.6,748.3c-0.2-13.7-0.6-27.7-0.8-41.4c12,2.2,24.1,4.5,36.1,6.7c1.9,14.8,3.9,29.9,5.8,44.7
	C642.3,758.7,628.8,753.7,615.6,748.3z"/>
<path fill="#F0877F" d="M656.8,758.7c-1.9-14.8-3.9-29.9-5.8-44.7c12.3,0.2,24.6,0.6,36.9,0.8c2.2,15.1,4.7,29.9,7,45
	C682.2,759.2,669.6,759,656.8,758.7z"/>
<path fill="#A3A8B4" d="M395.5,725.4c-17.9-6.2-33.1-16.8-45.5-30.8c-9.6-10.7-16.5-22.4-1.9-38.6c12.6,30.5,36.6,48.1,63,63
	C405.9,721.2,398.3,717.3,395.5,725.4z"/>
<path fill="#EFBEB0" d="M665.6,837.3c0.6,2.2,0.8,4.7,1.3,7c-17.9-1.1-27.1-16.2-40-25.2l-0.6-1.1h-1.3c-3-1.9-6.4-3.6-9.6-5.6
	l0.2,0.2c-0.6-3.9-3-5.6-7-5.3l0.2,0.2c-0.8-3.6-2.5-6.2-6.7-5.3l0.2,0.2c-0.2-4.2-2.2-6.7-7-5.3l0.2,0.2c0-0.8,0.6-1.7,0.2-2.2
	c-0.6-1.1-1.7-2.2-2.2-3.4c-9-8.4-15.4-12-25.2-21.2l0,0c-3.4-2.5-5.8-5.3-5.8-5.3c-0.2-3.6-0.2-7.3-0.6-10.9
	c17.1,9.6,27.7,18.8,42.5,29.7C625.2,801.7,645.5,819.4,665.6,837.3z"/>
<path fill="#42364F" d="M642.7,1032c2.2-0.2,4.2-0.6,6.4-0.8c8.4,26,15.6,54.3,39.1,72.7c0.8,6.2,1.3,12,2.2,18.2
	C653.9,1102.9,643.3,1070.2,642.7,1032z"/>
<path fill="#757888" d="M526.5,930.1c28.6-1.9,47.8,9.2,68.8,15.6c5.6,1.7,12.8,2.5,9.6,10.7c-2.2,5.8-8.1,3.9-12.8,2.5
	C570.3,952.8,550.2,943.8,526.5,930.1z"/>
<path fill="#F0877F" d="M770.3,724.6c-14.8-8.4-11.7-26.9-22.1-37.8c5.6-7,10.9-13.7,16.5-20.7c7.3,9.6,14.5,18.8,22.1,28.2
	C781.8,710.6,779.2,716.5,770.3,724.6z"/>
<path fill="#A3A8B4" d="M789.9,1038c5.1-7.5,3.6-21.2,18.2-19.9c4.7,24.6,3.4,47.6-18.4,66.9C789.5,1069.4,789.9,1053.8,789.9,1038z
	"/>
<path fill="#51495D" d="M369.3,644.6c25.2,10.9,43.4,22.6,46.1,55.1C393.9,684.4,372.3,675.1,369.3,644.6z"/>
<path fill="#2F292C" d="M979.5,804.3c29.3,20.5,31.9,50.6,29.3,82.5C1005.7,856.8,980.3,834.8,979.5,804.3L979.5,804.3z"/>
<path fill="#CAE4F5" d="M395.5,725.4c2.8-8.1,10.3-4.2,15.4-6.7c2.5,0.8,4.7,1.3,7.3,2.2c1.9,0.6,3.9,1.1,5.8,1.9
	c1.9-0.2,3.9-0.2,5.8,0c10.3,14.3,35.8,8.1,40,30.2C443.4,749.2,419.3,737.8,395.5,725.4z"/>
<path fill="#2F292C" d="M609.2,849.1c-1.1-3.6-2.2-7.3-3.4-10.7c9.2-0.2,14.3-8.1,21.2-12.3c10.1,16.2,21.8,24.1,34.6,38
	c-13.4,4.2-17.1,0.6-28.2-2.2C624.3,862.4,615,853.2,609.2,849.1z"/>
<path fill="#51495D" d="M555.2,460.6c5.8-0.6,11.5-1.1,17.3-1.7c13.4,12.3,26.9,24.6,40.2,36.9c-1.9,2.5-3.6,5.1-5.6,7.5
	C587.6,492.2,569.7,479.1,555.2,460.6z"/>
<path fill="#615F71" d="M491.7,820.5c1.3,16,6.2,35.8,7.5,51.7c-21-16.2-23.7-42.8-28.2-67.7C483.1,806.2,487.6,813,491.7,820.5z"/>
<path fill="#A3A8B4" d="M1005.5,759c-10.3,1.9-20.1,4.5-23.7,16.2c-12-2.8-24.1-5.6-41.9-9.8C964.7,750,983.9,743.3,1005.5,759z"/>
<path fill="#A3A8B4" d="M609.2,849.1c5.8,4.2,8.7,6.2,19.3,10.3c8.7,11.7,24.6,14.8,29.3,33.6c-27.7-5.1-39.1-27.7-56.8-41.4
	C603.9,850.4,606.4,849.6,609.2,849.1z"/>
<path fill="#DC242F" d="M786.5,694.4c-7.3-9.6-14.5-18.8-22.1-28.2c3-8.4,5.8-17.1,11.7-33.3C784,658.6,786.5,676.2,786.5,694.4z"/>
<path fill="#42364F" d="M925.4,948.9c-1.1-7.9-2.2-16-3-23.7c5.3-8.1,12.8-12.6,22.1-14.8l0,0C948.2,927.9,936.4,938.2,925.4,948.9z
	"/>
<path fill="#51495D" d="M799.1,633.1c16,3.9,26,13.7,34.6,35.5C815,657.2,803,650,796.3,635.9C797.2,635.1,798,634,799.1,633.1z"/>
<path fill="#2F292C" d="M455.4,713.7c-5.1,6.2-9.6,8.4-19,5.8c1.3-7.3-13.9-14.8-0.6-21.6C452.6,689.3,447.5,709.8,455.4,713.7z"/>
<path fill="#2F292C" d="M992.3,933.3c-6.2-13.2-5.6-21.2,3.4-26.5c1.3-0.8,6.2,1.1,7,2.5C1006.8,919.6,999.3,924.5,992.3,933.3z"/>
<path fill="#757888" d="M332.1,635.7c-12.3,3.4-19.6-0.8-21-13.9C321.7,620.8,328.4,626.5,332.1,635.7z"/>
<path fill="#757888" d="M511.3,912.5c-1.3,3-1.9,4.5-2.8,5.8c-2.5-1.1-4.7-2.2-7.3-3.4c1.1-2.2,2.2-4.2,3-6.4
	C506.9,910,509.4,911.3,511.3,912.5z"/>
<path fill="#F0877F" d="M873.7,769.6"/>
<path fill="#757888" d="M302.7,680.7c-7.3-1.9-45.3-17.3-49.5-24.1c1.7-1.9-3.9-24.6-2.2-26.5c5.6,3.9,50,41.9,55.6,45.9
	C305.4,677.3,304.1,679,302.7,680.7z"/>
<path fill="#51495D" d="M796.3,635.9c-5.1-3-10.3-5.8-10.9-12.8c0-0.6,1.3-2.2,1.9-1.9c6.7,1.1,9.2,6.4,11.7,11.7
	C798,634,797.2,635.1,796.3,635.9z"/>
<path fill="#2F292C" d="M419.5,630.1c3.9-1.1,8.1-4.2,12-5.3c2.2,2.8,5.8,7.9,8.4,10.9c-0.2,0.8-0.6,1.1-0.8,1.9
	C434.2,644.6,425.2,635.9,419.5,630.1z"/>
<path fill="#757888" d="M306.6,675.9c3,3,6.2,5.8,9.6,9c-6.4,5.1-9.6-0.6-13.4-4.2C304.1,679,305.4,677.3,306.6,675.9z"/>
<path fill="#757888" d="M332.3,650c0.2-4.5,0.6-9,0.6-13.4C340.7,641.3,336,645.5,332.3,650z"/>
<path fill="#2F292C" d="M471.9,709.2c5.1,2.8,8.7,6.4,7,12.8c-3.6,1.1-5.6-0.8-6.7-3.6C471.9,715.1,471.9,712.2,471.9,709.2z"/>
<path fill="#B42A34" d="M469.7,675.1c1.9-1.3,4.7-4.5,5.8-3.9c4.7,2.2,6.2,6.7,4.5,11.7C476.7,680.4,473.1,677.6,469.7,675.1z"/>
<path fill="#2F292C" d="M979.5,804.3c-0.8-0.2-1.7-0.8-2.8-1.1C977.5,803.4,978.6,803.8,979.5,804.3L979.5,804.3z"/>
<path fill="#42364F" d="M944.6,910.3c0.8-0.8,1.7-1.9,2.2-2.8c0,0.6,0,1.3-0.2,1.7C946.1,909.8,945.3,910,944.6,910.3L944.6,910.3z"
	/>
<path fill="#42364F" d="M391.1,745c-2.2-1.7-4.2-3.6-6.4-5.3l0.6-0.8c2.2,1.7,4.5,3.4,6.7,5.1C391.9,743.8,391.1,745,391.1,745z"/>
<path fill="#42364F" d="M384.6,739.7c-0.8-0.8-1.9-1.7-2.8-2.8c1.1,0.6,2.2,1.3,3.4,1.9L384.6,739.7z"/>
<path fill="#2F292C" d="M534.8,663.9c-4.7,0,8.4,16.8-14.8,1.9c-10.3-6.7-48.3-28.8-54-41.1c-2.8,2.8,0.8-8.4,7.5-3.6
	C482.8,627.8,526.5,655.2,534.8,663.9z"/>
<path fill="#1E1C1E" d="M574,682.7c-13.9,10.3-39.5-9.2-49.5-13.2c1.7-1.9,5.3-6.2,7-8.1C540.7,664.7,562.8,675.1,574,682.7z"/>
<path fill="#1E1C1E" d="M476.7,655.5c-10.3,6.2-4.2-4.2-6.4-6.4C472.5,651.3,474.6,653.6,476.7,655.5z"/>
<path fill="#B42A34" d="M510.5,702.2c-10.1-1.3-17.1-6.7-22.4-18.2c12.3,1.3,17.9,8.7,24.1,15.4
	C511.3,700.2,511.1,701.3,510.5,702.2z"/>
<path fill="#2F292C" d="M606.4,838.4c-5.8-1.7-11.7-3.6-17.7-5.3c-0.8-3.6-1.3-7.3-2.2-10.9C600,819.2,603.9,828,606.4,838.4z"/>
<path fill="#2F292C" d="M565.8,800.9c9,1.7,15.4,5.6,14.3,16.2C571.8,814.9,564.5,811.9,565.8,800.9z"/>
<path fill="#2F292C" d="M505.8,748.3c7.5-1.1,7.5,4.7,9,9.6C509.4,756.8,506,754,505.8,748.3z"/>
<path fill="#2F292C" d="M540.2,783.1c5.1,1.1,11.5,0,12.6,7.5C545.5,793.4,541.5,790.6,540.2,783.1z"/>
<path fill="#2F292C" d="M491.5,732.1c6.4,0.8,9.2,4.5,7.9,10.9C493.4,741.9,490.4,738.6,491.5,732.1z"/>
<path fill="#2F292C" d="M579.9,817.1c4.5-1.1,6.7,0.8,6.7,5.3C582.3,823,580.4,821.1,579.9,817.1z"/>
<path fill="#2F292C" d="M552.7,790.6c4.2-0.8,6.2,1.3,6.7,5.3C554.7,797.4,552.7,795.1,552.7,790.6z"/>
<path fill="#2F292C" d="M485,727.1c3.9-0.6,6.4,1.1,6.7,5.3C485.9,735.5,484.5,732.7,485,727.1z"/>
<path fill="#2F292C" d="M559.2,795.9c3.9-0.6,6.2,1.3,6.7,5.3C560.9,803.2,558.8,800.6,559.2,795.9z"/>
<path fill="#2F292C" d="M499,743.1c4.7-1.1,6.7,0.8,6.7,5.6C501.8,748.9,499.8,746.6,499,743.1z"/>
<path fill="#2F292C" d="M478.3,721.8c4.5-1.1,6.2,1.3,6.7,5.3C480.8,728.2,478.9,725.7,478.3,721.8z"/>
<path fill="#1E1C1E" d="M280.6,872c-2.2-33.1-11.2-67.7,26.5-88.7c44-2.8,61.3,10.9,73.3,58.1c0.2,1.9,0.8,3.9,1.1,6.2
	c0.8,7.9,1.9,15.4,2.8,23.2c-4.5,51.7-14.3,65.4-52.3,73C301.8,929,283.4,906.1,280.6,872z M339.6,804.3c-7-5.3-12.6-2.5-19-3
	c-9.6,1.7-16,1.3-22.4,13.9l0,0c-4.7,2.5-1.9,3.9-5.3,6.7c-2.8,5.3-1.1,8.1-3,13.2c-2.8,30.8,2.8,58.7,26.5,80.5
	c22.1,13.4,37.4,10.7,45.3-12c9-25.7,9-45.3-0.2-72.2c-3.4-12.3-9.2-22.9-22.1-27.4L339.6,804.3z"/>
<path fill="#42364F" d="M381.3,847.4c-0.2-1.9-0.8-3.9-1.1-6.2c0.8,1.3,1.9,2.5,2.5,3.9C383,845.7,381.9,846.8,381.3,847.4z"/>
<path fill="#2F292C" d="M565.6,768.2c8.4,6.2,58.7,45.9,65.2,55.1c-2.5,0.6,0.6,5.1-1.9,5.6c-4.2-6.7-58.1-45.3-67.9-57.9
	C558.8,768.5,565.2,770.1,565.6,768.2z"/>
<path fill="#1E1C1E" d="M608.9,807.1c3.9-0.2,6.2,1.3,7,5.3C610.6,814.7,608.6,812.4,608.9,807.1z"/>
<path fill="#1E1C1E" d="M615.4,812.4c3,1.9,6.4,3.6,9.6,5.6C619.5,819.9,616.2,818.6,615.4,812.4z"/>
<path fill="#1E1C1E" d="M586.5,793.1c2.5-0.6,5.1-1.1,7.3-1.7c0.8,1.1,1.7,1.9,2.2,3.4c0.2,0.6,0,1.3-0.2,2.2
	C591.6,798.7,589.1,796.2,586.5,793.1z"/>
<path fill="#1E1C1E" d="M602.5,802.1c4.5-0.8,6.2,1.7,6.7,5.3C604.1,809,602.2,806.8,602.5,802.1z"/>
<path fill="#1E1C1E" d="M595.8,796.8c4.7-1.1,6.4,1.1,7,5.3C597.7,803.4,595.8,801.5,595.8,796.8z"/>
<path fill="#615F71" d="M544,324.4"/>
<path fill="#615F71" d="M551.9,318.8"/>
<path fill="#615F71" d="M547.5,335.9"/>
<path fill="#1E1C1E" d="M673.5,1092.3c-23.7-18.4-32.5-45.9-39.1-72.7c-1.3-21.2,3.4-44,21.6-58.5c-10.3,42.3-15.1,84.8,23.5,115.5
	c24.3,9.8,42.3,2.8,48.9-21.6c6.7-24.6,4.7-49.5-7.5-72.7c-7.5-18.8-35-24.6-45.9-33.6c13.4-13.7,39.1,1.9,47,9.8
	c18.2,18.2,19.3,42.5,22.4,66C743.7,1081.1,723,1101,673.5,1092.3z"/>
<path fill="#DC242F" d="M679.1,1076.9c-38.6-30.8-36.6-69-26.3-111.3c4.2-6.4,9.6-10.3,15.4-12.6c7.3-6.4,16.2-4.2,24.1-0.8
	c10.9,9,21,11.2,28,30.8c-0.2,13.2-0.8,24.8-0.2,37.2C721.6,1056,713.8,1067.7,679.1,1076.9z"/>
<path fill="#DC242F" d="M316.3,915.8c-23.7-22.1-29.3-50-26.5-80.5c9.6,3.4,3,20.7,16.8,20.1c6.2-0.2,11.2-4.2,12-10.7
	c1.1-10.7,1.3-21.6-10.1-27.7c-3.4-1.7-7.5-1.7-11.2-2.2c11.7-16.8,13.7-12,23.2-13.4c9.2,1.3,7.3-1.3,19,3l-0.2-0.2
	c6.2,19.3,18.4,36.3,19.3,57.3c-7.3,14.5,3.6,36.3-18.2,45.3c2.5-8.4,5.3-16.8,7-25.4c1.1-6.4-2.5-11.5-8.7-13.9
	c-6.4-2.8-10.9-0.8-14.8,5.1c-10.1,15.4-3,30.2,16.8,34.4C335.5,917.3,324.5,912.8,316.3,915.8z"/>
<path fill="#F0877F" d="M340.4,906.6c21.8-8.7,10.7-30.8,18.2-45.3c8.4-9.2,0.8-19.9,2.8-29.7c10.1,26.9,10.9,48.3,0.2,72.2
	c-9.8,21.8-24.3,29.7-45.3,12C324.5,912.8,335.5,917.3,340.4,906.6L340.4,906.6z"/>
<path fill="#B42A34" d="M297.3,814.9c3.6,0.8,7.9,0.6,11.2,2.2c11.5,5.8,11.2,17.1,10.1,27.7c-0.6,6.2-5.6,10.3-12,10.7
	c-13.7,0.6-7-16.8-16.8-20.1c1.1-5.6,0.2-8.1,3-13.2c1.7,0.6,3.4,1.1,5.1,1.7c0-2.8,0.2-5.6,0.2-8.4L297.3,814.9z"/>
<path fill="#EFBEB0" d="M361.4,831.8c-1.9,9.8,5.6,20.5-2.8,29.7c-0.8-21-13.2-38-19.3-57.3C352.2,809,358.1,819.4,361.4,831.8z"/>
<path fill="#EFBEB0" d="M339.6,804.3c-7.3,4.5-13.4,2.5-19-3C326.8,801.7,332.3,798.9,339.6,804.3z"/>
<path fill="#DC242F" d="M298.2,815.2c0,2.8-0.2,5.6-0.2,8.4c-1.7-0.6-3.4-1.1-5.1-1.7C293.5,818.6,293.7,816.9,298.2,815.2z"/>
<path fill="#F0877F" d="M679.1,1076.9c34.6-9.2,42.5-21,40.8-57c-0.6-12.3-8.7-24.8,0.2-37.2c12.6,23.2,14.5,47.8,7.5,72.7
	C721.3,1079.8,703.4,1086.5,679.1,1076.9z"/>
<path fill="#B42A34" d="M340.4,906.6c-19.6-4.2-26.9-19-16.8-34.4c3.9-5.8,8.4-7.9,14.8-5.1c5.8,2.5,9.8,7.5,8.7,13.9
	C345.8,889.9,342.6,898.3,340.4,906.6L340.4,906.6z"/>
<g id="g4068_1_">
	<g id="g4016-1_1_" transform="translate(-.95303 .16759)">
		<path id="path3891-1_1_" fill="#221816" stroke="#010101" d="M487.8,292L487.8,292"/>
	</g>
</g>
<path fill="#FFFFFF" d="M939.8,899.8c-0.3,0.1-0.7,0.3-0.9,0.7c-1,1.5-2.1,3-3.4,4.4c-7.8,2.1-13.8,8.5-20.3,13.2
	c-3.7,2.6-8.5,3.6-12.7,5.4c-4.7,2-9.3,4.4-13.8,6.9c-8.3,4.6-16.5,9.2-25,13.6c-4.5,2.4-9.1,4.3-13.9,6.1c-2.2,0.8-4.3,1.7-6.1,2.9
	c-1.6,0.3-3,1-4.5,1.9c-1.2,0.1-2.5,0.2-3.7,0.2c-2.8,0.2-5.1,0.9-7.4,2.2c-1.8-0.2-3.6-0.2-5.3-0.2c-2.1,0-3.9-0.3-6-0.7
	c-1.9-0.3-2.2,2.1-0.8,3c0.9,0.6,1.9,0.9,2.8,1.1c-0.3,0.8,0,1.8,0.6,2.4c1.2,1.1,2.6,1.9,3.9,2.8c0.1,0.9,0.4,1.8,1.2,2.6
	c1.8,1.9,3,4.5,4.7,6.6c2.2,2.9,6.5,4.9,9.3,7.4c5.1,4.3,9.4,8.5,16.1,10c16.4,3.8,32.2-7.4,47-12.5c13.7-4.7,28.6-8.9,39.3-19.3
	c2.7-2.6,5.4-6,5.7-9.8c0.3-3.4,1.5-6.2,2-9.6c1.3-7.9-0.7-16.8-2.8-24.2c-0.3-1.1-0.9-2-1.6-2.7c0.1-1.5-0.1-3-0.6-4.5
	c-0.1-0.9-0.2-1.9-0.4-2.8c-0.3-2.4-0.1-4.6-0.4-7C943,897.9,940.2,898,939.8,899.8z"/>
<path fill="#1E1C1E" d="M810.9,961.8c0.8-1.5,1.2-3.4,1.7-5.1c11.8,11.4,20.6,27.2,34.4,35.5c18.1,10.9,37.5-3.9,53.6-9
	c10.6-3.3,20.8-7.6,30.6-12.9c6-3.3,11.8-7.1,15.3-13.5c3.5-6.4,3.6-14.7,3.3-22.5c-0.2-6.1-0.9-12.1-1.9-18.2
	c-1-7-1.5-14.6-3.4-21.4c0-0.1-0.1-0.1-0.1-0.2c0.8,0.6,1.6,1.1,2.4,1.1c0.7,0,1.1-0.8,1-1.6c-0.3-2-2.9-3.3-4.4-3.9
	c-2-0.9-4-1-6-0.3c-0.9,0.3-0.7,2,0.3,2.1c1.1,0.1,2.4,0.3,3.5,0.8c-15.1,22.7-40.9,29.2-63.1,41.1c-19.8,10.6-41.1,23.8-65,20.6
	c0.2-0.8,0.6-1.5,0.8-2.2c0.1-0.4,0.2-0.9,0.3-1.3c0.1-0.3-0.1-0.9,0.1-1.2c0.2-0.4-0.2-1.2-0.7-1c-2,0.9-2.6,2.8-3.3,5.2
	c-0.7,2.2-1.6,4.7-1.7,7.2C808.9,961.9,810.3,962.8,810.9,961.8z M845.1,952.7c11.9-4.3,22.9-10.7,34.2-16.4
	c12.3-6.2,25.1-11.2,37.2-17.9c5.5-3,10.9-6.4,15.7-10.6c2.8-2.4,6.5-5.6,9-9.3c0.1,3.9,1,8.1,1.7,12c0.6,3.8,1.2,7.8,1.7,11.6
	c-2.5,1.3-4.6,4.4-6.6,6.3c-3.7,3.3-7.9,5.7-12,8.2c-0.7,0.4-0.4,1.9,0.6,1.8c4.8-0.6,9.1-2.6,13-5.3c1.7-1.1,4-2.7,5.8-4.6
	c0.8,8.8,1.1,18.9-2.8,26.1c-3.4,6.2-9.9,9.4-15.5,12.5c-9.4,4.9-19.7,9-29.9,12.1c-16.3,5.2-34.5,19.6-52.4,6.2
	c-2.8-2.1-5.5-4.8-8-7.6c9.9,3,24.4-6.2,30.6-10.1c0.7-0.4-0.1-1.5-0.7-1.2c-5.7,1.5-10.8,4-16.3,6.1c-5.2,1.8-12.8,4.2-18.1-0.1
	c-4.8-6-9.8-12-15.7-15.7C826.2,958.9,836.4,955.9,845.1,952.7z"/>
<polygon fill="#F6F08D" points="923,911.7 926.5,926.2 944.1,920.9 926.7,926.9 941.9,943.8 926.5,927.3 919.4,948.8 925.7,927.1 
	907.7,929 925.7,926.3 "/>
<path fill="#FFFFFF" stroke="#FFFFFF" stroke-miterlimit="10" d="M883.2,844.9c-10-0.1-18.1,5.8-17.1,14.6
	c-0.2,20.6,22.7,40.1,42.8,29.9c10.9-5.5,10.8-17.4,5.8-27.1C908.9,850.6,895.5,844.9,883.2,844.9z"/>
<path fill="#FFFFFF" stroke="#FFFFFF" stroke-miterlimit="10" d="M846.6,879.2c-2.7-2.6-8.2-6.7-12.4-4.4c-2.5-0.2-4.7,0.8-6.5,2.5
	c-1.1,0-2.1,0.6-2.8,1.6c-4,6.7-7.9,12.5-8.3,20.5c-0.2,4.3,0.9,8.1,2.7,11.5c-0.3,0.9-0.3,1.9,0.3,2.8c1,1.3,2.1,2.8,3.1,4
	c0.1,0.1,0.1,0.2,0.2,0.3c3,4.5,5.8,7.3,11.2,9c5.4,1.7,11,0.8,15.4-2.7c8.1-6.4,10-19.3,7-28.6
	C854.4,889.5,851.1,883.6,846.6,879.2z"/>
<path fill="#1E1C1E" d="M844.3,930.9c16.6-5.1,20.9-24.4,15.6-39c-4.4-12.3-17.2-26.6-31.4-20c-2.8,1.3-5.2,3.7-6.5,6.5
	c0,0.1-0.1,0.3-0.1,0.4c-8.2,8.3-10,20.7-6.2,32.4C819.7,923.3,830.7,935.1,844.3,930.9z M819.1,911.2c-4.4-10.8-2.9-22.9,4.3-31.4
	c0.1-0.1,0.1-0.1,0.2-0.1c5.3-3.8,9.8-7.3,16.5-4.6c6,2.4,10.3,7.6,13.4,13c7.3,13,5.8,29.5-7.6,37.4
	C834,932.5,823.1,921.2,819.1,911.2z"/>
<path fill="#1E1C1E" d="M906.8,892.7c13.8-5.7,16.1-20,9-32.2c-7.1-12.3-22-20.6-36.1-16.9c-0.6,0.2-1.1,0.3-1.6,0.4
	c-0.1,0-0.1,0-0.3-0.1c-6.9-0.2-12.5,4.8-14.6,11.1c-2.4,6.7,0.2,14.4,3.4,20.3C874.2,890,890.8,899.2,906.8,892.7z M866.7,859.5
	c0.1-7.5,5.7-10.5,11.6-13.5c0.1-0.1,0.1-0.1,0.2-0.1c10.6-2.7,21.5,1.5,29.3,9.7c7.8,8.1,12.5,22.5,2.2,30.5
	c-12.8,9.7-28.6,2.9-37.1-8.5C869,872.1,866.5,866,866.7,859.5z"/>
<path fill="#1E1C1E" d="M844.1,905.7c3.5-2.1,4.5-6.6,2.4-10s-6.6-4.5-10-2.4s-4.5,6.6-2.4,10S840.6,907.9,844.1,905.7z M838.5,895
	c3.1-1.9,6.2,2.9,3,4.8C838.3,901.9,835.4,897,838.5,895z"/>
<path fill="#1E1C1E" d="M892.4,876c3.5-2.1,4.5-6.6,2.4-10c-2.1-3.4-6.6-4.5-10-2.4c-3.5,2.1-4.5,6.6-2.4,10
	C884.4,877.1,888.9,878.1,892.4,876z M886.9,865.3c3.1-1.9,6.2,2.9,3,4.8C886.7,872.1,883.7,867.2,886.9,865.3z"/>
<path fill="#1E1C1E" d="M858.2,821.3c7.2-4.6,14.4-3.7,22.6-3.1c0.7,0.1,0.8-0.9,0.3-1.2c-7.1-4.8-16.8-7.1-24.8-3.5
	c-7.2,3.3-14.8,10.5-15.9,18.7c0,0.6,0.4,1.1,1,1C848.4,831.4,852.4,825,858.2,821.3z"/>
<path fill="#1E1C1E" d="M794.4,872.7c3.3-7.6,5.5-14.4,12.9-18.8c6-3.6,13.4-4.3,18.2-9.7c0.4-0.6,0.2-1.1-0.4-1.3
	c-7.8-2.7-17.7,0.7-23.8,5.7c-6.9,5.5-9.3,15.4-8.1,23.7C793.2,872.9,794.1,873.2,794.4,872.7z"/>
</svg>
