<?xml version="1.0" encoding="utf-8"?>
<!-- Generator: Adobe Illustrator 17.1.0, SVG Export Plug-In . SVG Version: 6.00 Build 0)  -->
<!DOCTYPE svg PUBLIC "-//W3C//DTD SVG 1.1//EN" "http://www.w3.org/Graphics/SVG/1.1/DTD/svg11.dtd">
<svg version="1.1" id="Layer_1" xmlns="http://www.w3.org/2000/svg" xmlns:xlink="http://www.w3.org/1999/xlink" x="0px" y="0px"
	 viewBox="124.1 271.1 889.5 748.5" enable-background="new 124.1 271.1 889.5 748.5" xml:space="preserve">
<rect x="124.1" y="271.5" fill="#CAF698" width="892.4" height="746.5"/>
<polygon fill="#CAE4F5" points="716.6,916.1 664.1,950.6 601.1,946.1 572.6,910.1 568.1,860.6 731.6,842.6 "/>
<path fill="#CAE4F5" d="M431.7,629.4c10.2-6.5,11.2,4,14.9,8.5c24.4,29.4,52.5,53.2,90.5,62.7c5.2,1.5,10.4,3.2,15.7,4.7l-0.5-0.2
	c1,3.2,2,6.5,3,9.5c-2.2,0.7-4.7,1.2-7,2c-39.3-11.7-76.1-27.4-102.7-60.4C439.2,648,432.5,640.3,431.7,629.4z"/>
<polygon fill="#F0877F" points="332.7,444.8 532.5,371.6 479.7,325.6 315.8,426.4 "/>
<path fill="#1E1C1E" d="M670.5,967.2c-56.2,6.5-91.8-19.4-110.7-70.9c-3.5-17.9-7.2-35.8-10.7-53.7c-1.5-8.2-7.5-10.2-14.4-13.2
	c-48.3-19.4-92.5-47.3-144.3-61.4c-1.7,5-4.5,13.2-8,21.1c-13.9,32.8-47.8,48.5-80.1,36.8c-10-3.5-24.1-9.5-33.8-13.7
	c-1-2.7-13.2-16.4-14.2-19.2c1-1.2,7.5-6.7,18.7,8.5c12.9,2.7,23.1,14.4,37.6,12.4c8.5,3.7,15.7,2.5,24.6-1
	c35.8-14.2,39.3-44.3,39.8-76.4c-0.2-23.1-6-44.8-16.4-65.4c-16.2-31.8-50.2-46.3-80.1-34.3c-29.6,13.9-41.5,39.8-37.3,79.6
	c2,28.1,14.9,56.5,28.1,82.1c1.7,3.2,0.7,8.5,2.5,11.7c-19.7-9.2-24.6-33.8-32.6-50.5c-9-23.1-12.2-42.3-12.7-63.7
	c0-41.8,61.2-88.3,30.3-107.5c-7-4.2-22.1-31.1-41-67.7c-9.7-18.9,30.1-37.8,47.5-58.5c5.7-7,10.2-26.9,7.8-35.2
	c20.3-19,18-15,33-24c31.5-12,164.1-104.2,184.3-81c3.5,4-2.5-3.2,31.6,23.4c9.5,7.2,34.6,39.6,61.6,54.6
	c19.5,18,34.5,25.5,60.1,46.7c21.9,17.4,42.3,38.3,69.7,48.3c26.1,9.5,44,28.4,56.2,52.7c11.4,23.1,27.1,42.3,44.8,60.9
	c13.7,14.2,24.9,16.7,42.8,10.7c49.3-16.2,101.5,15.9,111.4,66.7c5.5,28.9,5.2,57.5-2.7,86.1c-24.9,27.4-51.5,51-92.5,46.3
	c-6-0.7-10.4,2-14.2,5.5c-25.9,25.9-58.5,34.8-93.5,36.6c-12.7,0.7-21.4,4-24.1,18.4C732.5,920.1,710.8,951.2,670.5,967.2z
	 M356.3,616.7c-1-0.5-2-1.2-3-1.7c0.7,0.7,1.7,1.5,2.5,2.5c2,1.5,3.7,3.2,5.7,4.7c38.1,39.6,43.8,94.8,66.2,142.5
	c0.2-38.1-4.2-74.4-8.7-110.9c-0.7-7-4.7-10.9-10.9-13.4c-15.4-6.2-30.6-12.7-45.8-19.2C360.3,619.7,358.3,618.2,356.3,616.7z
	 M724.5,522.6c-2-5-4.5-9.5-10.4-10.4c-0.5,0-1.7,1.2-1.7,1.7c0.5,6.2,5.2,8.5,9.7,11.4c6,12.2,16.7,18.9,33.3,29.1
	C747.6,534.8,738.7,526.1,724.5,522.6z M853.9,769.2c-8.2,2-14.9,6.2-19.7,13.2c-24.1,12.9-49,24.6-75.6,31.3
	c-8.5,3.2-1.6-5.3-0.6,11.3c4.5,13.6,11.5,0.9,4.8,13.1c3.2-0.7,6-3,9-4.7c24.9-3.2,47.8-10.9,65.2-30.1
	C846.6,794,857.1,784.8,853.9,769.2c0.7-0.2,1.5-0.5,2-1c0.2-0.2,0.2-1,0.2-1.5C855.1,767.4,854.6,768.2,853.9,769.2z M885,674.9
	c-0.7-0.2-1.7-0.5-2.5-1C883.2,674.1,884.2,674.6,885,674.9c0.7,27.4,23.4,46.8,26.1,73.4C913.3,719.7,911.1,693,885,674.9z
	 M572.3,867.4c0.2,34.1,9.7,63.2,42.5,79.9c41.8,10.2,66.4-2.5,73.6-39.1c2.2-10.9,1.5-22.6,2-33.8c-0.7-8-0.5-16.2-2.7-23.6
	c-14.7-48-26.6-73.6-61.2-70.1c-4.5-4.2-9.2-3.2-14.4-1.5C577.7,791,566.5,816.2,572.3,867.4z M908.1,634.6
	c-19.2-13.9-36.3-8-58.5,5.7c16.2,3.7,26.6,6.2,37.3,8.7c8,9.7,15.9,19.2,23.9,28.9c18.9,33.1,16.7,68.4,10,105.2
	c16.2-3.5,21.6-14.7,26.9-25.6c10.9-23.4,0.5-46.5-1.5-69.7C940.9,664.7,931.2,644.8,908.1,634.6z M719.3,855.2
	c-4-16.2-6.5-32.6-11.9-48.3c-11.2-31.8-41.3-50.7-70.6-46c4.5,11.2,16.9,10.9,25.1,16.7c33.6,23.6,36.6,59.7,41.3,95.3
	c0,13.9-0.2,27.6-0.2,41.5C722.3,897.5,723.5,877.1,719.3,855.2z M451.1,689.3c-3.7-6.7-7.7-12.9-18.4-14.2
	c7.7,19.9,3.7,42.5,22.4,57c10,7.2,20.1,13.9,29.9,21.4c18.7,14.9,39.6,25.4,62.2,32.8c14.7,5,17.4-5.2,23.4-14.2
	c6.5-9.7,2.2-13.9-5.7-18.4C527,732.6,488.9,710.9,451.1,689.3z M829.2,754.5c27.4-10.9,36.6-32.1,23.6-60.4
	c-9-19.7-21.4-37.6-34.8-60.4c-39.1,87.6-118.2,87.1-196,94.5c4.7,4.7,6.5,8,8.2,8c39.3-0.7,65.7,20.6,87.1,50.5
	c4.5,6.2,10,9.7,17.7,9c31.8-2.7,61.7-10.2,85.1-34.1C823.3,759.2,826.2,757,829.2,754.5z M482,786.8c21.1,11.9,39.1,20.1,58.2,25.6
	c4.2,1.2,9.5,2.7,11.4-2.2c2.7-7.5-3.5-8-8.5-9.5C524.5,795.3,507.3,785.1,482,786.8z M342.2,532.8c3,27.1,21.9,35.1,41,49
	C380.7,553.2,364.3,542.5,342.2,532.8z M896.4,789.6c6.2-7.7,12.9-12.2,9.2-21.1c-0.7-1.5-5-3-6.2-2.2
	C891.4,770.6,890.9,777.6,896.4,789.6z M468.5,771.1c-1.7-1-4-2.2-6-3.5c-1,2-2,3.7-2.7,5.7c2.2,1,4.2,2,6.5,3
	C466.8,775.1,467.3,773.6,468.5,771.1z M572.8,723.6c9.7-5.2,17.7,7.7,29.6,4c-11.4-12.2-26.9-17.9-30.8-33.8c0-2,0-4,0-6
	c11.4,8,19.7,21.4,35.6,22.4c23.4,3.2,47.3,3.5,70.1-1.5c44.3-10,125.4-73.9,116.9-81.1c-11.4-29.4-38.3-46-57.7-68.7
	c-3-3.5-8.5-9.2-12.4-6.5c-1.5,1-1,9.7-0.7,11.4c0.7,22.6-2.7,32.3-11.2,46.8c-46,51.2-113.9,48.8-172.6,14.9c1.2-3,0.7-2.2,2-5.2
	c6.7,1.5,10.9,1.7,19.9,4.7c11.7,4.7,19.2,7.7,36.8,9c11.4,0.2,22.6,0.5,34.1,1c26.1-2.2,48.3-12.9,66.9-31.1
	c8-7.2,10.9-14.2,14.4-26.9c0-16.2-2.2-31.8-9.2-54.7c-5,13.9-7.5,21.6-10.2,28.9c-5,6.5-9.5,12.4-14.4,18.9
	c-16.9,11.7-34.6,21.1-54.7,25.1c-9.2,0-18.2,0-27.4,0c-12.2-2.2-24.4-4.7-36.8-7c-9.7-3.5-20.1-5.7-29.1-10.9
	c-8-4.7-23.1-1.2-22.1-17.4c6.7,1.5,13.4,2.7,20.1,5c37.1,12.2,74.6,17.7,113.2,7.5c43.5-11.4,54.2-38.3,29.4-74.6
	c-16.4-23.9-35.3-45.5-60-61.4c-13.7-10-26.4-26.1-45-18.9c-21.4,8.5-41.3,21.1-61.7,32.1c-23.6,9.5-47.3,18.9-70.9,28.4
	c-22.6,2-21.9,10.4-7.5,24.4c5.2,5.2,13.7,8.5,14.2,17.7c-12.7,9-16.4-11.7-29.4-8.2c5.5,7.7,20.9,23.9,25.9,30.8
	c-10.7,5-25.9-13.7-33.3-16.9c-2.2-2.7-4.7-6-6.7-8.7c-6-37.3-6-37.6,29.4-50.2c33.8-12.2,66.4-26.9,98.5-43.3
	c5-2.5,19.7-6,2.7-14.2c-59.5-49.8-69.7-70.1-20.9-40.3c12.9,16.4,29.1,28.1,46.3,38.1c3-4,2-2.7,5-6.7
	c-11.9-10.9-23.9-21.9-35.8-32.8c-54.2-52.5,24.6,27.4-28.4-26.4c-15.4-15.7-98,40.3-115.7,50.5c-35.6,20.6-22.1,17.9-62.7,34.6
	c-8.7,8-19.9,5.2,0,0c6.5,10.9,16.7,18.4,25.4,27.6c6.7,9,12.9,17.2,19.7,26.1c9.2,14.2,23.4,22.6,26.4,39.6
	c4.5,4.5,9.5,7.2,16.2,6.7c3.5,16.2,23.1,18.7,28.4,33.3c4.5,3.5,9,7,13.4,10.4c-1,7.2-1.2,9-2.2,16.2c-3,1.2-6.2,2.5-9.2,3.7
	c0,2.7,0,5.2,0,8c-4.7-2.2-9-6-14.7-4c-6.7-3.5-3.7-19.9-17.4-13.9c-11.2,5,7.5,15.7,0.5,19.2c-2.2,1.2-3.2,2-5.5,3.2
	c-1.7-0.5-3.7-0.5-5.5-0.2c-3.7-0.7-9.2-3.5-11.7-3.7c-23.6-13.2-44.8-28.9-56-56c-12.9,14.7-7,24.9,1.7,34.3
	c11.2,12.4,24.6,21.9,40.5,27.4c21.1,10.9,42.3,21.1,66.2,24.9l0,0c0.7,10.9,7.5,18.4,13.9,26.6c26.6,33.3,63.4,49,102.7,60.4
	c15.7,12.2,25.6,32.3,50.5,36.8C594.9,736.8,578,735.6,572.8,723.6z"/>
<path fill="#F0877F" d="M434.7,477.9c23.6-9.5,47.3-18.9,70.9-28.4c34.6,4.7,67.9-3.7,101.5-10.2c1.2,3,2.2,6.5,4.2,9.2
	c6,9.2,21.1,14.9,16.9,27.1c-5.5,14.9-20.4,2-30.6,5.2c-4.5,1.5-10.7-1.5-14.2,6.2c15.2,17.9,42.8,12.4,58.5,30.6
	c-34.6-3.5-69.2-7-103.7-10.4c27.4,18.9,59.2,21.9,88.6,32.8c5.2,2,13.4,2.7,11.7,11.2c-1.2,6.2-8.2,5.5-13.2,6
	C550.1,563.9,485.4,551.2,434.7,477.9z"/>
<path fill="#757888" d="M820,761.4c-23.4,23.9-53.2,31.1-85.1,34.1c-8,0.7-13.4-2.7-17.7-9c-21.4-30.1-47.8-51.2-87.1-50.5
	c-1.7,0-3.5-3.2-8.2-8c77.9-7.5,157-7,196-94.5c13.4,22.9,25.9,40.8,34.8,60.4c12.9,28.4,3.7,49.5-23.4,60.4c-1.7-7,4-10.9,6.5-16.4
	c3-7,9.7-15.9,2.2-21.4c-9.2-6.7-13.2,4.7-17.4,10.4c-8.7,11.7-20.9,18.2-33.6,24.4c-18.7,9-39.8,8-60.7,14.9
	c18.4,11.2,35.6,13.2,54.2,8C793.9,770.6,805.3,760.4,820,761.4z"/>
<path fill="#DC242F" d="M712.1,610.7c8.5-14.4,10.4-26.6,11.2-46.8c0-1.7-1.5-13.7,0-14.7c4-2.7,10.2,6.2,13.2,9.7
	c19.4,22.6,46.3,39.3,57.7,68.7c-4,5-9.2,15.9-10.4,17.2c-48.5,52.5-111.2,61.2-177.9,59.5c-18.2-15.9-36.1-31.6-54.2-47.5
	c29.1,5,56.2,18.4,86.3,20.1C684,679.9,714.6,653.5,712.1,610.7z"/>
<path fill="#EFBEB0" d="M434.7,477.9c51,73.4,115.7,86.1,190,79.4c5-0.5,11.9,0.2,13.2-6c1.7-8.5-6.5-9.2-11.7-11.2
	c-29.4-10.9-60.9-13.9-88.6-32.8c34.6,3.5,69.2,7,103.7,10.4c-15.7-18.2-43-12.7-58.5-30.6c3.5-8,9.7-5,14.2-6.2
	c10.2-3.2,25.1,9.7,30.6-5.2c4.5-12.2-10.9-18.2-16.9-27.1c-1.7-2.7-2.7-6.2-4.2-9.2c1.7-1,3.5-2,5.2-3c24.6,15.9,43.5,37.6,60,61.4
	c24.9,36.1,13.9,62.9-29.4,74.6c-38.6,10.2-76.1,4.7-113.2-7.5c-6.5-2.2-13.4-3.2-20.1-5l-0.2,0.7c-5.2-8.5-14.4-10-22.6-12.9
	c-3-3.2-6-6.5-10.9-4H475c-9.7-10.2-19.4-20.4-34.3-22.6l0.5-0.7c-0.5-9.2-9-12.7-14.2-17.7C412.8,488.6,411.8,479.9,434.7,477.9z"
	/>
<path fill="#B42A34" d="M315.8,426.4c52.5-3.2,131.1-101,160-57.2c6.7,10.2,44,18.9,59.2,38.3c16.7,8.2-4.7,13.7-9.7,16.2
	c-32.1,16.2-64.7,31.1-98.5,43.3c-35.3,12.7-35.3,12.9-29.4,50.2c-3.5,1-7.2,1.7-10.7,2.7c-3-17.4-22.4-24.4-26.6-41
	c21.9-6,43-13.2,68.7-27.6c-25.9-1-44-1.2-62.4-2.2c-9.2-0.5-18.9-6.2-26.1,4.5C330.2,446.3,322.3,437.1,315.8,426.4z"/>
<path fill="#B42A34" d="M712.1,610.7c2.5,42.8-28.4,72.4-74.1,69.4c-30.1-2-59-14.2-86.1-23.4c-14.2-6.7-23.4-19.7-37.8-26.4
	c-15.4-15.4-49-30.8-57.7-53c-7.5,0.7,12.4,5,12.9,4.2c24.4,7.5,42.5,34.8,69.4,43.5C599.6,658,662.6,659.5,712.1,610.7z"/>
<path fill="#A3A8B4" d="M270.3,503.5c7,4.2,4,2.7,14.4,5c2,1.5,3.7,2.7,5.7,4.2c1.2,11.7,7.7,15.4,18.7,12.4l0.7,0.7
	c-0.2,4-0.5,8-0.5,11.9c-5,9.7-10.9,9-19.2,3c-81.3-60.2,2.2-5.2-35.1-26.1C247.6,510.2,224,474.9,270.3,503.5z"/>
<path fill="#51495D" d="M451.1,689.3C488.9,710.9,527,732.6,565,754c7.7,4.5,12.2,8.7,5.7,18.4c-6,8.7-8.7,18.9-23.4,14.2
	c-22.6-7.5-43.5-17.9-62.2-32.8c-9.5-7.7-19.9-14.4-29.9-21.4C453.9,717.9,452.4,703.7,451.1,689.3z"/>
<path fill="#757888" d="M271.5,549.8c-1.5,1.7-3,3.5-4.5,5.2c-8.7-2.2-17.4-4.2-24.4-10.4c-18.4-24.4,54.2,26.1,34.3,9.7
	C266.8,538.1,192.9,488.3,271.5,549.8z"/>
<path fill="#DC242F" d="M427.5,533.1c-5-7-10-13.7-15.4-21.4c12.9-3.5,16.7,17.2,29.4,8.2l-0.5,0.7c11.9,14.9,17.9,14.2,34.3,22.6
	h0.2c-4.5,7.5,2.7,7.2,6.2,9.5c9,3.2,15.2,16.7,27.6,7.5l0.2-0.7c-1,16.2,14.2,12.7,22.1,17.4c8.7,5.2,19.2,7.5,29.1,10.9
	c0.2,12.2,0.5,24.6,0.7,36.8c-6.2-1.5-12.2-3-18.4-4.5c-36.8-23.6-70.9-51-105.2-78.1c-2-2-3.7-3.7-5.7-5.7
	C430.5,535.6,429,534.3,427.5,533.1z"/>
<path fill="#42364F" d="M355.1,614.7c15.2,6.5,38.6,16.2,54,22.4c6.2,2.5,12.4,9.7,13.2,16.7c4.2,36.3,6,77.1,5.7,115.2
	c-22.1-47.8-28.4-107.2-66.4-146.8L355.1,614.7z"/>
<path fill="#2F292C" d="M437.7,542.5c34.3,27.1,75.4,57.5,112.2,81.1c-1.5,1.5-3.5,3.5-5,5c-26.9-8.7-52-33.3-75.6-47.3
	c-5.5-6-10.4-12.4-21.4-13.7c5,10.2-9-1.2,0,0c14.2,23.1,50.7,46.8,66.2,62.2c0.2,3.2,7.7,17.7,7.7,20.9c-5.5,4-17.2-10.7-20.9-13.9
	c-19.4-16.7-38.8-33.6-58.2-50.5c-0.7-6.5-1.2-13.2-2-19.7c1.5-4.5,0.5-8.5-4-10.4c-1-0.5-3.5,2.2-5.2,3.5
	c-10.9-12.4-26.6-16.4-30.1-32.8l2.5-3.2C411.3,528.4,428.5,548,437.7,542.5z"/>
<path fill="#757888" d="M394.9,600.5c0.7-1,1-1,1.7-2c8.5,2.2,16.4,2.7,22.1-4.2c5.7-2,10,1.7,14.7,4c1.2,2.7,2.7,4.5,6,3.2
	l-0.2-0.2c0.5,3.5,2,5.7,6,4.7H445c0,4,2,5.7,6,4.7l-0.2-0.2c-1,5.7,1.7,8.7,7,9.7l-0.2-0.2c0.7,3.2,2.5,5.2,6,5l-0.2-0.2
	c0.2,5,3.2,7.7,8.2,8.5c8.2,7,18.7,11.4,22.6,22.6c1.2,6.5,4.7,9,11.2,6.7l0,0c0,4,1.7,6,6,4.7l0,0c-0.2,4.2,1.5,6.5,6,4.7l0,0
	c-1.2,9.7,5.2,12.4,12.7,14.4l-0.2-0.2c0.5,3.5,2.2,5.5,6,4.7l0,0c0.7,3.2,1.2,6.5,2,9.7c-38.1-9.7-66.2-33.6-90.5-62.7
	c-3.7-4.5-4.7-14.9-14.9-8.5l0,0C428,608.7,402.9,615.9,394.9,600.5z"/>
<path fill="#51495D" d="M278.7,637.1c29.9-11.9,64.2,2.5,80.1,34.3c10.4,20.6,17.7,42.3,17.9,65.4c-7,2-15.2,0.7-21.4-3
	c-0.7-7-1.7-13.7-2.5-20.6c0.5-0.7,1.5-1.5,1.2-1.7c-0.5-1.2-1.5-2.5-2.2-3.5c-10.7-42-26.4-54.2-65.2-51.7
	C284.2,649.8,281.5,643.5,278.7,637.1z"/>
<path fill="#DC242F" d="M625.7,595c19.7-4.2,37.1-13.4,53.5-24.6c9.2,9.5,6.5,26.1,19.7,33.6c-18.7,18.2-40.8,28.9-66.9,31.1
	C630,621.9,627.7,608.5,625.7,595z"/>
<path fill="#B42A34" d="M471.5,633.3c-5.5-3-36.1-34.6-38.3-43c3-1.2,6.2-2.5,9.2-3.7c19.4,16.9,41,33.1,58.2,50.5
	c1.7,2,24.1,18.2,34.6,27.9c2.2,2.7,19.9,12.4,19.9,12.4c6.2,4.7,16.2,14.7,16.2,16.7c-3.5,10.2-12.4,13.4-18.9,10.9l0.5,0.2
	c-12.2-3.5-41.8-38.1-47.8-42.5l0,0C491.9,658.7,479.7,640.3,471.5,633.3z"/>
<path fill="#757888" d="M820,761.4c-14.7-1-26.1,9-39.6,12.7c-18.7,5.2-35.8,3.5-54.2-8c20.9-7,42-6,60.7-14.9
	c12.7-6.2,24.6-12.7,33.6-24.4c4.2-5.5,8-17.2,17.4-10.4c7.5,5.5,1,14.4-2.2,21.4c-2.5,5.5-8.2,9.5-6.5,16.4
	C826.2,757,823.3,759.2,820,761.4z"/>
<path fill="#A3A8B4" d="M946.1,687.8c2,23.1,12.4,46.3,1.5,69.7c-5.2,10.9-10.7,22.1-26.9,25.6c6.5-36.8,8.7-72.1-10-105.2
	c0.5-0.7,0.7-1.7,1.5-2.2c0.5-0.5,2-1.2,2.2-1C923.3,683.1,928.5,700.7,946.1,687.8z"/>
<path fill="#A3A8B4" d="M703.1,872.9c-4.7-35.6-7.7-71.4-41.3-95.3c-8.2-5.7-20.6-5.5-25.1-16.7c29.6-4.7,59.5,13.9,70.6,46
	c5.5,15.7,8,32.1,11.9,48.3C706.1,854,707.3,866.2,703.1,872.9z"/>
<path fill="#42364F" d="M355.6,733.8c6.2,3.5,14.4,5,21.4,3c-0.5,32.1-5.7,62.2-41.5,76.4c-8.7,3.5-16.2,4.7-24.6,1
	c-0.7-5-1.2-10.2-2-15.2C342.7,792,351.6,779.9,355.6,733.8z"/>
<path fill="#51495D" d="M703.6,884.3c-0.5,11.4,0,22.9-2,33.8c-7,36.6-31.6,49.3-73.6,39.1c-0.7-5.5-1.2-10.7-2-16.2
	c44,7.5,62.4-10.2,62.4-60.2C693.7,882.1,698.6,883.1,703.6,884.3z"/>
<path fill="#42364F" d="M690.4,874.4c-5-1-10-2.2-15.2-3.2c-2.7-20.9-4-42.5-19.9-58.7c-7-7-10.9-7-25.6-6c-6.7,3-14.7-3.2-21.1,2.5
	c-7.7-18.2,20.6-13.2,17.9-28.1c34.8-3.5,46.8,21.9,61.2,70.1C690.2,858.2,689.7,866.4,690.4,874.4z"/>
<path fill="#51495D" d="M309.1,798.8c0.7,5,1.2,10.2,2,15.2c-14.7,2-24.6-9.7-37.6-12.4c-1.7-1.7-3.5-3.2-5.2-5
	c-13.4-25.1-24.6-51-26.6-79.9c11.7,0.7,15.7,10.7,21.6,18.2C265.8,765.4,282.2,785.8,309.1,798.8z"/>
<path fill="#B42A34" d="M612.3,436.3c-1.7,1-3.5,2-5.2,3c-33.6,6.7-66.9,15.2-101.5,10.4c20.4-10.9,40.3-23.9,61.7-32.1
	C585.9,410.2,598.6,426.4,612.3,436.3z"/>
<path fill="#615F71" d="M302.6,436.1c41.8,27.9,31.6,32.1,60.7,72.9c-19.4-0.2-57.5-36-68.2-68.4L302.6,436.1z"/>
<path fill="#42364F" d="M263.3,735.1c-6-7.7-10-17.4-21.6-18.2c-4.2-39.8,7.7-65.7,37.3-79.6c2.7,6.2,5.2,12.7,8,18.9
	C253.4,674.9,261.3,705.7,263.3,735.1z"/>
<path fill="#51495D" d="M758.6,813.4c26.6-6.7,51.5-18.4,75.6-31.3c1,7,2,14.2,2.7,21.1c-17.7,19.2-40.3,26.6-65.2,29.9
	C764.6,828.9,760.3,821.9,758.6,813.4z"/>
<path fill="#F0877F" d="M605.8,704.2c65.9,1.5,139.8-10,181.1-68.9c8.7-12.4,8-6,10-2.5l0,0c-24.4,45.3-77.1,66.2-121.1,75.9
	c-22.9,5.2-46.8,4.7-70.4,1.5C605.8,706.5,605.6,708,605.8,704.2z"/>
<path fill="#757888" d="M946.1,687.8c-17.7,12.9-22.9-4.7-31.8-13.2c-0.2-0.2-1.5,0.5-2.2,1c-0.5,0.5-1,1.5-1.5,2.2
	c-8-9.7-15.9-19.2-23.9-28.9c3-10.7,11.9-12.7,21.1-14.4C931.2,644.8,940.9,664.7,946.1,687.8z"/>
<path fill="#E96A5B" d="M340.4,453.5c7.2-10.7,16.9-5,26.1-4.5c18.2,1.2,36.6,1.5,62.4,2.2c-25.6,14.4-46.8,21.6-68.7,27.6
	C353.6,470.4,347.1,461.9,340.4,453.5z"/>
<path fill="#51495D" d="M634.5,780.6c2.7,14.9-33.6,10.2-25.9,28.4c-4.7,2.5-9.5,5.2-13.9,7.7c-14.2,16.7-17.9,31.1-16.7,50
	c-2,0.2-3.7,0.5-5.7,0.7c-5.7-51.2,5.5-76.4,39.8-88.1C617.3,777.6,630,776.4,634.5,780.6z"/>
<path fill="#EFBEB0" d="M561.3,625.1c-0.2-12.2-0.5-24.6-0.7-36.8c10.7,2,21.4,4,32.1,6c1.7,13.2,3.5,26.6,5.2,39.8
	C585,634.3,573,629.9,561.3,625.1z"/>
<path fill="#F0877F" d="M597.9,634.3c-1.7-13.2-3.5-26.6-5.2-39.8c10.9,0.2,21.9,0.5,32.8,0.7c2,13.4,4.2,26.6,6.2,40
	C620.5,634.8,609.3,634.6,597.9,634.3z"/>
<path fill="#A3A8B4" d="M365.5,604.7c-15.9-5.5-29.4-14.9-40.5-27.4c-8.5-9.5-14.7-19.9-1.7-34.3c11.2,27.1,32.6,42.8,56,56
	C374.8,601,368,597.5,365.5,604.7z"/>
<path fill="#EFBEB0" d="M605.8,704.2c0.5,2,0.7,4.2,1.2,6.2c-15.9-1-24.1-14.4-35.6-22.4l-0.5-1h-1.2c-2.7-1.7-5.7-3.2-8.5-5
	l0.2,0.2c-0.5-3.5-2.7-5-6.2-4.7l0.2,0.2c-0.7-3.2-2.2-5.5-6-4.7l0.2,0.2c-0.2-3.7-2-6-6.2-4.7l0.2,0.2c0-0.7,0.5-1.5,0.2-2
	c-0.5-1-1.5-2-2-3c-8-7.5-13.7-10.7-22.4-18.9l0,0c-3-2.2-5.2-4.7-5.2-4.7c-0.2-3.2-0.2-6.5-0.5-9.7c15.2,8.5,24.6,16.7,37.8,26.4
	C569.8,672.6,587.9,688.3,605.8,704.2z"/>
<path fill="#42364F" d="M585.4,877.4c2-0.2,3.7-0.5,5.7-0.7c7.5,23.1,13.9,48.3,34.8,64.7c0.7,5.5,1.2,10.7,2,16.2
	C595.4,940.5,585.9,911.4,585.4,877.4z"/>
<path fill="#757888" d="M482,786.8c25.4-1.7,42.5,8.2,61.2,13.9c5,1.5,11.4,2.2,8.5,9.5c-2,5.2-7.2,3.5-11.4,2.2
	C521,807,503.1,799,482,786.8z"/>
<path fill="#F0877F" d="M698.9,604c-13.2-7.5-10.4-23.9-19.7-33.6c5-6.2,9.7-12.2,14.7-18.4c6.5,8.5,12.9,16.7,19.7,25.1
	C709.1,591.5,706.8,596.8,698.9,604z"/>
<path fill="#A3A8B4" d="M716.3,882.8c4.5-6.7,3.2-18.9,16.2-17.7c4.2,21.9,3,42.3-16.4,59.5C716,910.7,716.3,896.8,716.3,882.8z"/>
<path fill="#51495D" d="M342.2,532.8c22.4,9.7,38.6,20.1,41,49C364.1,568.2,344.9,560,342.2,532.8z"/>
<path fill="#2F292C" d="M885,674.9c26.1,18.2,28.4,45,26.1,73.4C908.3,721.6,885.7,702,885,674.9L885,674.9z"/>
<path fill="#CAE4F5" d="M365.5,604.7c2.5-7.2,9.2-3.7,13.7-6c2.2,0.7,4.2,1.2,6.5,2c1.7,0.5,3.5,1,5.2,1.7c1.7-0.2,3.5-0.2,5.2,0
	c9.2,12.7,31.8,7.2,35.6,26.9C408.1,625.9,386.7,615.7,365.5,604.7z"/>
<path fill="#2F292C" d="M555.6,714.7c-1-3.2-2-6.5-3-9.5c8.2-0.2,12.7-7.2,18.9-10.9c9,14.4,19.4,21.4,30.8,33.8
	c-11.9,3.7-15.2,0.5-25.1-2C569,726.6,560.8,718.4,555.6,714.7z"/>
<path fill="#51495D" d="M507.6,369.2c5.2-0.5,10.2-1,15.4-1.5c11.9,10.9,23.9,21.9,35.8,32.8c-1.7,2.2-3.2,4.5-5,6.7
	C536.4,397.3,520.5,385.6,507.6,369.2z"/>
<path fill="#615F71" d="M451.1,689.3c1.2,14.2,5.5,31.8,6.7,46c-18.7-14.4-21.1-38.1-25.1-60.2C443.4,676.6,447.4,682.6,451.1,689.3
	z"/>
<path fill="#A3A8B4" d="M908.1,634.6c-9.2,1.7-17.9,4-21.1,14.4c-10.7-2.5-21.4-5-37.3-8.7C871.8,626.6,888.9,620.6,908.1,634.6z"/>
<path fill="#A3A8B4" d="M555.6,714.7c5.2,3.7,7.7,5.5,17.2,9.2c7.7,10.4,21.9,13.2,26.1,29.9c-24.6-4.5-34.8-24.6-50.5-36.8
	C550.9,715.9,553.1,715.2,555.6,714.7z"/>
<path fill="#DC242F" d="M713.3,577.1c-6.5-8.5-12.9-16.7-19.7-25.1c2.7-7.5,5.2-15.2,10.4-29.6C711.1,545.3,713.3,560.9,713.3,577.1
	z"/>
<path fill="#42364F" d="M836.9,803.5c-1-7-2-14.2-2.7-21.1c4.7-7.2,11.4-11.2,19.7-13.2l0,0C857.1,784.8,846.6,794,836.9,803.5z"/>
<path fill="#51495D" d="M724.5,522.6c14.2,3.5,23.1,12.2,30.8,31.6C738.7,544,728,537.6,722,525.1
	C722.8,524.4,723.5,523.4,724.5,522.6z"/>
<path fill="#2F292C" d="M418.8,594.3c-4.5,5.5-8.5,7.5-16.9,5.2c1.2-6.5-12.4-13.2-0.5-19.2C416.3,572.6,411.8,590.8,418.8,594.3z"
	/>
<path fill="#2F292C" d="M896.4,789.6c-5.5-11.7-5-18.9,3-23.6c1.2-0.7,5.5,1,6.2,2.2C909.3,777.4,902.6,781.8,896.4,789.6z"/>
<path fill="#757888" d="M309.1,524.9c-10.9,3-17.4-0.7-18.7-12.4C299.9,511.7,305.8,516.7,309.1,524.9z"/>
<path fill="#757888" d="M468.5,771.1c-1.2,2.7-1.7,4-2.5,5.2c-2.2-1-4.2-2-6.5-3c1-2,2-3.7,2.7-5.7
	C464.6,768.9,466.8,770.1,468.5,771.1z"/>
<path fill="#F0877F" d="M790.9,644"/>
<path fill="#757888" d="M283,564.9c-6.5-1.7-40.3-15.4-44-21.4c1.5-1.7-3.5-21.9-2-23.6c5,3.5,44.5,37.3,49.5,40.8
	C285.4,561.9,284.2,563.4,283,564.9z"/>
<path fill="#51495D" d="M722,525.1c-4.5-2.7-9.2-5.2-9.7-11.4c0-0.5,1.2-2,1.7-1.7c6,1,8.2,5.7,10.4,10.4
	C723.5,523.4,722.8,524.4,722,525.1z"/>
<path fill="#2F292C" d="M386.9,519.9c3.5-1,7.2-3.7,10.7-4.7c2,2.5,5.2,7,7.5,9.7c-0.2,0.7-0.5,1-0.7,1.7
	C399.9,532.8,391.9,525.1,386.9,519.9z"/>
<path fill="#757888" d="M286.4,560.7c2.7,2.7,5.5,5.2,8.5,8c-5.7,4.5-8.5-0.5-11.9-3.7C284.2,563.4,285.4,561.9,286.4,560.7z"/>
<path fill="#757888" d="M309.3,537.6c0.2-4,0.5-8,0.5-11.9C316.8,529.9,312.6,533.6,309.3,537.6z"/>
<path fill="#2F292C" d="M433.5,590.3c4.5,2.5,7.7,5.7,6.2,11.4c-3.2,1-5-0.7-6-3.2C433.5,595.5,433.5,593,433.5,590.3z"/>
<path fill="#B42A34" d="M431.5,560c1.7-1.2,4.2-4,5.2-3.5c4.2,2,5.5,6,4,10.4C437.7,564.7,434.5,562.2,431.5,560z"/>
<path fill="#2F292C" d="M885,674.9c-0.7-0.2-1.5-0.7-2.5-1C883.2,674.1,884.2,674.4,885,674.9L885,674.9z"/>
<path fill="#42364F" d="M853.9,769.2c0.7-0.7,1.5-1.7,2-2.5c0,0.5,0,1.2-0.2,1.5C855.3,768.7,854.6,768.9,853.9,769.2L853.9,769.2z"
	/>
<path fill="#42364F" d="M361.6,622.1c-2-1.5-3.7-3.2-5.7-4.7l0.5-0.7c2,1.5,4,3,6,4.5C362.3,621.1,361.6,622.1,361.6,622.1z"/>
<path fill="#42364F" d="M355.8,617.4c-0.7-0.7-1.7-1.5-2.5-2.5c1,0.5,2,1.2,3,1.7L355.8,617.4z"/>
<path fill="#2F292C" d="M489.4,550c-4.2,0,7.5,14.9-13.2,1.7c-9.2-6-43-25.6-48-36.6c-2.5,2.5,0.7-7.5,6.7-3.2
	C443.2,517.9,482,542.3,489.4,550z"/>
<path fill="#1E1C1E" d="M524.3,566.7c-12.4,9.2-35.1-8.2-44-11.7c1.5-1.7,4.7-5.5,6.2-7.2C494.7,550.7,514.3,560,524.3,566.7z"/>
<path fill="#1E1C1E" d="M437.7,542.5c-9.2,5.5-3.7-3.7-5.7-5.7C434,538.8,435.9,540.8,437.7,542.5z"/>
<path fill="#B42A34" d="M467.8,584.1c-9-1.2-15.2-6-19.9-16.2c10.9,1.2,15.9,7.7,21.4,13.7C468.5,582.3,468.3,583.3,467.8,584.1z"/>
<path fill="#2F292C" d="M553.1,705.2c-5.2-1.5-10.4-3.2-15.7-4.7c-0.7-3.2-1.2-6.5-2-9.7C547.4,688.1,550.9,696,553.1,705.2z"/>
<path fill="#2F292C" d="M517,671.9c8,1.5,13.7,5,12.7,14.4C522.3,684.3,515.8,681.6,517,671.9z"/>
<path fill="#2F292C" d="M463.6,625.1c6.7-1,6.7,4.2,8,8.5C466.8,632.6,463.8,630.1,463.6,625.1z"/>
<path fill="#2F292C" d="M494.2,656c4.5,1,10.2,0,11.2,6.7C498.9,665.2,495.4,662.7,494.2,656z"/>
<path fill="#2F292C" d="M450.9,610.7c5.7,0.7,8.2,4,7,9.7C452.6,619.4,449.9,616.4,450.9,610.7z"/>
<path fill="#2F292C" d="M529.5,686.3c4-1,6,0.7,6,4.7C531.7,691.5,530,689.8,529.5,686.3z"/>
<path fill="#2F292C" d="M505.3,662.7c3.7-0.7,5.5,1.2,6,4.7C507.1,668.7,505.3,666.7,505.3,662.7z"/>
<path fill="#2F292C" d="M445.1,606.2c3.5-0.5,5.7,1,6,4.7C445.9,613.7,444.7,611.2,445.1,606.2z"/>
<path fill="#2F292C" d="M511.1,667.4c3.5-0.5,5.5,1.2,6,4.7C512.6,673.9,510.8,671.6,511.1,667.4z"/>
<path fill="#2F292C" d="M457.6,620.4c4.2-1,6,0.7,6,5C460.1,625.6,458.3,623.6,457.6,620.4z"/>
<path fill="#2F292C" d="M439.2,601.5c4-1,5.5,1.2,6,4.7C441.4,607.2,439.7,605,439.2,601.5z"/>
<path fill="#1E1C1E" d="M263.3,735.1c-2-29.4-10-60.2,23.6-78.9c39.1-2.5,54.5,9.7,65.2,51.7c0.2,1.7,0.7,3.5,1,5.5
	c0.7,7,1.7,13.7,2.5,20.6c-4,46-12.7,58.2-46.5,64.9C282.2,785.8,265.8,765.4,263.3,735.1z M315.8,674.9c-6.2-4.7-11.2-2.2-16.9-2.7
	c-8.5,1.5-14.2,1.2-19.9,12.4l0,0c-4.2,2.2-1.7,3.5-4.7,6c-2.5,4.7-1,7.2-2.7,11.7c-2.5,27.4,2.5,52.2,23.6,71.6
	c19.7,11.9,33.3,9.5,40.3-10.7c8-22.9,8-40.3-0.2-64.2c-3-10.9-8.2-20.4-19.7-24.4L315.8,674.9z"/>
<path fill="#42364F" d="M352.9,713.2c-0.2-1.7-0.7-3.5-1-5.5c0.7,1.2,1.7,2.2,2.2,3.5C354.4,711.7,353.4,712.7,352.9,713.2z"/>
<path fill="#2F292C" d="M516.8,642.8c7.5,5.5,52.2,40.8,58,49c-2.2,0.5,0.5,4.5-1.7,5c-3.7-6-51.7-40.3-60.4-51.5
	C510.8,643,516.5,644.5,516.8,642.8z"/>
<path fill="#1E1C1E" d="M555.3,677.4c3.5-0.2,5.5,1.2,6.2,4.7C556.8,684.1,555.1,682.1,555.3,677.4z"/>
<path fill="#1E1C1E" d="M561.1,682.1c2.7,1.7,5.7,3.2,8.5,5C564.8,688.8,561.8,687.6,561.1,682.1z"/>
<path fill="#1E1C1E" d="M535.4,664.9c2.2-0.5,4.5-1,6.5-1.5c0.7,1,1.5,1.7,2,3c0.2,0.5,0,1.2-0.2,2
	C539.9,669.9,537.7,667.7,535.4,664.9z"/>
<path fill="#1E1C1E" d="M549.6,672.9c4-0.7,5.5,1.5,6,4.7C551.1,679.1,549.4,677.1,549.6,672.9z"/>
<path fill="#1E1C1E" d="M543.7,668.2c4.2-1,5.7,1,6.2,4.7C545.4,674.1,543.7,672.4,543.7,668.2z"/>
<path fill="#615F71" d="M497.6,248"/>
<path fill="#615F71" d="M504.6,243"/>
<path fill="#615F71" d="M500.7,258.2"/>
<path fill="#1E1C1E" d="M612.8,931.1c-21.1-16.4-28.9-40.8-34.8-64.7c-1.2-18.9,3-39.1,19.2-52c-9.2,37.6-13.4,75.4,20.9,102.7
	c21.6,8.7,37.6,2.5,43.5-19.2c6-21.9,4.2-44-6.7-64.7c-6.7-16.7-31.1-21.9-40.8-29.9c11.9-12.2,34.8,1.7,41.8,8.7
	c16.2,16.2,17.2,37.8,19.9,58.7C675.2,921.1,656.8,938.8,612.8,931.1z"/>
<path fill="#DC242F" d="M617.8,917.4c-34.3-27.4-32.6-61.4-23.4-99c3.7-5.7,8.5-9.2,13.7-11.2c6.5-5.7,14.4-3.7,21.4-0.7
	c9.7,8,18.7,10,24.9,27.4c-0.2,11.7-0.7,22.1-0.2,33.1C655.6,898.8,648.6,909.2,617.8,917.4z"/>
<path fill="#DC242F" d="M295.1,774.1c-21.1-19.7-26.1-44.5-23.6-71.6c8.5,3,2.7,18.4,14.9,17.9c5.5-0.2,10-3.7,10.7-9.5
	c1-9.5,1.2-19.2-9-24.6c-3-1.5-6.7-1.5-10-2c10.4-14.9,12.2-10.7,20.6-11.9c8.2,1.2,6.5-1.2,16.9,2.7l-0.2-0.2
	c5.5,17.2,16.4,32.3,17.2,51c-6.5,12.9,3.2,32.3-16.2,40.3c2.2-7.5,4.7-14.9,6.2-22.6c1-5.7-2.2-10.2-7.7-12.4
	c-5.7-2.5-9.7-0.7-13.2,4.5c-9,13.7-2.7,26.9,14.9,30.6C312.1,775.4,302.4,771.4,295.1,774.1z"/>
<path fill="#F0877F" d="M316.5,765.9c19.4-7.7,9.5-27.4,16.2-40.3c7.5-8.2,0.7-17.7,2.5-26.4c9,23.9,9.7,43,0.2,64.2
	c-8.7,19.4-21.6,26.4-40.3,10.7C302.4,771.4,312.1,775.4,316.5,765.9L316.5,765.9z"/>
<path fill="#B42A34" d="M278.2,684.3c3.2,0.7,7,0.5,10,2c10.2,5.2,10,15.2,9,24.6c-0.5,5.5-5,9.2-10.7,9.5
	c-12.2,0.5-6.2-14.9-14.9-17.9c1-5,0.2-7.2,2.7-11.7c1.5,0.5,3,1,4.5,1.5c0-2.5,0.2-5,0.2-7.5L278.2,684.3z"/>
<path fill="#EFBEB0" d="M335.2,699.3c-1.7,8.7,5,18.2-2.5,26.4c-0.7-18.7-11.7-33.8-17.2-51C327,679.1,332.2,688.3,335.2,699.3z"/>
<path fill="#EFBEB0" d="M315.8,674.9c-6.5,4-11.9,2.2-16.9-2.7C304.4,672.6,309.3,670.1,315.8,674.9z"/>
<path fill="#DC242F" d="M279,684.6c0,2.5-0.2,5-0.2,7.5c-1.5-0.5-3-1-4.5-1.5C274.8,687.6,275,686.1,279,684.6z"/>
<path fill="#F0877F" d="M617.8,917.4c30.8-8.2,37.8-18.7,36.3-50.7c-0.5-10.9-7.7-22.1,0.2-33.1c11.2,20.6,12.9,42.5,6.7,64.7
	C655.3,919.9,639.4,925.9,617.8,917.4z"/>
<path fill="#B42A34" d="M316.5,765.9c-17.4-3.7-23.9-16.9-14.9-30.6c3.5-5.2,7.5-7,13.2-4.5c5.2,2.2,8.7,6.7,7.7,12.4
	C321.3,751,318.5,758.5,316.5,765.9L316.5,765.9z"/>
<g id="g4068_1_">
	<g id="g4016-1_1_" transform="translate(-.95303 .16759)">
		<path id="path3891-1_1_" fill="#221816" stroke="#010101" d="M447.7,219.2L447.7,219.2"/>
	</g>
</g>
<path fill="#FFFFFF" d="M849.7,759.8c-0.3,0.1-0.6,0.3-0.8,0.6c-0.9,1.3-1.9,2.7-3,3.9c-6.9,1.9-12.3,7.6-18.1,11.7
	c-3.3,2.3-7.6,3.2-11.3,4.8c-4.2,1.8-8.3,3.9-12.3,6.1c-7.4,4.1-14.7,8.2-22.2,12.1c-4,2.1-8.1,3.8-12.4,5.4c-2,0.7-3.8,1.5-5.4,2.6
	c-1.4,0.3-2.7,0.9-4,1.7c-1.1,0.1-2.2,0.2-3.3,0.2c-2.5,0.2-4.5,0.8-6.6,2c-1.6-0.2-3.2-0.2-4.7-0.2c-1.9,0-3.5-0.3-5.3-0.6
	c-1.7-0.3-2,1.9-0.7,2.7c0.8,0.5,1.7,0.8,2.5,1c-0.3,0.7,0,1.6,0.5,2.1c1.1,1,2.3,1.7,3.5,2.5c0.1,0.8,0.4,1.6,1.1,2.3
	c1.6,1.7,2.7,4,4.2,5.9c2,2.6,5.8,4.4,8.3,6.6c4.5,3.8,8.4,7.6,14.3,8.9c14.6,3.4,28.6-6.6,41.8-11.1c12.2-4.2,25.4-7.9,35-17.2
	c2.4-2.3,4.8-5.3,5.1-8.7c0.3-3,1.3-5.5,1.8-8.5c1.2-7-0.6-14.9-2.5-21.5c-0.3-1-0.8-1.8-1.4-2.4c0.1-1.3-0.1-2.7-0.5-4
	c-0.1-0.8-0.2-1.7-0.4-2.5c-0.3-2.1-0.1-4.1-0.4-6.2C852.5,758.1,850,758.2,849.7,759.8z"/>
<path fill="#1E1C1E" d="M735,815c0.7-1.3,1.1-3,1.5-4.5c10.5,10.1,18.3,24.2,30.6,31.6c16.1,9.7,33.4-3.5,47.7-8
	c9.4-2.9,18.5-6.8,27.2-11.5c5.3-2.9,10.5-6.3,13.6-12s3.2-13.1,2.9-20c-0.2-5.4-0.8-10.8-1.7-16.2c-0.9-6.2-1.3-13-3-19
	c0-0.1-0.1-0.1-0.1-0.2c0.7,0.5,1.4,1,2.1,1c0.6,0,1-0.7,0.9-1.4c-0.3-1.8-2.6-2.9-3.9-3.5c-1.8-0.8-3.6-0.9-5.3-0.3
	c-0.8,0.3-0.6,1.8,0.3,1.9c1,0.1,2.1,0.3,3.1,0.7c-13.4,20.2-36.4,26-56.1,36.6c-17.6,9.4-36.6,21.2-57.8,18.3
	c0.2-0.7,0.5-1.3,0.7-2c0.1-0.4,0.2-0.8,0.3-1.2c0.1-0.3-0.1-0.8,0.1-1.1c0.2-0.4-0.2-1.1-0.6-0.9c-1.8,0.8-2.3,2.5-2.9,4.6
	c-0.6,2-1.4,4.2-1.5,6.4C733.2,815.1,734.5,815.9,735,815z M765.4,806.9c10.6-3.8,20.4-9.5,30.4-14.6c10.9-5.5,22.3-10,33.1-15.9
	c4.9-2.7,9.7-5.7,14-9.4c2.5-2.1,5.8-5,8-8.3c0.1,3.5,0.9,7.2,1.5,10.7c0.5,3.4,1.1,6.9,1.5,10.3c-2.2,1.2-4.1,3.9-5.9,5.6
	c-3.3,2.9-7,5.1-10.7,7.3c-0.6,0.4-0.4,1.7,0.5,1.6c4.3-0.5,8.1-2.3,11.6-4.7c1.5-1,3.6-2.4,5.2-4.1c0.7,7.8,1,16.8-2.5,23.2
	c-3,5.5-8.8,8.4-13.8,11.1c-8.4,4.4-17.5,8-26.6,10.8c-14.5,4.6-30.7,17.4-46.6,5.5c-2.5-1.9-4.9-4.3-7.1-6.8
	c8.8,2.7,21.7-5.5,27.2-9c0.6-0.4-0.1-1.3-0.6-1.1c-5.1,1.3-9.6,3.6-14.5,5.4c-4.6,1.6-11.4,3.7-16.1-0.1c-4.3-5.3-8.7-10.7-14-14
	C748.6,812.4,757.7,809.7,765.4,806.9z"/>
<polygon fill="#F6F08D" points="834.7,770.4 837.8,783.3 853.5,778.6 838,783.9 851.5,799 837.8,784.3 831.5,803.4 837.1,784.1 
	821.1,785.8 837.1,783.4 "/>
<path fill="#FFFFFF" stroke="#FFFFFF" stroke-miterlimit="10" d="M799.3,711c-8.9-0.1-16.1,5.2-15.2,13
	c-0.2,18.3,20.2,35.7,38.1,26.6c9.7-4.9,9.6-15.5,5.2-24.1C822.2,716.1,810.3,711,799.3,711z"/>
<path fill="#FFFFFF" stroke="#FFFFFF" stroke-miterlimit="10" d="M766.8,741.5c-2.4-2.3-7.3-6-11-3.9c-2.2-0.2-4.2,0.7-5.8,2.2
	c-1,0-1.9,0.5-2.5,1.4c-3.6,6-7,11.1-7.4,18.2c-0.2,3.8,0.8,7.2,2.4,10.2c-0.3,0.8-0.3,1.7,0.3,2.5c0.9,1.2,1.9,2.5,2.8,3.6
	c0.1,0.1,0.1,0.2,0.2,0.3c2.7,4,5.2,6.5,10,8s9.8,0.7,13.7-2.4c7.2-5.7,8.9-17.2,6.2-25.4C773.7,750.7,770.8,745.4,766.8,741.5z"/>
<path fill="#1E1C1E" d="M764.7,787.5c14.8-4.5,18.6-21.7,13.9-34.7c-3.9-10.9-15.3-23.7-27.9-17.8c-2.5,1.2-4.6,3.3-5.8,5.8
	c0,0.1-0.1,0.3-0.1,0.4c-7.3,7.4-8.9,18.4-5.5,28.8C742.8,780.7,752.6,791.2,764.7,787.5z M742.3,770c-3.9-9.6-2.6-20.4,3.8-27.9
	c0.1-0.1,0.1-0.1,0.2-0.1c4.7-3.4,8.7-6.5,14.7-4.1c5.3,2.1,9.2,6.8,11.9,11.6c6.5,11.6,5.2,26.2-6.8,33.3
	C755.6,788.9,745.9,778.9,742.3,770z"/>
<path fill="#1E1C1E" d="M820.3,753.5c12.3-5.1,14.3-17.8,8-28.6c-6.3-10.9-19.6-18.3-32.1-15c-0.5,0.2-1,0.3-1.4,0.4
	c-0.1,0-0.1,0-0.3-0.1c-6.1-0.2-11.1,4.3-13,9.9c-2.1,6,0.2,12.8,3,18.1C791.3,751.1,806.1,759.3,820.3,753.5z M784.6,724
	c0.1-6.7,5.1-9.3,10.3-12c0.1-0.1,0.1-0.1,0.2-0.1c9.4-2.4,19.1,1.3,26.1,8.6c6.9,7.2,11.1,20,2,27.1c-11.4,8.6-25.4,2.6-33-7.6
	C786.7,735.2,784.5,729.8,784.6,724z"/>
<path fill="#1E1C1E" d="M764.5,765.1c3.1-1.9,4-5.9,2.1-8.9s-5.9-4-8.9-2.1s-4,5.9-2.1,8.9S761.4,767,764.5,765.1z M759.6,755.6
	c2.8-1.7,5.5,2.6,2.7,4.3C759.4,761.7,756.8,757.3,759.6,755.6z"/>
<path fill="#1E1C1E" d="M807.5,738.7c3.1-1.9,4-5.9,2.1-8.9s-5.9-4-8.9-2.1c-3.1,1.9-4,5.9-2.1,8.9
	C800.4,739.6,804.4,740.5,807.5,738.7z M802.6,729.1c2.8-1.7,5.5,2.6,2.7,4.3C802.4,735.2,799.8,730.8,802.6,729.1z"/>
<path fill="#1E1C1E" d="M777.1,690c6.4-4.1,12.8-3.3,20.1-2.8c0.6,0.1,0.7-0.8,0.3-1.1c-6.3-4.3-14.9-6.3-22.1-3.1
	c-6.4,2.9-13.2,9.3-14.1,16.6c0,0.5,0.4,1,0.9,0.9C768.4,699,771.9,693.3,777.1,690z"/>
<path fill="#1E1C1E" d="M720.3,735.7c2.9-6.8,4.9-12.8,11.5-16.7c5.3-3.2,11.9-3.8,16.2-8.6c0.4-0.5,0.2-1-0.4-1.2
	c-6.9-2.4-15.7,0.6-21.2,5.1c-6.1,4.9-8.3,13.7-7.2,21.1C719.3,735.9,720.1,736.2,720.3,735.7z"/>
</svg>
