<?xml version="1.0" encoding="UTF-8" standalone="no"?>
<svg viewBox="0 0 248.03149 248.03149" xmlns="http://www.w3.org/2000/svg">
<path d="m76.25144,40.58272c.85704,7.66695.79074,8.53915-10.21044,12.35617-11.07984,3.84431-11.21612,18.8655-8.33008,21.51457 2.93352,2.69266 6.45491,5.00254 6.45491,5.00254l21.43014-18.1907-5.10835-18.43989-4.23619-2.24269z" fill="#b20f18" fill-rule="evenodd" stroke="#000" stroke-linecap="round" stroke-linejoin="round"/>
<path d="m81.22927,46.54413c-9.60303-10.83644-14.9772-10.66024-15.59391-10.57214s-1.23342-2.02632.96911-2.37872 10.48404,1.85012 10.48404,1.85012l4.14075,11.10074z" fill="#fff" fill-rule="evenodd" stroke="#000"/>
<path d="m87.39635,35.00287c0,1.60568-1.30166,2.90734-2.90734,2.90734s-2.90734-1.30166-2.90734-2.90734 1.30166-2.90734 2.90734-2.90734 2.90734,1.30166 2.90734,2.90734z" fill="none" stroke="#000" stroke-width="1.25"/>
<path d="m84.75332,34.78263c0,.21896-.1775.39646-.39645.39646s-.39646-.1775-.39646-.39646 .1775-.39646.39646-.39646 .39645.1775.39645.39646z" fill="none" stroke="#000" stroke-width="1.25"/>
<path d="m78.76244,38.61503c-7.04809-4.93366-14.18429-5.81468-18.06074-4.58126 .88101-4.31696 12.51037-5.10987 17.35593-4.22886l-2.92456,3.39857 3.62937,5.41155z" fill="#fff" fill-rule="evenodd" stroke="#000" stroke-linecap="round" stroke-linejoin="round"/>
<path d="m136.90586,178.69541c3.11399,7.38826 6.93604,11.87972 7.36643,14.56513 .44415,2.77127 2.18308,2.81737 3.67505,2.81277 1.57717-.0049 11.46072.2689 17.636-2.60789-5.41961,5.17599-12.16175,8.03709-14.35506,8.18499-1.79286.1209-2.35777.854-1.51149,2.8895 .943,2.2681 2.15203,4.4247 2.98337,5.6921 .74417,1.1345 2.6226,1.9088 4.63702,2.145s9.94062-2.452 8.84007,7.7455c-1.57386-7.6502-4.28191,1.593-8.05798-2.3118-.58529-.6052-4.96791-3.3379-5.76052-.7329-1.1925,3.9194-8.0559,11.3491-8.41828,13.0254-.38055,1.7604-.89617,3.7315-3.81315,2.6608-2.9465-1.0815-3.67838,2.7425-5.36868,4.5424-.38503-2.3736.33575-4.8565 1.00086-6.5166 1.07087-2.6728 6.65595-7.0357 9.06904-10.6476 2.37255-3.5512 1.66344-9.0291 1.66344-9.0291s.3878,6.2343-1.49035,8.9961c-1.84984,2.7201-11.58966,4.3474-12.50791,6.5856s-4.52972,3.3612-5.37143,1.5477c-.80238-1.7287-3.32197.0789-5.26605,2.2093 .31012-2.0095.49706-3.0579 1.68878-4.9076 1.85437-2.8782 15.73747-5.5349 18.37836-8.742 1.1774-1.4298 1.4498-2.0203 1.4498-2.0203s-.04423.6237-1.39557,2.1533c-1.04993,1.1884-12.14363.6424-11.85261-1.027 .27612-1.5838.54997-3.2517-5.06487.0016 .34958-2.3226 1.5579-2.5012 2.75222-4.1937s12.7209,1.805 14.92204,1.9822 3.95616-.7168 2.50561-4.2584c-1.31288-3.2056-8.52015-17.99302-14.73429-24.92317l6.40015-5.82133z" fill="#b20f18" fill-rule="evenodd" stroke="#000" stroke-linecap="round" stroke-linejoin="round"/>
<path d="m134.31218,117.20794c-13.45614-14.2037-28.05276-20.32371-27.88838-24.54499 .22125-5.68151-.42279-12.7134 2.82164-2.68494 .13371-20.03893-1.5147-19.99421 2.07168-13.91999 0,0 3.06509-22.39082-10.4903-38.0597-13.49385-15.59774-24.17992-11.44108-24.19133-9.95284-.01837,2.39683-.46448,3.61841-1.82249,3.816-1.23296.17938-1.33663,1.73178.07299,2.43659s8.08725,15.55729 4.58126,25.37314c-3.54542,9.92627-13.71355,14.70663-16.88519,15.41144s-10.11804,3.58084-15.83683,11.23786c10.35603-3.66634-1.09045.54145-4.63287,12.46761 7.87575-5.82157-.19758-1.62553.52861,17.09163 2.22131-1.71623 2.7281-3.13231 3.54542-5.43205 .56814,14.14666 20.35931,38.18061 38.84635,47.80246 14.31301,7.44941 21.902,11.41966 29.05827,10.93079 1.71798,3.28177 7.6648,9.33872 11.89366,13.91998s4.31014,4.08501 11.10074,1.85013 7.0185-6.81289 4.05266-11.10075c-.7433-1.07461 1.06919-2.68473 1.76202-.88101 1.77189,4.61296 1.00769,5.64962 5.10986,7.04809 3.87645,1.32152 5.09329,2.66281 7.75291,2.64304-.95253-1.07699-1.75068-2.16935-2.75291-3.07454-.89048-.80426.35042-1.2611 1.60759-.71381 4.29952,1.87172 6.05271,4.27175 8.19341,4.31696-.2643-.61671-.66184-1.36859-1.73417-3.35272-.43434-.80365 1.28363-.49699 1.91037-.17133 4.21812,2.19179 5.72658,2.46684 7.7529,2.73114-.48921-1.34534-2.29997-3.4862-3.59453-4.54602-.75694-.61969-.11572-1.45299.68719-.91625 2.37228,1.58586 7.68532,3.92806 9.94658,4.72097-.77953-2.67154-3.74585-5.1079-5.57801-6.45903-1.13798-.8392.42866-1.2468 1.60163-.70697 3.09051,1.42233 6.79217,3.59908 9.35682,4.90559-1.2494-3.16452-4.74149-6.70281-7.48601-9.24436l5.99088-.3524c0,0-12.51037-13.74378-13.74378-14.9772s.62297-1.52169 1.23341-.88101c1.48368,1.55716 5.13125,5.07964 5.13125,5.07964 1.47965-6.11692-.60221-9.3896-5.40181-11.29833-.95835-.38112-1.31998-1.6055.62297-1.71041 5.76229-.31113 7.03285,5.24458 8.45771,9.69112 4.02086-8.81062-.1238-18.44623-10.32295-17.44403-2.30569.22657-3.08929-1.57788-.30965-2.16604 7.5538-1.59833 13.17608,4.20597 14.38812,11.54967 5.68133-10.79452-1.50845-27.22474-17.21168-18.64466-2.14327,1.17106-3.50082.58224-1.87344-.76479 14.25679-11.80082 22.25158-1.9367 24.28202,7.87231 14.9126-23.90043-16.02535-29.23639-27.27746-14.76191 13.89515-22.19541 29.78379-19.34747 36.3279-4.78769 13.08666-31.88891-32.63499-27.14721-43.22117-.477 6.67562-22.19693 31.54195-46.38738 49.18183-19.12055 11.89965-30.52571-40.36652-42.8607-55.50374,11.08823-.63999-20.26023 32.60953-74.16081 58.88181-29.75682 11.74677-43.69724-56.99409-45.78013-65.80531,23.03089-2.16017-34.99578 24.21166-80.58204 66.5315-50.53983-3.97163-45.5531-96.28031-27.18955-71.71995,66.42869zm-57.06399-82.42068c8.37377,11.12791 11.71526,20.88642 18.36065,15.30108 6.69687-5.62861.6286-14.8921-16.04379-16.41426-1.30197-.11887-2.92271.30806-2.31685,1.11318z" fill-rule="evenodd"/>
<path d="m93.38202,32.01154c23.04224,2.15093 29.2449-6.03286 31.56165-13.75251 2.34102-7.8005-3.58925-1.59833-6.82869.39517s-9.39614,3.21806-5.65833-1.26732-1.26106-5.87103-7.27805-1.26731c-5.97474,4.57138-10.40543,6.22969-7.81919-.03909 2.55521-6.19357-4.39154-3.93145-9.32759,1.22272-4.96575,5.18519-6.1694.08048-4.53882-1.59207 1.66064-1.70339.66908-5.10651-3.45397-2.48562-4.22426,2.68523-2.44912,6.32481-4.00655,6.20022-1.55371-.12429-2.0925-2.38239-2.54186-2.99629-.42865-.58562-1.89265-2.06911-3.0328,1.4149-1.11565,3.40912-.05574,12.01627 22.9242,14.1672z" fill="#b20f18" fill-rule="evenodd" stroke="#000" stroke-linecap="round" stroke-linejoin="round"/>
<path d="m56.31642,65.75068c2.86566-2.61647 5.35754-4.85916 7.72482-6.47888" fill="none" stroke="#000" stroke-linecap="round" stroke-linejoin="round"/>
<path d="m98.7727,173.54575c-4.36079,6.72806-7.56999,12.93638-8.56674,15.05447s-.94074,3.05764.12459,3.86241c1.10623.83566 10.33503,5.34238 16.57098,5.48208-6.1051,3.987-17.06936.623-18.56448-.3737s-1.61972-1.1214-3.23944.3738-3.73782,3.8624-3.987,5.3575-.83566,3.1086.53487,4.6037 8.33527,5.3959 2.83986,11.8471c-.04459-1.9542-.50906-3.6177-1.50581-3.8669s-2.24269-1.8688-1.86891-3.1148-1.61972-1.2459-2.61647-1.2459-3.50597-3.0879-6.35429-.623c-3.23944,2.8034-12.32049,2.7124-12.89546,5.2952-.57776,2.5954-2.99025,2.8657-3.80011,1.8066-.78745-1.0298-3.92471-1.9934-6.60348.8722 .32217-2.4952-.80986-4.9215 4.79686-6.4166s5.34869-1.7916 7.53793-2.6787c2.24209-.9085 11.46264-3.1149 11.46264-3.1149s-8.7857,2.1823-11.51424,2.9752c-1.43571.4172-1.94189-1.2309-4.30918-.7325s-5.91821.2492-5.35754-1.682c.53139-1.8303-2.49188-2.4296-4.92146-1.7444 1.16929-1.6978.62297-2.741 5.73132-2.4918s8.28549.9345 10.02981,1.5574 6.1051.3738 6.1051.3738-4.54768.3738-6.47888-.3738c-1.47884-.5725-3.48863-3.364-3.48863-4.6099s-2.40194-1.4908-5.14301-1.3039c2.20253-2.4587 3.50978-2.6103 5.58092-2.5737s7.52786,4.3252 8.5756,5.2846c1.22456,1.1213 4.06884,3.8259 6.18694,1.0848s14.24711-21.75314 15.63836-32.92298l9.49936,4.03862z" fill="#b20f18" fill-rule="evenodd" stroke="#000" stroke-linecap="round" stroke-linejoin="round"/>
<path d="m83.60248,154.4615c0,10.2167 2.68525,16.52714 8.34779,18.31531s9.59372,4.36078 12.70857.87215-.87215-10.96426-.87215-10.96426l-20.18421-8.2232z" fill-rule="evenodd"/>
<path d="m83.45651,97.5951c-11.90381.3019-15.16181,11.91207-3.42062,23.95919 11.82669,12.13485 38.80396,38.49263 98.38253,49.4782" fill="none" stroke="#fff" stroke-linecap="round" stroke-linejoin="round"/>
<path d="m127.57048,147.94857c25.72555,11.45315 43.87438,15.1534 48.98425,13.21517" fill="none" stroke="#fff" stroke-linecap="round" stroke-linejoin="round"/>
<path d="m138.31883,143.71971c20.79187,8.28152 28.19237,10.57215 29.95439,10.57215" fill="none" stroke="#fff" stroke-linecap="round" stroke-linejoin="round"/>
<path d="m42.64096,115.87975c2.22131-1.71623 2.7281-3.13231 3.54542-5.43205 .56814,14.14666 20.35931,38.18061 38.84635,47.80246 14.31301,7.44941 21.902,11.41966 29.05827,10.93079 1.71798,3.28177 7.6648,9.33872 11.89366,13.91998s5.80527,7.32445 6.36617,8.82739" fill="none" stroke="#fff" stroke-linecap="round" stroke-linejoin="round"/>
</svg>
